<svg xmlns="http://www.w3.org/2000/svg" viewBox="0 0 192.39 188.95"><defs><style>.a{fill:#fff;}</style></defs><title>custom-msaccess</title><path class="a" d="M272.23,203.8c-35.92,0-74.09-8.37-74.09-23.9S236.31,156,272.23,156s74.09,8.37,74.09,23.89S308.15,203.8,272.23,203.8Zm0-43.34c-41,0-69.63,10.25-69.63,19.44s28.6,19.45,69.63,19.45,69.64-10.25,69.64-19.45S313.27,160.46,272.23,160.46Z" transform="translate(-153.94 -156.01)"/><path class="a" d="M272.24,250.86c-6.2,0-12.34-.24-18.24-.7l-2.06-.16V209.23a6.67,6.67,0,0,0-6.67-6.67H198.14V179.9h4.46c0,9.2,28.6,19.45,69.64,19.45s69.62-10.25,69.62-19.45h4.46V227C346.32,242.48,308.15,250.86,272.24,250.86Zm-15.84-5c5.15.35,10.47.53,15.84.53,41,0,69.62-10.24,69.62-19.44V188.53c-11.08,10-41.07,15.27-69.62,15.27-5.89,0-11.84-.22-17.66-.66a11,11,0,0,1,1.82,6.09ZM202.6,198.1h20.64c-9-2.44-16.28-5.64-20.64-9.57Z" transform="translate(-153.94 -156.01)"/><path class="a" d="M272.24,297.91c-7.17,0-14.28-.32-21.13-1l-5-.46,3.68-3.39a6.71,6.71,0,0,0,2.14-4.91V245.53l2.41.19c5.79.45,11.81.68,17.89.68,41,0,69.62-10.24,69.62-19.44h4.46v47C346.32,289.53,308.15,297.91,272.24,297.91Zm-16.86-5.07c5.51.41,11.16.61,16.86.61,41,0,69.62-10.24,69.62-19.44V235.59c-11.08,10-41.07,15.27-69.62,15.27-5.36,0-10.68-.18-15.84-.53V288.2A11.14,11.14,0,0,1,255.38,292.84Z" transform="translate(-153.94 -156.01)"/><path class="a" d="M272.24,345c-35.92,0-74.1-8.37-74.1-23.89V294.88h47.13a6.64,6.64,0,0,0,4.53-1.78l.73-.67,1,.09c6.72.62,13.69.93,20.73.93,41,0,69.62-10.24,69.62-19.44h4.46v47.06C346.32,336.59,308.15,345,272.24,345ZM202.6,299.33v21.74c0,9.19,28.6,19.43,69.64,19.43s69.62-10.24,69.62-19.43V282.64c-11.08,10-41.07,15.27-69.62,15.27-6.85,0-13.64-.29-20.21-.87a11.06,11.06,0,0,1-6.76,2.29Z" transform="translate(-153.94 -156.01)"/><path class="a" d="M245.27,299.33H165.06a11.14,11.14,0,0,1-11.12-11.13v-79a11.14,11.14,0,0,1,11.12-11.13h80.21a11.14,11.14,0,0,1,11.13,11.13v79A11.14,11.14,0,0,1,245.27,299.33Zm-80.21-96.77a6.68,6.68,0,0,0-6.67,6.67v79a6.69,6.69,0,0,0,6.67,6.68h80.21a6.68,6.68,0,0,0,6.67-6.68v-79a6.67,6.67,0,0,0-6.67-6.67Z" transform="translate(-153.94 -156.01)"/><path class="a" d="M209.35,221.63l18.49,54.18h-7.48l-5.79-17.05H195.36l-5.63,17.05H182.5l18.4-54.18h8.45M196.81,253.3h16.31l-5.3-15.59c-1.21-3.54-2-6.76-2.81-9.89h-.17c-.8,3.21-1.69,6.51-2.73,9.8l-5.3,15.68m15.72-36.13H197.71l-1,3-18.4,54.18-2,5.89H193l1-3.06,4.62-14h12.8l4.76,14,1,3h16.9l-2-5.89-18.49-54.18-1-3ZM203,248.84l1.94-5.72,1.94,5.72Z" transform="translate(-153.94 -156.01)"/></svg>