<svg xmlns="http://www.w3.org/2000/svg" viewBox="0 0 201.45 182.71"><defs><style>.a{fill:#fff;}</style></defs><title>custom-mspp</title><path class="a" d="M261.1,252.71H250.36V208.38a7,7,0,0,0-7-7H181.7l2.48-3.51a91.5,91.5,0,0,1,74.69-38.75h2.23Zm-6.28-4.45h1.82V163.61a87.12,87.12,0,0,0-66.21,33.32h52.93a11.47,11.47,0,0,1,11.46,11.45Z" transform="translate(-148.78 -159.13)"/><path class="a" d="M350.23,252.71H256.64V159.13h2.23a91.46,91.46,0,0,1,91.36,91.35Zm-89.14-4.45h84.66a87,87,0,0,0-84.66-84.65Z" transform="translate(-148.78 -159.13)"/><path class="a" d="M258.87,341.84a91.18,91.18,0,0,1-76.33-41.14l-2.27-3.45h63.09a7,7,0,0,0,7-7v-42h99.87v2.22A91.46,91.46,0,0,1,258.87,341.84ZM188.66,301.7a86.91,86.91,0,0,0,157.08-49H254.82v37.54a11.47,11.47,0,0,1-11.46,11.45Z" transform="translate(-148.78 -159.13)"/><path class="a" d="M243.37,301.7H160.23a11.47,11.47,0,0,1-11.45-11.45V208.39a11.47,11.47,0,0,1,11.45-11.46h83.14a11.47,11.47,0,0,1,11.45,11.46v81.86A11.47,11.47,0,0,1,243.37,301.7ZM160.23,201.39a7,7,0,0,0-7,7v81.86a7,7,0,0,0,7,7h83.14a7,7,0,0,0,7-7V208.39a7,7,0,0,0-7-7Z" transform="translate(-148.78 -159.13)"/><path class="a" d="M200,221.24c7.11,0,12.32,1.66,15.63,4.63a15,15,0,0,1,4.88,11.66c0,5.05-1.49,9-4.3,11.91-3.8,4.06-10,6.12-17,6.12a25,25,0,0,1-5.79-.49V277.4h-7.2V222.32A83.37,83.37,0,0,1,200,221.24m-.66,28.53c8.68,0,14-4.21,14-11.9,0-7.36-5.22-10.93-13.16-10.93a30.22,30.22,0,0,0-6.78.58v21.67a23.84,23.84,0,0,0,6,.58m.66-33a89.53,89.53,0,0,0-14.55,1.14l-3.72.62v63.31H197.8V260h1.33c8.52,0,15.71-2.66,20.26-7.5,3.67-3.8,5.54-8.84,5.54-15a19.44,19.44,0,0,0-6.39-15c-4.26-3.81-10.52-5.75-18.58-5.75Zm-2.16,14.67c.67,0,1.45,0,2.32,0,8.7,0,8.7,4.7,8.7,6.47s0,7.45-9.52,7.45q-.81,0-1.5,0V231.45Z" transform="translate(-148.78 -159.13)"/></svg>