<svg xmlns="http://www.w3.org/2000/svg" viewBox="0 0 179.29 236.79"><defs><style>.a{fill:#fff;}</style></defs><title>custom-toonboomharmony</title><path class="a" d="M313.44,359.64a25.35,25.35,0,0,1-23.6-15.87c-1.5-3.67-1.5-7.26-1.51-10.73v-.54c0-4.34,0-8.68,0-13,0-16-.09-32.61.11-48.93,0-3.14-.23-4.1-.41-4.4-.22-.05-1.14-.13-3.74.85-10.73,4.05-21.88,3.77-32.66,3.49-3.16-.08-6.44-.16-9.62-.13-8.16.09-14.6,2-20.27,5.91-7.57,5.27-11,13.05-11,25.23q0,6.76,0,13.52c0,9,0,18.35-.06,27.54,0,.49,0,1,.05,1.55.11,2.45.26,5.5-1.84,7.59a7,7,0,0,1-5.53,1.75c-7.18-.38-7.11-7.12-7.08-10.35,0-.34,0-.67,0-1q0-6.23,0-12.46,0-6.83,0-13.65v-.88c0-.94,0-2.7-.31-3a2.43,2.43,0,0,0-1.44-.19c-1.63.07-2.07.09-2.06,4.36q0,4.83,0,9.65v5.29c0,2.69,0,9-6.83,9.15a7,7,0,0,1-5.3-1.77c-2.1-2.05-2.11-5.14-2.11-7.62V328.9c0-2.26,0-4.6-.07-6.88s-1-2.27-1.85-2.28c-1.07,0-1.81.15-1.83,2.17-.06,5.09-.06,10.27-.07,15.28v3.35c0,2.86-.29,5.79-2.31,7.8a6.78,6.78,0,0,1-5.07,1.88,6.68,6.68,0,0,1-5-1.9c-2.07-2.15-2-5.29-1.87-7.81v-.22c.24-6.74.08-13.65-.09-20.34-.3-12.47-.61-25.37,1.66-38.07,5.93-33.09,36.08-59,70.15-60.29,3.8-.14,7.64-.06,11.35,0,7,.15,13.62.29,20.26-.93,15.65-2.87,24.76-13.64,25-29.54.08-5.84.06-11.8,0-17.56,0-5.49,0-11.16,0-16.75C288.74,142,298.93,132,313.92,132h0c15.41,0,25,9.49,25.1,24.78.1,21.39.08,43.14.06,64.17q0,12.32,0,24.63h0q0,13.27,0,26.55c0,20.64,0,42-.07,63-.08,12.78-7.9,21.81-20.93,24.13A26.47,26.47,0,0,1,313.44,359.64ZM287.7,260.83a5.7,5.7,0,0,1,3.35,1c2.53,1.77,2.7,5.18,2.65,8.81-.19,16.28-.15,32.84-.1,48.86l0,13V333c0,3.09,0,6,1.11,8.72A20.18,20.18,0,0,0,317.17,354c10.47-1.87,16.5-8.78,16.56-18.95.12-21,.1-42.32.08-63q0-13.28,0-26.56,0-12.31,0-24.63c0-21,.05-42.76-.06-64.14-.06-12.21-7.46-19.5-19.8-19.5h0c-12.05,0-19.93,7.71-20.08,19.62-.07,5.55-.05,11.2,0,16.67,0,5.78,0,11.76,0,17.66-.27,18.39-11.23,31.35-29.34,34.67-7.16,1.32-14.36,1.17-21.33,1-3.63-.08-7.39-.16-11,0-31.63,1.19-59.63,25.23-65.12,55.92-2.18,12.18-1.88,24.81-1.58,37,.16,6.76.33,13.75.09,20.65v.22c0,1.28-.13,3.42.39,3.95a1.94,1.94,0,0,0,1.2.28,1.9,1.9,0,0,0,1.32-.35c.74-.73.74-3.23.74-4.05v-3.34c0-5,0-10.22.06-15.34.05-4.59,2.81-7.44,7.16-7.41s7,2.87,7.12,7.42c.07,2.36.07,4.74.06,7v2c0,1.39,0,3.39.52,3.89a2.38,2.38,0,0,0,1.46.27c1.29,0,1.68,0,1.68-3.85v-5.3c0-3.2,0-6.41,0-9.61s0-9.35,7.09-9.68a7,7,0,0,1,5.38,1.67c2,1.91,2,4.67,1.93,6.9v.8c0,4.56,0,9.12,0,13.67q0,6.23,0,12.44v1.06c-.05,4.68.46,4.93,2.07,5a2.49,2.49,0,0,0,1.51-.21c.43-.43.33-2.48.27-3.58,0-.65-.05-1.28-.05-1.86.08-9.16.07-18.48.06-27.49,0-4.51,0-9,0-13.52,0-8.75,1.39-21.34,13.23-29.58,6.5-4.52,14.1-6.76,23.25-6.85,3.27,0,6.6.05,9.81.13,10.74.27,20.89.53,30.65-3.16A15.79,15.79,0,0,1,287.7,260.83Z" transform="translate(-159.83 -131.97)"/><path class="a" d="M186.11,225.82c-14.92,0-25.19-8.53-25.76-21.62-.68-15.93-.69-32.83,0-51.67.42-11.67,12.23-20.87,26.35-20.55,13,.31,23.28,9.48,23.83,21.33.28,5.92.21,11.92.15,17.72,0,1.79,0,3.58,0,5.38l.07,2.39c0,2.45,0,4.91,0,7.36,0,5.43.08,11.05-.08,16.59-.38,13.22-9.57,22.48-22.85,23Zm-.18-88.55c-11,0-20,6.83-20.3,15.45-.67,18.7-.67,35.46,0,51.25.47,10.74,8.87,17.07,21.92,16.52,10.5-.43,17.47-7.46,17.78-17.9.15-5.44.11-11,.08-16.39,0-1.58,0-3.17,0-4.75h-.09V178.8c0-2.61,0-5.22.06-7.83.07-5.73.13-11.65-.14-17.41-.42-9-8.45-16-18.67-16.28Z" transform="translate(-159.83 -131.97)"/><path class="a" d="M203.61,368.76l-.82,0h-.11c-3.78-.38-6.25-3.67-5.85-7.81a6.78,6.78,0,0,1,7.22-6.36,7.38,7.38,0,0,1,5.35,2.19,7.57,7.57,0,0,1-.34,10.19A7.89,7.89,0,0,1,203.61,368.76Zm-.44-5.31a3.45,3.45,0,0,0,2.33-.45,1.7,1.7,0,0,0,.41-1.24,2.07,2.07,0,0,0-.37-1.4,2.34,2.34,0,0,0-1.62-.51c-1.17,0-1.71.44-1.82,1.56C202,362.12,202.09,363.31,203.17,363.45Z" transform="translate(-159.83 -131.97)"/><path class="a" d="M185.53,355.4a7.11,7.11,0,0,1-5.3-2,7,7,0,0,1-1.82-5.34,6.64,6.64,0,0,1,6.89-6.71c4.27-.05,7,2.67,7.23,7v.15l0,.16c-.31,4.16-2.89,6.66-6.91,6.69Zm-.15-8.76h0c-1,0-1.58.28-1.64,1.63a2.08,2.08,0,0,0,.33,1.44,2.37,2.37,0,0,0,1.54.4c1,0,1.52-.18,1.66-1.64C187.13,346.93,186.54,346.64,185.38,346.64Z" transform="translate(-159.83 -131.97)"/></svg>