<svg xmlns="http://www.w3.org/2000/svg" viewBox="0 0 240.89 193.39"><defs><style>.a{fill:#fff;}</style></defs><title>custom-blender</title><path class="a" d="M285.87,296.87c-21.87,0-35-15.89-35-31.25,0-17.21,16-31.75,34.87-31.75s34.87,14.54,34.87,31.75C320.66,282.56,304.73,296.87,285.87,296.87Zm-.08-57.71c-16,0-29.57,12.12-29.57,26.46,0,12.76,11.09,25.95,29.65,25.95,16,0,29.49-11.88,29.49-25.95S301.54,239.16,285.79,239.16Z" transform="translate(-129.19 -155.83)"/><path class="a" d="M286.48,349.22c-23.49,0-45.07-8.24-60.79-23.21-14.13-13.46-22.49-31.54-23.18-49.93l-47,38.17-.26.13a20.34,20.34,0,0,1-19,0c-3.58-1.85-7.69-6.12-7-16,.46-6.3,9.43-13.15,11.22-14.46L219,225.33c-20.52.12-42.27.08-45.21-.59S162,222,163.74,209.93c1.61-11.31,19-13,19.69-13h85.39c-8.29-6.61-22.16-17.66-24.59-19.57-3.25-2.54-5-5.56-5-8.7,0-3.41,2-6.69,5.93-9.76,9.9-7.74,22.91,1.72,23.46,2.13l70.52,53.62c19.35,14.85,30.9,36.91,30.9,59C370.07,314.59,331.79,349.22,286.48,349.22Zm-78.27-84.59-.37,6c-.05.87-.08,1.84-.08,3,0,34.57,29.45,70.32,78.72,70.32,42.44,0,78.3-32.2,78.3-70.32,0-20.17-10.5-40.38-28.13-54.23L334.9,218l-69.43-52.8c-.07,0-10.29-7.44-17-2.19-1.77,1.39-3.89,3.48-3.89,5.59,0,1.84,1.6,3.48,2.94,4.53,3.29,2.59,27.42,21.84,30.54,24.32l5.9,4.72H183.8c-1.22.14-13.86,1.74-14.82,8.48-1,7.28,2.83,8.17,5.94,8.88,2.3.49,22.73.65,52.14.42l8.08-.07-91.5,68.26c-3.66,2.68-8.88,7.72-9.09,10.58-.41,5.63,1,9.29,4.1,10.91a15,15,0,0,0,14,.11Zm77.71,50.95c-14.85,0-28.52-5.16-38.47-14.52-9.39-8.83-14.77-20.83-14.77-32.93,0-26.14,24.32-48.23,53.11-48.23S338.9,242,338.9,268.13C338.9,293.85,314.64,315.58,285.92,315.58Zm-.13-90.38c-25.91,0-47.81,19.66-47.81,42.93,0,20.72,17.93,42.15,47.94,42.15,25.85,0,47.68-19.3,47.68-42.15S311.26,225.2,285.79,225.2Z" transform="translate(-129.19 -155.83)"/></svg>