<svg xmlns="http://www.w3.org/2000/svg" viewBox="0 0 142.5 136.02"><defs><style>.a{fill:#fff;}</style></defs><title>custom-cordova</title><path class="a" d="M308.34,318.49H285.27l1.61-19.43H275.55l-1.62,19.43H226.16l-1.62-19.43H213.21l1.62,19.43H191.75l-12.95-84.2,32.38-51.82h77.73l32.39,51.82ZM282.43,208.38H261.61l1.39,9.71H237.09l1.39-9.71H217.66l-13,25.91,6.48,51.82h77.73l6.48-51.82ZM271.1,268.91c-1.79,0-3.24-5.39-3.24-12.05s1.45-12.05,3.24-12.05,3.24,5.4,3.24,12.05S272.88,268.91,271.1,268.91Zm-40.89,1c-1.79,0-3.24-5.39-3.24-12s1.45-12.05,3.24-12.05,3.24,5.39,3.24,12.05S232,269.91,230.21,269.91Z" transform="translate(-178.8 -182.47)"/></svg>