<svg xmlns="http://www.w3.org/2000/svg" viewBox="0 0 202.26 199.2"><defs><style>.a{fill:#fff;}</style></defs><title>custom-audition</title><path class="a" d="M313.78,350.21H185.38a37,37,0,0,1-36.93-36.93V187.94A37,37,0,0,1,185.38,151h128.4a37,37,0,0,1,36.93,36.93V313.28A37,37,0,0,1,313.78,350.21ZM185.38,155.47a32.51,32.51,0,0,0-32.48,32.47V313.28a32.51,32.51,0,0,0,32.48,32.47h128.4a32.51,32.51,0,0,0,32.47-32.47V187.94a32.51,32.51,0,0,0-32.47-32.47Z" transform="translate(-148.45 -151.01)"/><path class="a" d="M188.32,294.11l-.77,0a97.79,97.79,0,0,0-11.13,0c-1.44.06-3.23-.07-4.28-1.5s-.66-3.15-.14-4.65c6.85-19.69,13.74-39.72,20.41-59.1l5.24-15.22a24.3,24.3,0,0,0,1.66-6.64c.16-3.3,2-5,5.52-4.85,6.06.15,11.55.14,16.79,0,3.11-.1,5,1.28,6.1,4.3,6.88,19.81,13.92,39.93,20.73,59.38l4.76,13.6c1,2.95,2.08,6,3.19,8.95.25.64,1,2.59-.15,4.19s-3.17,1.53-3.84,1.52c-1.7,0-3.44,0-5.12,0h-2.18v-4.46h2.15c1.59,0,3.22,0,4.85,0-1.08-2.9-2.11-5.86-3.11-8.72l-4.76-13.6c-6.81-19.46-13.85-39.58-20.73-59.39-.43-1.26-.65-1.33-1.77-1.31-5.32.15-10.88.15-17,0a5.45,5.45,0,0,0-.9,0,2.57,2.57,0,0,0-.07.56,27.94,27.94,0,0,1-1.9,7.9l-.3.86-4.94,14.34c-6.66,19.38-13.56,39.42-20.41,59.11,0,.09-.05.17-.08.24h.13a103.07,103.07,0,0,1,11.64,0c1.37.1,1.77-.07,2.32-1.9.63-2.11,1.3-4.23,1.95-6.28.91-2.86,1.85-5.81,2.66-8.73,1-3.76,3.65-4.21,5.8-4.18,8,.11,16.11.11,24.93,0,2.19,0,4.84.42,5.87,4.14.63,2.28,1.46,4.49,2.35,6.83.33.89.67,1.79,1,2.68,1.35,3.72,2.16,6,3.15,6.66s3.31.71,7.19.69V294h0c-10.17,0-11-.59-14.5-10.29-.31-.88-.64-1.75-1-2.63-.88-2.33-1.79-4.73-2.48-7.21-.24-.89-.25-.89-1.52-.88-8.85.1-17,.1-25,0-1.19,0-1.19,0-1.44.91-.83,3-1.79,6-2.71,8.89-.65,2-1.32,4.13-1.93,6.2C193.83,291.24,192.47,294.11,188.32,294.11ZM221,256.66h-.38c-4.08-.13-8.13-.11-12.42-.08l-5.41,0h-3l11.09-37.38,1.94.33a4,4,0,0,1,3.24,3.29l.09.31,1.62,5.19c2.3,7.34,4.67,14.94,7.06,22.39.36,1.11,1,3-.18,4.49A4.35,4.35,0,0,1,221,256.66Zm-7.65-4.56c2.44,0,4.85,0,7.28.1l0-.11c-2.4-7.47-4.77-15.07-7.07-22.42l-.56-1.8-7.19,24.27,2.39,0Z" transform="translate(-148.45 -151.01)"/><path class="a" d="M283.2,295.65c-14.71,0-24.1-8.88-24.55-23.24-.3-9.84-.26-19.82-.23-29.48,0-5,0-10.26,0-15.38a4.24,4.24,0,0,1,4.85-4.77c4.05.11,8,.19,11.93,0a5.36,5.36,0,0,1,4.17,1.21,5.7,5.7,0,0,1,1.4,4.42c0,4.55,0,9.17,0,13.65.05,7.22.1,14.68-.15,22-.15,4.71,1,7.93,3.41,9.57,3.21,2.19,8.25,1.28,11.88-.3,1.58-.68,2-1.36,2-3.28-.06-6.58-.06-13.27,0-19.74,0-7,0-14.26-.08-21.39,0-1.57.15-3.54,1.56-4.87a6.2,6.2,0,0,1,4.77-1.26,74.32,74.32,0,0,0,10.34,0,5.67,5.67,0,0,1,4.41,1.2,5.92,5.92,0,0,1,1.45,4.56c-.13,11.37-.09,22.94-.06,34.13v2.2c0,8.2.07,16.21.28,24.18a5,5,0,0,1-1.22,3.89,4.85,4.85,0,0,1-3.75,1.14c-3-.12-5.92-.12-8.62,0-1.94.09-4.6.22-6.35-1.62a4.75,4.75,0,0,1-.93-1.4,31.12,31.12,0,0,1-16.1,4.57Zm-20.31-68.41a2.27,2.27,0,0,0,0,.28c0,5.14,0,10.37,0,15.42,0,9.63-.07,19.57.23,29.33.37,12,7.68,18.93,20.07,18.93h.33a26.89,26.89,0,0,0,16.56-5.76l4-3-.48,5c-.15,1.59.18,2,.2,2,.34.36,2.14.28,2.91.24,2.83-.13,5.86-.13,9,0h.33c0-.12,0-.28,0-.47-.22-8-.26-16.06-.29-24.29v-2.2c0-11.2-.08-22.79,0-34.19a5.46,5.46,0,0,0-.08-1.24,4.12,4.12,0,0,0-1,0,80,80,0,0,1-10.95,0,3.13,3.13,0,0,0-1.43.08,6.2,6.2,0,0,0-.13,1.55c.08,7.15.08,14.42.07,21.45,0,6.45,0,13.13.06,19.69,0,3.72-1.4,6-4.64,7.41-6.12,2.66-12.17,2.62-16.17-.1-2.59-1.76-5.61-5.51-5.35-13.41.24-7.26.19-14.68.15-21.85,0-4.49-.06-9.14,0-13.72a6.7,6.7,0,0,0-.07-1.12,4.41,4.41,0,0,0-.81,0c-4.09.22-8.15.13-12.29,0A1.2,1.2,0,0,0,262.89,227.24Z" transform="translate(-148.45 -151.01)"/></svg>