<svg xmlns="http://www.w3.org/2000/svg" viewBox="0 0 240.43 236.79"><defs><style>.a{fill:#fff;}</style></defs><title>custom-aftereffects</title><path class="a" d="M326,368.76H173.38a44,44,0,0,1-43.9-43.9v-149a44,44,0,0,1,43.9-43.9H326a44,44,0,0,1,43.9,43.9v149A44,44,0,0,1,326,368.76ZM173.38,137.27a38.65,38.65,0,0,0-38.6,38.6v149a38.64,38.64,0,0,0,38.6,38.6H326a38.64,38.64,0,0,0,38.6-38.6v-149a38.64,38.64,0,0,0-38.6-38.6Z" transform="translate(-129.48 -131.97)"/><path class="a" d="M178.26,301.63c-.32,0-.65,0-1,0a101.09,101.09,0,0,0-12.27,0c-1.85.09-4.16,0-5.49-1.83s-.8-4.05-.18-5.81c4.72-13.36,9.42-27,14-40.16L177,243q6.83-19.74,13.61-39.49a14.14,14.14,0,0,0,.48-1.82c1.67-8.34,2.71-9.2,11.18-9.2h8.49v.15l1.24-.12c3.57-.35,7.25-.71,10.24,1,3.46,2,4.43,6.15,5.28,9.78a37.11,37.11,0,0,0,1,3.68c6.72,18.8,13.51,37.94,20.07,56.44q5.08,14.33,10.16,28.63c1.2,3.38,1.93,5.43.63,7.27s-3.52,1.85-7.17,1.85c-1.35,0-2.7,0-4,0-3-.05-5.93-.1-8.81.12-5.81.44-7.62-3.25-8.48-6.06s-1.79-5.54-2.7-8.23c-1-2.89-2-5.87-2.89-8.86-.38-1.27-.53-1.38-1.9-1.35-9.74.13-19.91.13-30.22,0-1.3,0-1.41,0-1.79,1.39-.8,2.86-1.72,5.7-2.62,8.46s-1.88,5.79-2.67,8.69C184.94,299.57,182.37,301.63,178.26,301.63Zm-6.77-5.53c2,0,4.07,0,6.17.21s2.74-.23,3.32-2.34c.82-3,1.8-6,2.74-8.93.88-2.7,1.79-5.49,2.56-8.25,1-3.63,3.23-5.3,6.95-5.26,10.27.13,20.39.13,30.09,0,3.72,0,6,1.58,7,5.12.88,2.9,1.87,5.84,2.84,8.69s1.88,5.55,2.74,8.38c.68,2.2,1.22,2.46,3,2.33,3.13-.24,6.26-.19,9.3-.14,1.31,0,2.63,0,3.94.05.71,0,1.56,0,2.26,0-.2-.62-.47-1.37-.7-2q-5.08-14.31-10.16-28.63c-6.56-18.5-13.35-37.63-20.07-56.43a38.65,38.65,0,0,1-1.16-4.25c-.64-2.72-1.3-5.54-2.8-6.42s-4.32-.6-7-.33a43,43,0,0,1-4.4.29h-2.64v-.29h-3.21c-2.13,0-4.33,0-4.77.28s-.79,2.55-1.21,4.64a18.83,18.83,0,0,1-.67,2.52Q188.83,225,182,244.77L178.3,255.5c-4.55,13.18-9.25,26.82-14,40.2-.09.23-.15.43-.2.59.17,0,.38,0,.62,0C166.71,296.19,169,296.1,171.49,296.1Zm46.85-38.94h-.19c-6.65-.06-13.4,0-19.75,0-.78,0-2.87,0-4.1-1.64a4.49,4.49,0,0,1-.43-4.15c2.88-9.36,5.74-18.73,8.68-28.38l5.51-18,5.54,18c3,9.8,5.85,19.06,8.8,28.42a4.71,4.71,0,0,1-.32,4.25A4.45,4.45,0,0,1,218.34,257.16Zm-9.82-5.33c2.81,0,5.65,0,8.48,0-2.83-9-5.57-17.92-8.46-27.34l-.46-1.5-.46,1.51c-2.84,9.29-5.59,18.32-8.36,27.33Z" transform="translate(-129.48 -131.97)"/><path class="a" d="M302.53,303.9a51.36,51.36,0,0,1-20.95-4.33c-12.15-5.36-19.27-15.78-21.76-31.86-2.94-19,5.58-38.28,20.72-47,11.79-6.76,25.62-7,37-.55s18.16,18.18,18.45,31.61V252c0,.6,0,1.2,0,1.8-.07,1.79-.08,3.28-.09,4.6-.07,9.14-1.72,9.8-12,9.81H321c-11.91.08-23.54-.08-33.34-.24h-.14c0,.09,0,.19.08.3,3.25,11.85,17.59,11.73,21.92,11.41a55,55,0,0,0,16.32-3.31l3.61-1.4v3.87c0,1.63,0,3.21,0,4.75,0,3.67,0,7.13,0,10.58,0,3-1.54,5-4.71,6A73.92,73.92,0,0,1,302.53,303.9Zm-2.8-83.07a33.25,33.25,0,0,0-16.56,4.52c-13.07,7.49-20.69,25-18.12,41.55,2.22,14.35,8.16,23.19,18.67,27.82,11.41,5,24.3,5.15,39.42.39,1-.32,1-.42,1-.9-.06-3.49-.05-7,0-10.68,0-.34,0-.68,0-1a65,65,0,0,1-14.24,2.41c-14.26,1.06-24.51-4.66-27.42-15.29-.5-1.84-.8-3.75.4-5.3s3.12-1.73,4.85-1.7c9.78.16,21.37.32,33.22.25h3c2.92,0,5.7,0,6.47-.33a22.72,22.72,0,0,0,.24-4.22c0-1.29,0-2.89.09-4.76,0-.49,0-1,0-1.48v-.16c-.25-11.53-6.14-21.67-15.76-27.1A30.73,30.73,0,0,0,299.73,220.83Zm-13.05,32.59A5,5,0,0,1,282.9,252a4.66,4.66,0,0,1-1-3.77c.76-7.49,8-14.33,15.82-14.94a16.31,16.31,0,0,1,17.21,11.5c.29,1,1.19,4.07-.55,6.37-1.13,1.48-3,2.22-5.59,2.18s-5,0-7.43,0l-3.29,0h-3.22c-2.65,0-5.31,0-8,0Zm12.4-14.84c-.32,0-.64,0-1,0-5,.39-10,4.82-10.86,9.5h8.15v-.05h5.92c2.51,0,5,0,7.52,0a4,4,0,0,0,1.26-.13,5.22,5.22,0,0,0-.28-1.63A11,11,0,0,0,299.08,238.58Z" transform="translate(-129.48 -131.97)"/></svg>