<svg xmlns="http://www.w3.org/2000/svg" viewBox="0 0 201.61 219.31"><defs><style>.a{fill:#fff;}</style></defs><title>custom-sketchup</title><path class="a" d="M249.77,146.17c16.22,0,26.59,5.84,26.7,5.9l68.74,39.62V273.2a66.1,66.1,0,0,1-8.2,24.48c-8.07,13.92-18.71,20-18.8,20.07l0,0h0l-58.28,33.28V240.28l-2.65-1.53-92.59-53.22,58.1-33.25.07,0,.09-.06c.1-.06,10.05-6,26.89-6m-35.23,51.36,2.65-1.53,16.07-9.23h0l.12-.07c.06,0,5.95-3.45,16.57-3.45s16.53,3.68,16.55,3.69l.13.09.13.07,43.09,24.8.06,49.07A39.45,39.45,0,0,1,293.7,290.9l-16.53,9.45-2.66,1.52v23.81l7.93-4.55L304,308.78l.2-.12.2-.14c21.5-15,26.53-37.57,26.11-48.63l.06-56.78v-3.06l-2.65-1.53-51.64-29.84-.14-.08-.14-.07a63.79,63.79,0,0,0-26.14-5.78c-15.75,0-25.41,5.26-25.81,5.48l0,0,0,0L201.78,181l-8,4.57,8,4.61L211.9,196l2.64,1.53m60,34.52,0,40.94v14.87l9.41-11.51c.46-.57,11.35-14.06,11.35-27.79,0-15,0-25,0-25V220.5L292.57,219l-19.84-11.42c-8.15-4.71-17-5.69-23-5.69a46.53,46.53,0,0,0-7.81.59l-14.14,2.61,12.46,7.19,34.3,19.8m-24.74-91.18c-18.79,0-29.68,6.82-29.68,6.82L154,185.52l100.6,57.82V360.18l66.2-37.8s11.83-6.53,20.82-22.05a70,70,0,0,0,8.91-26.89V188.63l-71.38-41.15s-11.31-6.61-29.35-6.61Zm-35.22,50.54-10.14-5.87,22.2-12.68s8.68-4.81,23.24-4.81a58.49,58.49,0,0,1,23.77,5.22l51.64,29.83L325.2,260c.37,8.75-3.71,30.12-23.85,44.19L279.8,316.54V305l16.78-9.6c16-11.51,18.6-28.48,18.6-34.37l-.06-52.13-45.74-26.33S262.43,178,249.93,178s-19.31,4.22-19.31,4.22l-16.07,9.23ZM279.78,273l0-44-37-21.33a41.3,41.3,0,0,1,6.85-.51c5.44,0,13.28.89,20.39,5l19.83,11.43s0,10,0,25c0,12-10.16,24.43-10.16,24.43Z" transform="translate(-148.89 -140.87)"/><path class="a" d="M154.23,203.43l84.94,48.78V351l-56.73-32.66-.12-.07-.12-.06c-.08,0-8.43-4.38-15.9-14.63a70.41,70.41,0,0,1-8.67-16.52l59.08,34,8,4.58,0-9.19,0-11.61V301.8L222,300.28l-57.3-33L179.22,259l37.49,21.49L224.6,285l0-9.09.07-12v-3.09L222,259.23,154.2,220.3l0-16.87M149,194.29l-.06,29.07,70.52,40.46-.06,12.06-40.12-23L154,267.23l65.32,37.64,0,11.61-70-40.26c.18,4.72,4.45,19.25,12.64,30.5S179.8,323,179.8,323l64.67,37.23v-111L149,194.29Z" transform="translate(-148.89 -140.87)"/></svg>