<svg xmlns="http://www.w3.org/2000/svg" viewBox="0 0 134.53 145.83"><defs><style>.a{fill:#fff;}</style></defs><title>custom-electron</title><path class="a" d="M229.63,208.91c-19-3.47-34.12.16-40.13,10.56-4.48,7.77-3.2,18.06,3.11,29.06a2,2,0,0,0,3.43-1.87.3.3,0,0,0,0-.08c-5.68-9.91-6.78-18.79-3.11-25.15,5-8.64,18.43-11.88,36-8.67a2,2,0,0,0,.7-3.85Zm-27.11,53a122.66,122.66,0,0,0,29.13,23c27.65,16,57.08,20.22,71.58,10.33a1.95,1.95,0,1,0-2.14-3.26l-.06,0c-13,8.85-40.94,4.79-67.42-10.5a118.32,118.32,0,0,1-28.2-22.24,2,2,0,0,0-2.76-.15,2,2,0,0,0-.14,2.77Z" transform="translate(-182.17 -177.57)"/><path class="a" d="M298.6,259.52c12.48-14.74,16.84-29.57,10.85-39.95-4.41-7.63-13.74-11.67-26.12-11.83a2,2,0,0,0-.06,3.91c11.15.14,19.18,3.62,22.79,9.88,5,8.62,1.09,21.84-10.44,35.46a2,2,0,0,0,3,2.56Zm-32.06-50a122,122,0,0,0-34.83,13.8c-28.53,16.48-47.15,40.77-44.56,58.39a2,2,0,1,0,3.87-.52v-.05c-2.29-15.64,15.35-38.67,42.66-54.43a118.06,118.06,0,0,1,33.68-13.37,2,2,0,1,0-.75-3.83Z" transform="translate(-182.17 -177.57)"/><path class="a" d="M220.3,294c6.53,18.22,17.2,29.44,29.2,29.44,8.76,0,16.86-6,23.17-16.48a2,2,0,0,0-3.32-2.06l0,.05c-5.67,9.44-12.65,14.58-19.82,14.58-10,0-19.49-10-25.52-26.85a2,2,0,1,0-3.7,1.25l0,.07Zm59.6-3.56a122.69,122.69,0,0,0,5.19-36.22c0-32.37-11.33-60.28-27.47-67.45A2,2,0,0,0,256,190.3c14.4,6.4,25.15,32.88,25.15,63.88a119,119,0,0,1-5,35.05,2,2,0,1,0,3.71,1.22l0-.05Zm36.8-1.92a9.35,9.35,0,1,0-9.35,9.36A9.35,9.35,0,0,0,316.7,288.48Zm-3.91,0a5.45,5.45,0,1,1-5.44-5.44A5.44,5.44,0,0,1,312.79,288.48Zm-121.26,9.36a9.36,9.36,0,1,0-9.36-9.36A9.36,9.36,0,0,0,191.53,297.84Zm0-3.91a5.45,5.45,0,1,1,5.44-5.45A5.45,5.45,0,0,1,191.53,293.93Z" transform="translate(-182.17 -177.57)"/><path class="a" d="M249.5,196.27a9.35,9.35,0,1,0-9.35-9.35A9.36,9.36,0,0,0,249.5,196.27Zm0-3.91a5.45,5.45,0,1,1,5.45-5.44A5.44,5.44,0,0,1,249.5,192.36Zm1.43,68.43a6.76,6.76,0,1,1,5.19-8A6.76,6.76,0,0,1,250.93,260.79Z" transform="translate(-182.17 -177.57)"/></svg>