<svg xmlns="http://www.w3.org/2000/svg" viewBox="0 0 240.43 236.79"><defs><style>.a{fill:#fff;}</style></defs><title>custom-illustrator</title><path class="a" d="M326,368.76H173.31a43.94,43.94,0,0,1-43.89-43.9v-149A43.94,43.94,0,0,1,173.31,132H326a43.94,43.94,0,0,1,43.89,43.9v149A43.94,43.94,0,0,1,326,368.76ZM173.31,137.27a38.65,38.65,0,0,0-38.6,38.6v149a38.64,38.64,0,0,0,38.6,38.6H326a38.64,38.64,0,0,0,38.6-38.6v-149a38.65,38.65,0,0,0-38.6-38.6Z" transform="translate(-129.42 -131.97)"/><path class="a" d="M200.27,303.9h-.59c-4-.19-8.23-.2-13.75,0-2,.06-4.2-.11-5.5-1.88s-.78-4-.17-5.79c6-17.19,12.09-34.69,18-51.61q6.94-20,13.92-40.05a20.08,20.08,0,0,0,1.41-7.35,5.61,5.61,0,0,1,1.43-4.42,5.93,5.93,0,0,1,4.49-1.44c2.68.1,5.45.08,8.12.06l3.49,0h2.64v0l1.23-.11c3.51-.33,7.14-.67,10.2.94,3.55,1.87,4.47,5.92,5.28,9.49a30.8,30.8,0,0,0,.94,3.53q8.64,24.19,17.24,48.41,7.65,21.51,15.31,43c.37,1,1.22,3.4-.16,5.32s-3.89,1.87-4.72,1.85c-4.79-.07-11.1-.14-17.47,0-4.9.08-6.18-3.67-6.66-5.09-.88-2.62-1.79-5.22-2.7-7.82-1.3-3.7-2.64-7.53-3.87-11.34-.36-1.13-.41-1.16-1.6-1.14-10.57.12-21.2.12-31.59,0-1.24,0-1.26,0-1.57,1.07-.87,3-1.84,5.92-2.77,8.78-1,3.16-2.09,6.41-3,9.63C206.63,302,204.17,303.9,200.27,303.9Zm-7.11-5.46c2.42,0,4.63.05,6.77.16,1.7.08,2.2-.16,2.77-2.12,1-3.29,2-6.59,3.07-9.79.92-2.83,1.88-5.76,2.74-8.65,1-3.35,3.11-4.89,6.7-4.85,10.35.12,20.94.12,31.47,0,3.45-.06,5.63,1.49,6.7,4.82,1.21,3.74,2.54,7.53,3.82,11.2.93,2.63,1.85,5.25,2.73,7.89.51,1.5.69,1.51,1.52,1.48,6.38-.15,12.7-.09,17.52,0l0-.09q-7.68-21.5-15.32-43-8.61-24.21-17.24-48.41a34.45,34.45,0,0,1-1.11-4.13c-.59-2.58-1.19-5.25-2.58-6-1.67-.88-4.51-.61-7.24-.36-1.44.14-2.92.28-4.37.28h-2.65v-.18h-.8c-2.73,0-5.56,0-8.36-.06h-.43c0,.1,0,.21,0,.36a25.09,25.09,0,0,1-1.71,9.31q-7,20-13.91,40c-5.88,16.92-11.95,34.42-18,51.62-.09.25-.15.46-.2.63h.7C188.49,298.49,190.91,298.44,193.16,298.44ZM241,257.77h-.18c-6.54-.06-13,0-20.21,0-.85,0-2.88,0-4.05-1.58a4.64,4.64,0,0,1-.37-4.18q3.9-12.33,7.7-24.69,2-6.48,4-13a3.71,3.71,0,0,1,1.16-1.66l3.1-3.31,1.4,4.29,3,9.42c2.9,9.24,5.89,18.79,8.88,28.17.29.91,1,3.05-.32,4.8A4.94,4.94,0,0,1,241,257.77Zm-9.18-5.33c2.84,0,5.63,0,8.43,0-2.95-9.26-5.91-18.68-8.77-27.8l-.61-2-1.92,6.18c-2.44,7.86-4.87,15.73-7.35,23.58Z" transform="translate(-129.42 -131.97)"/><path class="a" d="M311.8,303.91l-.72,0c-5.06-.25-10.24-.15-14.64,0a5.57,5.57,0,0,1-6.38-6.33c.07-25.07.07-50.06,0-74.28a5.31,5.31,0,0,1,6.09-6c4.66.12,10.15.21,15.58,0a6.16,6.16,0,0,1,4.79,1.46c1.47,1.41,1.65,3.43,1.63,5.21-.08,9-.07,18.21,0,27.09v9.8h0c0,3.3,0,6.59,0,9.89,0,8.56,0,17.4.08,26.09,0,1.78-.15,4-1.76,5.57A6.42,6.42,0,0,1,311.8,303.91Zm-7.54-5.47c2.32,0,4.71,0,7.08.16a4.08,4.08,0,0,0,1.38-.09,5.15,5.15,0,0,0,.15-1.66c-.12-8.73-.1-17.6-.08-26.18,0-3.29,0-6.59,0-9.88h0c0-3.26,0-6.53,0-9.79,0-8.9,0-18.1.06-27.15a7.37,7.37,0,0,0-.08-1.3,4.71,4.71,0,0,0-.83,0c-5.59.23-11.19.14-15.93,0a5.73,5.73,0,0,0-.63,0,4.12,4.12,0,0,0,0,.69c.07,24.23.07,49.23,0,74.3a4.33,4.33,0,0,0,.08,1,3.87,3.87,0,0,0,.84.05C298.75,298.5,301.46,298.44,304.26,298.44Z" transform="translate(-129.42 -131.97)"/><path class="a" d="M304.06,213.89H304a14.77,14.77,0,0,1-10.77-4.17,15.6,15.6,0,0,1-4.2-11.41c.06-9,6.32-15.06,15.55-15,9,.06,14.94,5.94,15.05,15a15.46,15.46,0,0,1-4.26,11.2A15.74,15.74,0,0,1,304.06,213.89Zm.4-25.31c-6.3,0-10.08,3.64-10.13,9.76A10.51,10.51,0,0,0,297,206a9.63,9.63,0,0,0,7,2.6h0a10.32,10.32,0,0,0,7.55-2.86,10,10,0,0,0,2.73-7.41c-.07-6.07-3.73-9.71-9.78-9.75h-.1Z" transform="translate(-129.42 -131.97)"/></svg>