<svg xmlns="http://www.w3.org/2000/svg" viewBox="0 0 180.98 182.96"><defs><style>.a{fill:#fff;}</style></defs><title>custom-py</title><path class="a" d="M227.46,245.88h43.6a22,22,0,0,0,21.82-22.18V182.13c0-11.83-10-20.71-21.82-22.69a136.47,136.47,0,0,0-22.74-1.78,125.19,125.19,0,0,0-20.86,1.78c-18.47,3.26-21.83,10.1-21.83,22.69v16.64h43.65v5.54h-60c-12.68,0-23.79,7.63-27.27,22.14-4,16.63-4.18,27,0,44.36,3.1,12.93,10.52,22.14,23.2,22.14h15V273c0-14.41,12.47-27.11,27.27-27.11Zm-2.76-58.2a8.32,8.32,0,1,1,8.2-8.29A8.24,8.24,0,0,1,224.7,187.68Zm111.82,38.76c-3.13-12.63-9.12-22.13-21.82-22.13H298.32v19.38c0,15-12.74,27.68-27.27,27.68h-43.6c-11.95,0-21.83,10.22-21.83,22.18v41.56c0,11.83,10.29,18.79,21.83,22.18,13.82,4.07,27.07,4.8,43.6,0,11-3.18,21.83-9.58,21.83-22.18V298.47h-43.6v-5.54H314.7c12.69,0,17.41-8.85,21.83-22.13,4.56-13.68,4.36-26.82,0-44.37ZM273.8,309.57a8.32,8.32,0,1,1-8.19,8.29A8.24,8.24,0,0,1,273.8,309.57Z" transform="translate(-158.9 -157.66)"/></svg>