<svg xmlns="http://www.w3.org/2000/svg" viewBox="0 0 201.95 188.95"><defs><style>.a{fill:#fff;}</style></defs><title>custom-msexcel</title><path class="a" d="M339,345H205.14a11.47,11.47,0,0,1-11.46-11.45v-35.1h49.39a7,7,0,0,0,7-7V248.26h24.22v46.13h76.15v39.12A11.47,11.47,0,0,1,339,345ZM198.14,302.87v30.64a7,7,0,0,0,7,7H339a7,7,0,0,0,7-7V298.84H269.84V252.71H254.53v38.71a11.47,11.47,0,0,1-11.46,11.45Z" transform="translate(-148.49 -156.01)"/><path class="a" d="M274.29,252.71H250.07V209.56a6.91,6.91,0,0,0-1.21-3.93l-2.4-3.49h27.83Zm-19.76-4.45h15.31V206.59h-15.7a11.81,11.81,0,0,1,.39,3Z" transform="translate(-148.49 -156.01)"/><path class="a" d="M274.29,206.59H249.52l-.67-1a7,7,0,0,0-5.78-3.05H193.68V167.46A11.47,11.47,0,0,1,205.14,156h69.15Zm-22.5-4.45h18V160.47h-64.7a7,7,0,0,0-7,7v30.65h44.93A11.45,11.45,0,0,1,251.79,202.14Z" transform="translate(-148.49 -156.01)"/><path class="a" d="M243.07,302.87H159.94a11.47,11.47,0,0,1-11.45-11.45V209.56a11.47,11.47,0,0,1,11.45-11.45h83.13a11.47,11.47,0,0,1,9.47,5,11.35,11.35,0,0,1,2,6.45v81.86A11.47,11.47,0,0,1,243.07,302.87Zm-83.13-100.3a7,7,0,0,0-7,7v81.86a7,7,0,0,0,7,7h83.13a7,7,0,0,0,7-7V209.56a6.91,6.91,0,0,0-1.21-3.93,7,7,0,0,0-5.79-3.06Z" transform="translate(-148.49 -156.01)"/><path class="a" d="M350.44,206.59h-80.6V156H339a11.47,11.47,0,0,1,11.45,11.45Zm-76.15-4.45H346V167.46a7,7,0,0,0-7-7h-64.7Z" transform="translate(-148.49 -156.01)"/><path class="a" d="M350.44,252.71h-80.6V202.14h80.6Zm-76.15-4.45H346V206.59H274.29Z" transform="translate(-148.49 -156.01)"/><path class="a" d="M350.44,298.84h-80.6V248.26h80.6Zm-76.15-4.46H346V252.71H274.29Z" transform="translate(-148.49 -156.01)"/><path class="a" d="M222.79,222.41l-17.08,27.33,17.5,28.83h-8.42l-7.16-12.42c-2.92-4.75-4.75-7.83-6.5-11.08H201c-1.58,3.25-3.16,6.25-6.07,11.16l-6.76,12.34H179.8L197,250.16l-16.5-27.75h8.43l7.41,13.17c2.09,3.66,3.66,6.5,5.17,9.49h.24c1.59-3.33,3-5.91,5.09-9.49l7.66-13.17h8.33m8-4.45H211.9l-1.29,2.21L203,233.34c-.5.84-1,1.65-1.41,2.45l-1.37-2.42-7.4-13.14L191.49,218H172.63l4,6.73,15.14,25.45L176,276.26,171.9,283h18.87l1.27-2.31,6.72-12.27c.94-1.59,1.75-3,2.46-4.25.78,1.31,1.63,2.71,2.58,4.24l7.13,12.36,1.29,2.23h18.91L227,276.25,211,249.78l15.62-25,4.26-6.81Z" transform="translate(-148.49 -156.01)"/></svg>