<svg xmlns="http://www.w3.org/2000/svg" viewBox="0 0 162.37 182.96"><defs><style>.a{fill:#fff;}</style></defs><title>custom-nodejs</title><path class="a" d="M249.76,341.62a14.69,14.69,0,0,1-7.06-1.85l-22.36-13.28c-3.36-1.84-1.68-2.52-.67-2.85a41,41,0,0,0,10.09-4.54,1.53,1.53,0,0,1,1.68.17l17.14,10.25a2.12,2.12,0,0,0,2,0l67.06-38.83a1.92,1.92,0,0,0,1-1.85V211.36a1.92,1.92,0,0,0-1-1.85L250.6,170.85a2.12,2.12,0,0,0-2,0l-67.06,38.66a2.08,2.08,0,0,0-1,1.85v77.48a2.08,2.08,0,0,0,1,1.85l18.32,10.59c9.91,5,16.13-.84,16.13-6.72V218.08a2,2,0,0,1,2-2h8.57a2,2,0,0,1,2,2v76.48c0,13.28-7.23,21-19.83,21-3.87,0-6.9,0-15.47-4.2l-17.65-10.09A14.19,14.19,0,0,1,168.57,289V211.53a14.2,14.2,0,0,1,7.06-12.28l67.07-38.82a15,15,0,0,1,14.12,0l67.06,38.82a14.2,14.2,0,0,1,7.06,12.28V289a14.19,14.19,0,0,1-7.06,12.27l-67.06,38.83A17.21,17.21,0,0,1,249.76,341.62Zm20.67-53.28C241,288.34,235,274.89,235,263.46a2,2,0,0,1,2-2h8.74a1.73,1.73,0,0,1,1.85,1.68c1.35,8.91,5.21,13.28,23,13.28,14.12,0,20.17-3.2,20.17-10.76,0-4.37-1.68-7.57-23.7-9.75-18.32-1.85-29.75-5.88-29.75-20.51,0-13.61,11.43-21.68,30.59-21.68,21.52,0,32.11,7.4,33.45,23.53a2.72,2.72,0,0,1-.5,1.51,2.07,2.07,0,0,1-1.35.68h-8.74a2,2,0,0,1-1.85-1.52c-2-9.24-7.23-12.27-21-12.27-15.46,0-17.31,5.38-17.31,9.42,0,4.87,2.18,6.38,23,9.07,20.67,2.69,30.42,6.56,30.42,21-.17,14.8-12.27,23.2-33.62,23.2Z" transform="translate(-168.57 -158.66)"/></svg>