<svg xmlns="http://www.w3.org/2000/svg" viewBox="0 0 240.88 211.52"><defs><style>.a{fill:#fff;}</style></defs><title>custom-zbrush</title><path class="a" d="M270.73,186.23c-6.13,0-11.09-1.72-14.78-5.13a18.63,18.63,0,0,1-5.86-13c0-5.28,3.38-13.77,9-18.84a16,16,0,0,1,12.6-4.38c16.65,1.8,23.76,23.17,24.76,28.8h0a7.65,7.65,0,0,1-1.36,6.24c-2.69,3.48-8.53,5.16-21.54,6.21Q272.11,186.23,270.73,186.23Zm-.66-36.17a11,11,0,0,0-7.41,3.12c-4.68,4.2-7.27,11.48-7.27,14.9a13.51,13.51,0,0,0,4.15,9.13c3.12,2.88,7.7,4.1,13.62,3.62,6.66-.54,15.74-1.55,17.77-4.17a2.37,2.37,0,0,0,.33-2.08h0c0-.23-5.21-22.84-20.11-24.46A9.77,9.77,0,0,0,270.07,150.06Z" transform="translate(-129.12 -144.77)"/><path class="a" d="M365.46,356.29c-2.4,0-5.34-1.53-9-3.42l-.89-.46c-7.57-3.91-24.9-20.2-28-23.39-4.4-4.46-1.93-11.16-.88-14l.11-.3c.29-1.23-1.45-8.67-10.43-12.9-9.56-4.51-30.18-9.51-44.73-11.91-12.36-2-37.12-1.86-42.93-1.79-1.58,1.95-5.35,6.5-9.9,11.31-5.54,5.87-17.6,17.46-24.89,23-7.44,5.71-25,16.8-43.83,22.2-9.85,2.84-15.89,2.53-19-1-2.51-2.81-2.56-7.18-.14-13,3.53-8.53,16.74-22.83,24.52-29.44,9.62-8.18,31.37-20.74,43.48-27.49,16-8.91,29.16-11.13,33.31-11.64,2.33-3.54,9.83-14.76,13.93-18.86,3.51-3.51,12.93-12.86,17.31-17.21l-20.74-13.81c-1.11-.73-11.1-7-20.87-7-8.92,0-27.06,11.69-28.86,15.66-1.32,2.9-1.28,6.77-1.24,9.32a13.75,13.75,0,0,1-.21,3.53c-1,3.82-10.24,7.8-17.86,10.49A40.72,40.72,0,0,1,161,247.66c-2.83.21-4.14-.95-4.74-2-1.68-2.88.71-6.5,4.34-12,1-1.48,2-3,2.93-4.55,4.87-8.06,23.17-24.6,28.66-27.87l.71-.42c5.7-3.42,20.85-12.53,41.78-12.53,19,0,50.22,12.2,58,15.36,4.42-4.34,15-11.17,24.84-12.37,5.08-.62,9.26.37,12.43,2.92,11.34,9.15,5.61,16.73-1,25.52l-1.36,1.81c-7.53,10.08-22.43,16.75-31.93,17.15-6.68.3-15.58-3.48-19.51-5.32a156.21,156.21,0,0,1-10.79,11.8,129.14,129.14,0,0,0-12.6,15.3c19.16-.71,38.27,7.32,53.14,14.67,16.06,7.93,28.08,19.8,35.25,26.89,1.42,1.41,2.65,2.62,3.68,3.57,6.72,6.23,22.35,31.64,24.68,41.44h0c.69,2.89,1.17,6.44-1.2,8.3A4.38,4.38,0,0,1,365.46,356.29ZM235.55,282.76c10.08,0,27,.27,36.91,1.9,15.28,2.53,36,7.58,46.13,12.35,11.17,5.27,14.55,15.64,13.15,19.5l-.12.32c-.76,2.08-2.36,6.4-.32,8.47,3.53,3.59,20.16,19,26.7,22.4l.9.46a43.47,43.47,0,0,0,5.8,2.7,13.45,13.45,0,0,0-.41-2.57h0c-2.07-8.71-17.14-33.22-23.14-38.78-1.08-1-2.34-2.25-3.79-3.68-6.95-6.87-18.58-18.36-33.87-25.91C280.2,268.4,263,264.18,247.68,266.22L242,267l3.14-4.84c.33-.5,8.07-12.34,16.43-20.7a125.56,125.56,0,0,0,11.63-12.95l1.35-1.84,2,1.05c.11.06,11.61,6,18.83,5.71s20.93-5.7,27.9-15l1.38-1.83a65.77,65.77,0,0,0,5.05-7.31,25.35,25.35,0,0,1-16,5.67,36.84,36.84,0,0,1-14.4-2.84l-3.64-1.65,2.94-2.71c4.92-4.53,17.07-8.79,23.64-8.29a21.46,21.46,0,0,1,7.07,1.47,19.92,19.92,0,0,0-2.7-2.54c-2-1.63-4.87-2.23-8.47-1.79-9.34,1.13-20.33,8.8-22.67,11.87l-1.24,1.63-1.89-.8c-.37-.15-37.37-15.65-57.66-15.65-19.47,0-33.19,8.25-39,11.77l-.72.43c-4.89,2.91-22.51,18.89-26.85,26.06-1,1.62-2,3.2-3,4.73-1.14,1.73-2.71,4.1-3.5,5.68a36.47,36.47,0,0,0,10-2.95l.27-.11c10-3.5,13.85-6.21,14.65-7.08,0-.41,0-1.24,0-1.92,0-3-.09-7.61,1.72-11.58,2.74-6,22.61-18.77,33.68-18.77,11.3,0,22.52,7.1,23.76,7.91l2.26,1.46,23.91,16-2.29,2.28s-15,14.84-19.6,19.48c-4.4,4.4-13.83,18.91-13.92,19.06l-.72,1.11-1.32.09c-.14,0-14.55,1.14-32.44,11.11-20.32,11.34-35.85,21.14-42.63,26.9a121.09,121.09,0,0,0-9,8.74,87.91,87.91,0,0,1,12.11-9.77,107,107,0,0,1,22.62-11.66c10.49-4.13,28-7.32,28.71-7.45l7.94-1.44-5.54,5.86s-8.85,9.36-12.76,13.44h0c-4,4.18-21,18.61-29.72,24.19a65.4,65.4,0,0,1-22.49,9.55c-3.54.71-5.52-.49-6.56-1.61-2.08-2.26-2.26-6-.59-11.92a18.86,18.86,0,0,1,3.79-6.48c-5.11,5.71-9.83,11.86-11.54,16-1.5,3.63-1.79,6.34-.8,7.45.55.62,3.17,2.41,13.6-.59,18-5.18,34.92-15.83,42.06-21.31,6.81-5.22,18.73-16.62,24.27-22.49,5.74-6.07,10.34-11.88,10.39-11.94l.77-1,1.25,0C227.73,282.81,230.92,282.76,235.55,282.76ZM206,292a144.63,144.63,0,0,0-19.55,5.49,102.45,102.45,0,0,0-21.57,11.12c-9.1,6.2-15.18,12.19-16.28,16-1.63,5.68-.62,6.86-.61,6.87s.48.23,1.62,0a60.11,60.11,0,0,0,20.68-8.81c8.14-5.21,24.85-19.33,28.74-23.39h0Zm-46-49.64Zm146.39-33.55a29.38,29.38,0,0,0,7.14.8,20.21,20.21,0,0,0,12.53-4.25,23.61,23.61,0,0,0-4.31-.66h0C318,204.42,311.27,206.36,306.43,208.82Z" transform="translate(-129.12 -144.77)"/></svg>