<svg xmlns="http://www.w3.org/2000/svg" viewBox="0 0 199.2 199.2"><defs><style>.a{fill:#fff;}</style></defs><title>custom-canva</title><path class="a" d="M249.92,349.61A99.6,99.6,0,1,1,349.52,250,99.71,99.71,0,0,1,249.92,349.61Zm0-194.74A95.15,95.15,0,1,0,345.07,250,95.25,95.25,0,0,0,249.92,154.87Z" transform="translate(-150.32 -150.42)"/><path class="a" d="M197,224.62a18.29,18.29,0,0,1,7,1.33c3.05,1.28,5.6,4.7,5.27,8s-.57,4.41-1.64,5.9-2.93,3.63-5.24,3.67h-.09c-2.22,0-2.17-1.54-1.44-2.31s3-5.44,1.86-9.11a5.26,5.26,0,0,0-4.93-3.61h0a2.87,2.87,0,0,0-.6-.05c-1.67,0-6.71.86-13.13,9.88-7.92,11.13-3.84,25.6-1.11,28.45s4.91,3.27,8.06,3.46h.35c3.23,0,8.88-2.45,12.74-8.6a40.31,40.31,0,0,0,4.39-8.91c.37-1,3.88-7.38,7.42-9.21a10.9,10.9,0,0,1,4.81-1.48,4.46,4.46,0,0,1,2.61.8,6.41,6.41,0,0,1,2.6,3.58s1.13-2.32,2.61-3a7.89,7.89,0,0,1,3.18-.94,3.11,3.11,0,0,1,.43,0,1.94,1.94,0,0,1,1.79,1.26A12.43,12.43,0,0,1,233,248c-.72,2.23-1.4,5.14-1.61,5.88s-1.09,5.11-1.28,6.37a27.15,27.15,0,0,0-.33,5.32,1.71,1.71,0,0,0,1,1.36s.17,0,.37,0a3.67,3.67,0,0,0,2.93-1.73,34.58,34.58,0,0,0,4.2-7.47c.38-1.36,2.15-6.06,2.36-7.6s.68-4.68.61-5.3-.24-1.38,1.18-1.76a11,11,0,0,1,2.62-.49,3.08,3.08,0,0,1,1.26.25c1.17.51,1.79,3.19,1.73,4a11.91,11.91,0,0,1-.37,3.73c-.07.18-.61,3.07-.62,3.13a64.73,64.73,0,0,1,4-6.1c1-1.08,4.21-5.28,8-5.28h.13c.78,0,2.91.43,3.69,2a9.11,9.11,0,0,1,.82,3.82,25.57,25.57,0,0,1-.66,5.19c-.55,2.23-1.31,5.65-1.42,6.17a33.89,33.89,0,0,0-.49,3.64c0,.77.2,2.21,1.05,2.38l.25,0a4.92,4.92,0,0,0,3.49-2.29c1.12-1.68,3.06-4.62,3.34-6s1.61-4.57,1.72-7.88,1.37-7,5.05-7.13h.42c3.22,0,2.61,1.25,2.58,1.4s-.52,7.1-.39,9.46.58,8.33.88,9.76c.21.95.54,2.65,1.52,2.65.5,0,1.16-.44,2.06-1.63,2.66-3.55,6.18-9.51,6.16-10.26a7.69,7.69,0,0,1-3.88-3.84,11.81,11.81,0,0,1-.88-6.16,9.75,9.75,0,0,1,2-4.73,7,7,0,0,1,4.47-2.21h.23a4.42,4.42,0,0,1,4.15,2.8,8,8,0,0,1,.63,3.74,33.59,33.59,0,0,1-2.17,8.5,4.75,4.75,0,0,0,1.07.11,5,5,0,0,0,2.46-.62A15.44,15.44,0,0,0,302,247a15.63,15.63,0,0,1,4.33-3.71,11,11,0,0,1,4.26-1.2h.23a5.49,5.49,0,0,1,5.28,4s2-3.79,5.47-3.79a4.91,4.91,0,0,1,1.17.14c2.35.55,1.51,2.41,1,4.06-.62,2.14-2.47,9.19-2.76,10.64a32.92,32.92,0,0,0-.91,7.21c.15,2,.34,2.62,1.07,2.62l.21,0c.91-.12,2.54-1,3.83-3.67a21.74,21.74,0,0,0,1.59-3.44.77.77,0,0,1,.74-.7.87.87,0,0,1,.66.35c.52.62.73,1.36.44,3.15a11.62,11.62,0,0,1-4.62,6.7c-2.17,1.4-3.55,1.81-4.92,1.81q-.35,0-.69,0a5.65,5.65,0,0,1-4.84-3.22,7.72,7.72,0,0,1-.85-2.41,12.07,12.07,0,0,1-2.82,3.52,9.71,9.71,0,0,1-5.57,2.22H304c-2.78-.12-5-1.57-6.25-4.8a19.67,19.67,0,0,1-.47-9.2c.31-1.31,1.16-4,1.17-4a9.09,9.09,0,0,1-4.87,1.47,8.25,8.25,0,0,1-1.19-.09s-3.46,6.78-5.58,9.18-6,7.45-9.16,7.45h-.06c-3.17-.07-4.58-5.72-4.91-6.88a40.4,40.4,0,0,1-1.15-5.85s-2.51,6.19-4.66,8.33c-2.44,2.43-4.41,4.38-7.22,4.4h0a6,6,0,0,1-5.62-5.72,41.52,41.52,0,0,1,1.47-11.21c.56-2,1.35-5.72.06-5.72l-.17,0c-1.53.33-6.11,6.39-6.93,8.62s-3,6.14-4.08,10-.25,3-2.31,3.79a3.46,3.46,0,0,1-1.32.27,3.38,3.38,0,0,1-3.1-2.33,9.82,9.82,0,0,1-.53-3.38s-3.83,5.73-8.2,5.73l-.42,0c-4.54-.39-5.69-4.1-6.06-5.59,0,0-3.33,5.6-8.29,5.6q-.33,0-.66,0c-5.32-.54-6.27-5.77-6.64-8.58,0,0-6,12.29-17.11,12.7l-.81,0c-10.51,0-15-7.79-15.68-10.2s-2.64-6.43-1.94-14.15,5-15.05,8.33-18.18,7-6.14,11.87-7.5a20.54,20.54,0,0,1,5.49-.76m93.72,25.19c.33-1.08,1.63-5.73,1.38-7.26s-.49-1.94-.88-2a1.34,1.34,0,0,0-.35,0c-.3,0-.63.14-1,.67a7.47,7.47,0,0,0-.79,3.73,9.57,9.57,0,0,0,.7,3.36,10.64,10.64,0,0,0,.95,1.59m16.57,16.76h.05c1.4,0,3.71-2,4.95-5.57s2.31-7.08,2.31-9.62c0-1.63-.13-3.45-1.12-4.36a1.93,1.93,0,0,0-1.34-.53,3.57,3.57,0,0,0-2.33,1.11,21.18,21.18,0,0,0-3.42,5.53c-2.44,6.27-1.85,9.93-1.61,10.88s1.14,2.56,2.51,2.56m-90.22,0h.05c1.4,0,3.71-2,4.95-5.57s2.31-7.08,2.31-9.62c0-1.63-.13-3.45-1.12-4.35a1.9,1.9,0,0,0-1.34-.54,3.57,3.57,0,0,0-2.33,1.11,21.18,21.18,0,0,0-3.42,5.53c-2.44,6.27-1.85,9.94-1.61,10.88s1.14,2.56,2.51,2.56M197,220.17h0a24.9,24.9,0,0,0-6.68.91c-5.76,1.6-10,5.06-13.73,8.55-4.24,4-8.94,12.48-9.72,21a32.92,32.92,0,0,0,1.73,14.63c.15.45.27.83.36,1.13,1,3.49,6.78,13.44,20,13.44h1c7-.27,12.32-4.16,15.82-8a10.5,10.5,0,0,0,7.32,3.8,10,10,0,0,0,1.1.05,12.42,12.42,0,0,0,7.55-2.71,10.81,10.81,0,0,0,6.42,2.69c.26,0,.53,0,.8,0a11.53,11.53,0,0,0,6.51-2.2,7.58,7.58,0,0,0,5.32,2.19,7.94,7.94,0,0,0,3-.59l.55-.2a5.48,5.48,0,0,0,3.89-4.57c.1-.44.24-1,.5-1.92a26.34,26.34,0,0,1,.93-2.66,10.42,10.42,0,0,0,10.06,9.9h.05c4.65,0,7.67-3,10.33-5.69,1.82,3.71,4.32,5.62,7.48,5.69h.16c4.8,0,8.75-4.6,11.63-7.95l.86-1a26.65,26.65,0,0,0,2.45-3.41,17.84,17.84,0,0,0,1,4.66,11.17,11.17,0,0,0,10.22,7.69h.49a13.19,13.19,0,0,0,7.6-2.65,10.41,10.41,0,0,0,6.08,2.52,10.29,10.29,0,0,0,1.09.05,13.12,13.12,0,0,0,7.33-2.51,16,16,0,0,0,6.61-9.74,8,8,0,0,0-1.41-6.72,5.37,5.37,0,0,0-4.09-1.94,5.3,5.3,0,0,0-1.39.18c.64-2.5,1.5-5.73,1.9-7.14,0-.13.09-.27.13-.41.44-1.44,1.18-3.84-.2-6.24a6.29,6.29,0,0,0-4.22-3,9.57,9.57,0,0,0-2.19-.26,9.4,9.4,0,0,0-5.1,1.51,10.91,10.91,0,0,0-5.45-1.76h-.43a14,14,0,0,0-5.73,1.44l-.26.11a18.15,18.15,0,0,0-4.11,2.91,13.49,13.49,0,0,0-1-4.25,8.86,8.86,0,0,0-8-5.61H291c-3.89,0-6.85,2.71-7.66,3.55a10.55,10.55,0,0,0-2.08,3.21,8.53,8.53,0,0,0-4.79-1.21h-.55a9.08,9.08,0,0,0-8.36,6.19,10.69,10.69,0,0,0-.67-1.68c-1.71-3.41-5.56-4.41-7.56-4.46H259a12.54,12.54,0,0,0-8.08,3.48,6.43,6.43,0,0,0-2.84-2.56,7.47,7.47,0,0,0-3.05-.63,13.24,13.24,0,0,0-3.49.58l-.26.06a6.24,6.24,0,0,0-3.68,2.55,6.67,6.67,0,0,0-5-3.2c-.31,0-.63-.05-.94-.05a11.68,11.68,0,0,0-5,1.34l-.33.16c-.17-.14-.34-.26-.51-.38a8.94,8.94,0,0,0-5.12-1.57,14.9,14.9,0,0,0-6.85,2,11,11,0,0,0-1.44.89,18.37,18.37,0,0,0,1.29-6c.5-5-2.93-10.44-8-12.56a22.84,22.84,0,0,0-8.69-1.67Zm-5.68,45.61h-.08c-2.51-.15-3.38-.28-5.11-2.09-1.54-1.86-4.87-13.79,1.52-22.79,5.24-7.36,8.82-8,9.42-8l.23,0h.42a.7.7,0,0,1,.73.53c.45,1.37-.46,4-1,4.85a5.85,5.85,0,0,0-1.06,6.14,6.11,6.11,0,0,0,5.9,3.51h.17a8.68,8.68,0,0,0,4.31-1.24,29.76,29.76,0,0,0-2.47,4.44c-.05.12-.1.27-.16.45a36.36,36.36,0,0,1-3.84,7.65c-3.08,4.92-7.37,6.51-9,6.51Zm92-10.25c0-.33,0-.66-.07-1l.4.43c-.1.17-.21.36-.33.55Z" transform="translate(-150.32 -150.42)"/></svg>