<svg xmlns="http://www.w3.org/2000/svg" viewBox="0 0 201.95 188.96"><defs><style>.a{fill:#fff;}</style></defs><title>custom-msword</title><path class="a" d="M339.68,345.11H205.84a11.47,11.47,0,0,1-11.46-11.46v-35.1h49.39a7,7,0,0,0,5.77-3.05l.67-1H351.14v39.13A11.47,11.47,0,0,1,339.68,345.11ZM198.84,303v30.64a7,7,0,0,0,7,7H339.68a7,7,0,0,0,7-7V299h-94.2a11.42,11.42,0,0,1-8.71,4Z" transform="translate(-149.18 -156.15)"/><path class="a" d="M351.14,299h-104l2.4-3.49a6.93,6.93,0,0,0,1.21-3.93V248.4H351.14Zm-96.31-4.46h91.85V252.85H255.22v38.71A11.24,11.24,0,0,1,254.83,294.52Z" transform="translate(-149.18 -156.15)"/><path class="a" d="M351.14,252.85H250.76V209.7a6.91,6.91,0,0,0-1.21-3.93l-2.4-3.49h104Zm-95.92-4.45h91.46V206.73H254.83a11.37,11.37,0,0,1,.39,3Z" transform="translate(-149.18 -156.15)"/><path class="a" d="M351.14,206.73H250.21l-.67-1a7,7,0,0,0-5.77-3.06H194.38V167.6a11.47,11.47,0,0,1,11.46-11.45H339.68a11.47,11.47,0,0,1,11.46,11.45Zm-98.66-4.45h94.2V167.6a7,7,0,0,0-7-7H205.84a7,7,0,0,0-7,7v30.65h44.93A11.39,11.39,0,0,1,252.48,202.28Z" transform="translate(-149.18 -156.15)"/><path class="a" d="M243.77,303H160.64a11.47,11.47,0,0,1-11.46-11.45V209.7a11.46,11.46,0,0,1,11.46-11.45h83.13a11.45,11.45,0,0,1,11.45,11.45v81.86A11.47,11.47,0,0,1,243.77,303ZM160.64,202.7a7,7,0,0,0-7,7v81.86a7,7,0,0,0,7,7h83.13a7,7,0,0,0,7-7V209.7a6.91,6.91,0,0,0-1.21-3.93,7,7,0,0,0-5.78-3.07Z" transform="translate(-149.18 -156.15)"/><path class="a" d="M237.32,224l-16.17,55.5h-7.71l-7.2-28.91a164.15,164.15,0,0,1-3.72-18.11h-.17a169.3,169.3,0,0,1-4.41,18.11l-8.13,28.91H182.1L167.62,224h7.8l6.77,28.08c1.69,6.91,3.22,13.83,4.24,19.18h.16c.93-5.51,2.71-12.1,4.66-19.26l7.62-28h7.71l6.95,28.16c1.6,6.59,3.13,13.18,4,19h.16c1.19-6.09,2.8-12.27,4.58-19.18l7.54-28h7.53m5.94-4.46H226.37l-.89,3.3-7.53,28v.05l-.06.26v0l-7-28.18-.84-3.39h-14.6l-.9,3.29-7.61,28c-.09.31-.17.61-.26.93l-.18-.74-6.77-28.07-.83-3.41H161.86l1.45,5.58,14.48,55.5.87,3.33h14.53l.91-3.25,8-28.36,7,28.23.85,3.38h14.53l.93-3.21,16.18-55.49,1.66-5.71Z" transform="translate(-149.18 -156.15)"/></svg>