<svg xmlns="http://www.w3.org/2000/svg" viewBox="0 0 217.56 116.7"><defs><style>.a{fill:#fff;}</style></defs><title>custom-vba</title><polygon class="a" points="104.17 41.2 80.92 52.23 65.99 45.17 65.99 22.33 104.17 41.2"/><polygon class="a" points="149.71 24.44 149.71 47.36 138.19 52.27 116.3 41.23 149.71 24.44"/><polygon class="a" points="146.08 19.72 110.24 38.15 69.82 17.63 106.97 0 146.08 19.72"/><polygon class="a" points="175.26 80.6 175.26 112.91 153.38 101.4 155.96 100.1 155.96 71.07 175.26 80.6"/><polygon class="a" points="217.56 62.25 217.56 94.54 181.04 112.97 181.04 80.59 217.56 62.25"/><polygon class="a" points="213.84 57.71 178.09 76.07 155.96 64.84 155.96 61.24 155.96 61.23 155.96 61.23 155.96 61.2 155.94 61.22 151.66 59.06 150.03 58.24 150.03 58.24 148.39 57.41 141.63 54.01 149.71 50.57 151.18 49.94 152.65 49.31 175.48 39.59 213.84 57.71"/><polygon class="a" points="41.41 77.95 41.41 110.26 0 88.46 0 57.49 41.41 77.95"/><polygon class="a" points="70.23 98.68 47.2 110.31 47.2 77.95 66.38 68.31 66.38 96.66 70.23 98.68"/><polygon class="a" points="77.47 53.86 71.98 56.47 70.31 57.26 68.66 58.04 66.49 59.07 66.38 59.14 66.38 62.06 44.25 73.42 3.98 52.98 41.64 36.94 63.05 47.05 64.51 47.74 65.99 48.44 77.47 53.86"/><polygon class="a" points="110.74 84.34 110.74 116.65 76.71 98.74 75.1 97.89 73.48 97.04 69.33 94.85 69.33 63.87 70.64 64.52 72.3 65.34 83.73 70.99 85.19 71.72 86.67 72.45 110.74 84.34"/><polygon class="a" points="153.05 65.98 153.05 98.25 150.17 99.71 148.55 100.53 146.94 101.34 116.49 116.7 116.49 84.33 130.9 77.09 132.36 76.36 133.85 75.62 149.38 67.82 151.03 66.99 152.37 66.32 152.69 66.16 153.05 65.98"/><polygon class="a" points="149.41 61.28 149.18 61.4 147.56 62.23 146.18 62.94 145.94 63.06 144.53 63.78 142.91 64.62 133.85 69.28 132.36 70.05 130.9 70.79 113.58 79.7 112.16 78.98 110.35 78.06 110.24 78.01 108.87 77.31 95.92 70.74 95.86 70.71 86.67 66.05 85.19 65.3 83.73 64.55 78.82 62.06 77.19 61.24 75.78 60.52 75.56 60.41 74.17 59.7 73.15 59.19 73.58 58.99 75.26 58.19 82.67 54.67 84.38 53.86 107.4 42.93 108.87 42.23 110.24 41.58 110.3 41.55 110.35 41.58 111.72 42.26 113.18 43.01 134.59 53.8 136.31 54.67 138.03 55.54 145.07 59.08 146.71 59.91 148.34 60.74 149.41 61.28"/></svg>