<svg xmlns="http://www.w3.org/2000/svg" viewBox="0 0 356.89 107.77"><defs><style>.a{fill:#fff;}</style></defs><title>custom-aitc</title><path class="a" d="M72.44,302.31l-.66-.58v-3.79l.66-.58a31.07,31.07,0,0,0,6.85-.55,5.78,5.78,0,0,0,2.73-1.9q1.2-1.41,4.85-9.29L94.52,269l19.82-44.88q5.61-13.2,11.14-26.38h4.74l31.11,73.16,4.16,9.76q1.81,4.15,4.19,9t3.28,5.76a6.06,6.06,0,0,0,2.26,1.35,24,24,0,0,0,6,.55l.58.58v3.79l-.58.58q-7.72-.66-13.92-.66-12.1.38-24.19.66l-.58-.58v-3.79l.58-.58q8.16-.15,10.2-.7a2.42,2.42,0,0,0,2-2.51,12.43,12.43,0,0,0-1-4.23l-9-22.22H103.19l-7.94,18.65c-1.41,3.35-2.12,5.81-2.12,7.36a2.86,2.86,0,0,0,2,2.7q2,.87,9.91.95l.66.58v3.79l-.59.58q-9.39-.58-16.47-.58Q80.6,301.73,72.44,302.31Zm33.23-40.88h36.87L124.25,217.5Z" transform="translate(-71.78 -196.66)"/><path class="a" d="M189.61,198.77l9.1.29q9,.3,11.74.29,2.48,0,20.91-.58l.58.51v3.64l-.58.51q-5,.15-7.76.44a9.56,9.56,0,0,0-4,1.09c-.83.54-1.38,1.79-1.64,3.76a63.91,63.91,0,0,0-.4,8.19l-.15,16.76v33.74l.07,14.21a100,100,0,0,0,.44,10.64,6.64,6.64,0,0,0,1.06,3.2,5.48,5.48,0,0,0,2.66,1.35,58.78,58.78,0,0,0,9.69.84l.58.43v3.65l-.58.58-12.83-.44q-5.17-.14-8.08-.14-2.26,0-20.84.58l-.59-.58v-3.65l.59-.43a77.58,77.58,0,0,0,9-.73,6.67,6.67,0,0,0,3-1.13,5.65,5.65,0,0,0,1.23-3,66.57,66.57,0,0,0,.55-10.06l.07-15.37V233.67l-.14-14.21c0-5.53-.18-9.11-.4-10.71a6.6,6.6,0,0,0-1-3.2,5.36,5.36,0,0,0-2.66-1.32,63.44,63.44,0,0,0-9.69-.8l-.59-.51v-3.64Z" transform="translate(-71.78 -196.66)"/><path class="a" d="M323.53,198.77l.66.65q-.66,6.57-.66,22.88l-.58.59h-3.43l-.58-.66-.8-6.7a62.77,62.77,0,0,0-.91-6.6,3.08,3.08,0,0,0-1.06-1.74c-.48-.37-2.06-.67-4.73-.92s-5.66-.36-9-.36H288.7q-.58,16.47-.58,19v42.48l.15,14.21c0,5.49.18,9.05.4,10.67a6.35,6.35,0,0,0,1,3.21,5.71,5.71,0,0,0,2.66,1.31q2,.54,9.76.84l.51.43v3.65l-.51.58q-18.66-.58-20.84-.58t-20.77.58l-.58-.58v-3.65l.58-.43a77,77,0,0,0,9.08-.73,6.57,6.57,0,0,0,3-1.13,5.86,5.86,0,0,0,1.28-3,59.57,59.57,0,0,0,.51-10.06l.14-15.37V224.93q0-1.17-.58-19H263.05q-6.71,0-11.58.29c-3.26.2-5.14.69-5.65,1.5s-1,3.41-1.42,7.83l-.73,6.7-.65.66h-3.36l-.58-.59q-.15-17.55-.65-22.88l.65-.65q12.67.58,42.19.58Q311.36,199.35,323.53,198.77Z" transform="translate(-71.78 -196.66)"/><path class="a" d="M428.68,289.41l-2.77,6.78a75.1,75.1,0,0,1-34.54,8.23q-26.31,0-42.74-14.93T332.2,250.43q0-16.6,8.2-29A50.89,50.89,0,0,1,362,202.81a71.78,71.78,0,0,1,30.2-6.15,90.87,90.87,0,0,1,19.17,2,80.46,80.46,0,0,1,15.81,4.88l.51.73q-1.68,4.08-3.13,20.18l-.51.58h-3.43l-.58-.58-.73-12.39a39.6,39.6,0,0,0-12.86-6.59,52.06,52.06,0,0,0-15.7-2.37,45.67,45.67,0,0,0-22.08,5.28,36.92,36.92,0,0,0-15.16,15.31q-5.39,10-5.39,24.51t6.34,25.58a43.37,43.37,0,0,0,17.31,16.91q10.95,5.89,25.61,5.9a61.73,61.73,0,0,0,12.46-1.24,47.41,47.41,0,0,0,9.94-3.06,45.75,45.75,0,0,0,7.62-4.45Z" transform="translate(-71.78 -196.66)"/></svg>