<svg xmlns="http://www.w3.org/2000/svg" viewBox="0 0 182.97 182.96"><defs><style>.a{fill:#fff;}</style></defs><title>custom-wp</title><path class="a" d="M171.59,250.14a78.51,78.51,0,0,0,44.23,70.63L178.39,218.2A78.09,78.09,0,0,0,171.59,250.14Z" transform="translate(-158.59 -158.66)"/><path class="a" d="M303.05,246.18c0-9.7-3.48-16.42-6.47-21.64-4-6.47-7.71-11.94-7.71-18.41,0-7.21,5.47-13.93,13.18-13.93.35,0,.68.05,1,.07A78.47,78.47,0,0,0,184.5,207c1.84.05,3.58.09,5.05.09,8.21,0,20.92-1,20.92-1,4.23-.25,4.73,6,.5,6.46,0,0-4.25.5-9,.75l28.58,85,17.17-51.5-12.23-33.5c-4.22-.25-8.23-.75-8.23-.75-4.22-.25-3.73-6.72.5-6.47,0,0,13,1,20.67,1,8.21,0,20.92-1,20.92-1,4.23-.25,4.73,6,.5,6.47,0,0-4.26.5-9,.75l28.36,84.36,7.82-26.16C300.47,260.69,303.05,252.9,303.05,246.18Z" transform="translate(-158.59 -158.66)"/><path class="a" d="M251.45,257,227.9,325.42a78.47,78.47,0,0,0,48.23-1.25,6.86,6.86,0,0,1-.56-1.08Z" transform="translate(-158.59 -158.66)"/><path class="a" d="M318.93,212.49a59.76,59.76,0,0,1,.53,8.07c0,8-1.49,16.91-6,28.11l-24,69.3a78.46,78.46,0,0,0,29.41-105.48Z" transform="translate(-158.59 -158.66)"/><path class="a" d="M250.07,158.66a91.48,91.48,0,1,0,91.49,91.48A91.59,91.59,0,0,0,250.07,158.66Zm0,178.77a87.29,87.29,0,1,1,87.28-87.29A87.38,87.38,0,0,1,250.07,337.43Z" transform="translate(-158.59 -158.66)"/></svg>