<svg xmlns="http://www.w3.org/2000/svg" viewBox="0 0 159.05 223.55"><defs><style>.a{fill:#fff;}</style></defs><title>custom-magicavoxel</title><path class="a" d="M251.6,259.1H234.46V242H251.6Zm-12.9-4.24h8.66V246.2H238.7Z" transform="translate(-169.96 -138.75)"/><path class="a" d="M290.31,259.1H273.17V242h17.14Zm-12.91-4.24h8.67V246.2H277.4Z" transform="translate(-169.96 -138.75)"/><path class="a" d="M329,272H311.86V246.2H299V233.3H225.79v12.9H212.9V272H195.76V138.75H212.9v12.91h12.89v12.9H238.7v12.9h47.37v-12.9H299v-12.9h12.9V138.75H329Zm-12.9-4.23h8.67V143H316.1v12.9H303.2V168.8H290.31v12.9H234.46V168.8h-12.9V155.89h-12.9V143H200V267.77h8.66V242h12.9v-12.9H303.2V242h12.9Zm0-47.37h-30v-30h30Zm-25.79-4.24h21.55V194.6H290.31ZM238.7,220.4h-30v-30h30Zm-25.8-4.24h21.56V194.6H212.9Z" transform="translate(-169.96 -138.75)"/><path class="a" d="M290.31,272H234.46V254.86h12.9v-25.8H264.5V242h12.9v12.9h12.91Zm-51.61-4.23h47.37V259.1h-12.9V246.2H260.26V233.3H251.6v25.8H238.7Z" transform="translate(-169.96 -138.75)"/><path class="a" d="M303.2,323.6H286.07V306.46H303.2Zm-12.89-4.23H299V310.7h-8.65Z" transform="translate(-169.96 -138.75)"/><path class="a" d="M238.7,323.6H221.56V306.46H238.7Zm-12.91-4.23h8.67V310.7h-8.67Z" transform="translate(-169.96 -138.75)"/><path class="a" d="M290.31,336.51H234.46V280.66h12.9V267.77h30v12.89h12.91Zm-51.61-4.24h47.37V284.9h-12.9V272H251.6v12.9H238.7Z" transform="translate(-169.96 -138.75)"/><path class="a" d="M303.2,310.7H286.07V284.9h-12.9V267.77h12.9V246.2H260.26V229.06H303.2V242h12.9V297.8H303.2Zm-12.89-4.24H299v-12.9h12.9V246.2H299V233.3H264.5V242h25.81v30H277.4v8.66h12.91Z" transform="translate(-169.96 -138.75)"/><path class="a" d="M316.1,323.6H299V306.46H316.1Zm-12.9-4.23h8.66V310.7H303.2Z" transform="translate(-169.96 -138.75)"/><path class="a" d="M329,336.51H311.86V319.37H329Zm-12.9-4.24h8.67V323.6H316.1Z" transform="translate(-169.96 -138.75)"/><path class="a" d="M212.9,336.51H195.76V319.37H212.9ZM200,332.27h8.66V323.6H200Z" transform="translate(-169.96 -138.75)"/><path class="a" d="M225.79,323.6H208.66V306.46h17.13Zm-12.89-4.23h8.66V310.7H212.9Z" transform="translate(-169.96 -138.75)"/><path class="a" d="M238.7,310.7H221.56V297.8h-12.9V242h12.9v-12.9h30V246.2H238.7v21.57h12.9V284.9H238.7Zm-12.91-4.24h8.67v-25.8h12.9V272h-12.9V242h12.9V233.3H225.79v12.9H212.9v47.36h12.89Z" transform="translate(-169.96 -138.75)"/><path class="a" d="M200,310.7H182.86V293.56H200Zm-12.9-4.24h8.66V297.8H187.1Z" transform="translate(-169.96 -138.75)"/><path class="a" d="M200,336.51H182.86V319.37H200Zm-12.9-4.24h8.66V323.6H187.1Z" transform="translate(-169.96 -138.75)"/><path class="a" d="M212.9,349.41H195.76V332.27H212.9ZM200,345.17h8.66v-8.66H200Z" transform="translate(-169.96 -138.75)"/><path class="a" d="M187.1,323.6H170V306.46H187.1Zm-12.91-4.23h8.67V310.7h-8.67Z" transform="translate(-169.96 -138.75)"/><path class="a" d="M238.7,349.41h-30V332.27h12.9v-12.9H238.7Zm-25.8-4.24h21.56V323.6h-8.67v12.91H212.9Z" transform="translate(-169.96 -138.75)"/><path class="a" d="M316.1,349.41h-30v-30H303.2v12.9h12.9Zm-25.79-4.24h21.55v-8.66H299V323.6h-8.65Z" transform="translate(-169.96 -138.75)"/><path class="a" d="M251.6,362.3H234.46v-30H251.6Zm-12.9-4.24h8.66V336.51H238.7Z" transform="translate(-169.96 -138.75)"/><path class="a" d="M290.31,362.3H273.17v-30h17.14Zm-12.91-4.24h8.67V336.51H277.4Z" transform="translate(-169.96 -138.75)"/></svg>