<svg xmlns="http://www.w3.org/2000/svg" viewBox="0 0 415.11 108.05"><defs><style>.a{fill:#fff;}</style></defs><title>tumo</title><path class="a" d="M139.07,205.52h23.72v18.72H139.07Zm0,25.73h23.72v27.67a21.41,21.41,0,0,0,23,19.52A25,25,0,0,0,201.6,273v20.95a74.72,74.72,0,0,1-15.85,1.67c-25.72,0-46.62-12.46-46.62-27.85Zm-28.7-7v69.42H81.66V224.24H49.74V205.52H132v18.72Zm122,60.8v8.62H221.64A44.84,44.84,0,0,0,232.32,285M208.6,214.19v-8.67h10.68a44.41,44.41,0,0,0-10.68,8.67m23.72-6.94v60.51c0,10.05-9.07,19.24-23.72,24.23V231.48c0-10,9-19.3,23.72-24.23m69.47,33.07v53.34H278.13V240.32a21.4,21.4,0,0,0-23-19.52,25,25,0,0,0-15.91,5.74V205.29a73.36,73.36,0,0,1,15.91-1.66,64.4,64.4,0,0,1,32.9,8.27l1.83,1,1.84-1.09a70,70,0,0,1,66.32.29,53.6,53.6,0,0,0-13.61,18.6,23.94,23.94,0,0,0-20-9.93,21.41,21.41,0,0,0-23,19.52M371,231.48V290.1a46,46,0,0,1-23.71-39.51,45.3,45.3,0,0,1,16.53-34.1,20.49,20.49,0,0,1,7.47,15m-23.71,44.79a56.44,56.44,0,0,0,16.24,17.22H347.61Zm30.71-8.44a28.7,28.7,0,0,0,20.84,8.72,26,26,0,1,0,0-51.67,28.71,28.71,0,0,0-20.84,8.73v-1.9a26.8,26.8,0,0,0-8.84-19.23,54.42,54.42,0,0,1,29.68-8.61c28.71,0,51.68,21.07,51.68,47s-23,47-51.68,47a54.93,54.93,0,0,1-20.84-4Zm41.74-17.23a21,21,0,1,1-22.92-18.79c.67-.06,1.35-.1,2-.1a20,20,0,0,1,20.9,18.89m-20.9-54a60.78,60.78,0,0,0-35.36,11,70.19,70.19,0,0,0-39.1-11A73.31,73.31,0,0,0,290,205a73.56,73.56,0,0,0-34.45-8.21,77.38,77.38,0,0,0-17.62,1.95H201.54v60.17a14.52,14.52,0,0,1-15.84,12.52,14.59,14.59,0,0,1-15.91-12.52v-60.4H42.68v32.73H74.6v69.41h42.77V231.25H132v36.51c0,19.24,24.12,34.85,53.69,34.85a81.59,81.59,0,0,0,17.68-1.95h35.94v-60.4A14.48,14.48,0,0,1,255.23,228a14.52,14.52,0,0,1,15.84,12.52v60.17h37.78V240.32a16.31,16.31,0,0,1,31.75,0v60.34h36.8a62.23,62.23,0,0,0,21.76,3.9c32.33,0,58.62-24.22,58.62-54s-26.29-54-58.62-54" transform="translate(-42.68 -196.51)"/></svg>