<svg xmlns="http://www.w3.org/2000/svg" viewBox="0 0 240.43 236.79"><defs><style>.a{fill:#fff;}</style></defs><title>custom-photoshop</title><path class="a" d="M325.88,368.76H173.25a44,44,0,0,1-43.9-43.9v-149a44,44,0,0,1,43.9-43.9H325.88a44,44,0,0,1,43.9,43.9v149A44,44,0,0,1,325.88,368.76ZM173.25,137.27a38.64,38.64,0,0,0-38.6,38.6v149a38.64,38.64,0,0,0,38.6,38.6H325.88a38.64,38.64,0,0,0,38.6-38.6v-149a38.65,38.65,0,0,0-38.6-38.6Z" transform="translate(-129.35 -131.97)"/><path class="a" d="M187.15,302.16a6.15,6.15,0,0,1-4.37-1.49c-1.55-1.48-1.73-3.66-1.72-5.39.1-11.83.09-23.87.07-35.51q0-6.21,0-12.42t0-12.58c0-11.44,0-23.26-.09-34.89,0-1.95.17-4.16,1.75-5.72s3.9-1.74,5.5-1.71c4.79.07,9.67,0,14.39,0,6.22-.09,12.65-.17,19,.06,14.06.51,24.59,5.25,32.21,14.48s10,23.51,6.13,35.88c-3.64,11.77-12.45,20.21-24.79,23.77-7.46,2.15-15.64,2.92-25.72,2.42a5.57,5.57,0,0,0-1.29,0,5.46,5.46,0,0,0-.06,1.2c.12,4.29.1,8.65.08,12.86,0,4,0,8.18.06,12.26,0,1.51-.09,3.71-1.65,5.24s-3.65,1.61-5.32,1.53a130.44,130.44,0,0,0-13.42,0C187.68,302.15,187.42,302.16,187.15,302.16Zm-.68-5.36a4.5,4.5,0,0,0,1.15.05,132.59,132.59,0,0,1,14,0,5.58,5.58,0,0,0,1.34-.06,5,5,0,0,0,.09-1.29c-.11-4.15-.09-8.35-.07-12.42s0-8.48-.08-12.69c0-1.65.1-3.72,1.6-5.19s3.63-1.56,5.31-1.47c9.48.47,17.11-.23,24-2.22,13.55-3.91,19-13.17,21.2-20.24,3.27-10.58,1.15-23.3-5.16-30.95-6.6-8-15.86-12.1-28.31-12.56-6.22-.22-12.58-.14-18.74-.06-4.76.07-9.68.13-14.54.05a3.89,3.89,0,0,0-1.72.2,7.34,7.34,0,0,0-.15,1.89c.12,11.65.1,23.49.08,34.95q0,6.28,0,12.57t0,12.42c0,11.65,0,23.7-.07,35.56A5.87,5.87,0,0,0,186.47,296.8Zm25-46.13c-1,0-1.92,0-2.86,0a5.72,5.72,0,0,1-4.24-1.61,6.24,6.24,0,0,1-1.42-4.51c.09-3.19.07-6.45.05-9.6,0-1.34,0-2.68,0-4V217.06a5.37,5.37,0,0,1,1.29-4.11,4.6,4.6,0,0,1,3.35-1.22c1.49,0,3,0,4.5-.06,4.84-.11,9.84-.23,14.84,1.3,8.14,2.48,12.95,8.78,13.18,17.28.24,8.81-4.24,15.26-12.61,18.16A48.51,48.51,0,0,1,211.47,250.67Zm-3.2-5.36a4,4,0,0,0,.46,0c5.61.13,11.56,0,17.07-1.93,6.19-2.15,9.23-6.53,9.06-13-.18-6.25-3.44-10.53-9.44-12.35-4.18-1.28-8.55-1.18-13.17-1.07-1.29,0-2.63.06-4,.06V230.9c0,1.33,0,2.66,0,4,0,3.2,0,6.5-.05,9.77A3.86,3.86,0,0,0,208.27,245.31Z" transform="translate(-129.35 -131.97)"/><path class="a" d="M298.39,303.91c-.79,0-1.58,0-2.36,0s-1.44,0-2.17,0a54.55,54.55,0,0,1-22-3.41c-2.17-.83-5-2.44-4.9-6.83s.09-9,0-13.58c0-.95,0-3.48,2-4.68s4.17,0,4.89.41c5.64,3.16,12.14,4.31,17.8,5.14a22.38,22.38,0,0,0,9.7-.79c1.12-.33,1.86-.9,2-1.52s-.35-1.48-1.25-2.24c-2.18-1.83-4.95-2.86-7.87-3.94-.67-.24-1.34-.49-2-.75a63.56,63.56,0,0,1-13.52-6.92c-7.56-5.23-11.72-13.24-11.41-22a25.82,25.82,0,0,1,13.06-21.18,35.67,35.67,0,0,1,17.88-4.68c7.25-.14,15-.09,22.5,2.21,3.89,1.18,5.7,3.65,5.51,7.55-.16,3.62-.16,7.22,0,10.71.08,1.62.22,4.65-2,6.14-2,1.34-4.44.49-6.34-.39-5.71-2.67-12.14-3.78-19.65-3.37-3.75.2-4.49.8-4.79,2.17s.14,1.89,3.31,3.55c2.83,1.49,5.77,2.68,8.88,4a81,81,0,0,1,12,5.63,25,25,0,0,1,2.92,41.61c-5,4.06-11,6.32-19.11,7.11C300.37,303.88,299.37,303.91,298.39,303.91Zm-4.64-5.38h.06c.78,0,1.57,0,2.36,0a40.15,40.15,0,0,0,4.68-.06c7-.68,12.16-2.57,16.28-5.94a19.71,19.71,0,0,0-2.33-33,77.12,77.12,0,0,0-11.19-5.25c-3.09-1.25-6.3-2.55-9.36-4.16-2.54-1.34-7.26-3.82-6-9.4,1.31-5.86,7-6.16,9.68-6.3,8.4-.45,15.66.81,22.18,3.86.33.15.61.27.83.35,0-.27,0-.61,0-1.05-.17-3.65-.17-7.42,0-11.21.07-1.34-.1-1.73-1.76-2.24-6.81-2.06-13.75-2.11-20.86-2A30.36,30.36,0,0,0,283,226.16c-6.39,3.76-10.2,9.88-10.45,16.8a20.1,20.1,0,0,0,9.13,17.4,57.79,57.79,0,0,0,12.41,6.34l1.92.72c3.23,1.2,6.56,2.43,9.45,4.85,2.47,2.08,3.57,4.77,3,7.38s-2.62,4.62-5.68,5.52a27.81,27.81,0,0,1-12,.95c-5.79-.85-12.43-2-18.57-5.19.06,4.33.09,8.57,0,12.83,0,.87,0,1.13,1.49,1.72a48.8,48.8,0,0,0,20,3.06Z" transform="translate(-129.35 -131.97)"/></svg>