<svg xmlns="http://www.w3.org/2000/svg" viewBox="0 0 149.64 149.64"><defs><style>.a{fill:#fff;}</style></defs><title>qr-blogger</title><circle class="a" cx="65.75" cy="2.27" r="2.27"/><circle class="a" cx="79.35" cy="2.27" r="2.27"/><path class="a" d="M222.48,183.82a2.27,2.27,0,0,0,2.27-2.27V177a2.27,2.27,0,1,0-4.54,0v2.26h0v2.27A2.27,2.27,0,0,0,222.48,183.82Z" transform="translate(-174.87 -174.75)"/><circle class="a" cx="56.68" cy="6.8" r="2.27"/><path class="a" d="M245.15,183.82h4.54a2.27,2.27,0,0,0,0-4.54h-4.54a2.27,2.27,0,0,0,0,4.54Z" transform="translate(-174.87 -174.75)"/><circle class="a" cx="52.15" cy="11.34" r="2.27"/><path class="a" d="M233.82,188.35h-2.27a2.27,2.27,0,0,0,0,4.54h2.27a4.53,4.53,0,0,0,4.53-4.54v-2.26a2.27,2.27,0,1,0-4.53,0Z" transform="translate(-174.87 -174.75)"/><circle class="a" cx="79.35" cy="11.34" r="2.27"/><path class="a" d="M263.29,188.35a2.27,2.27,0,0,0,2.27-2.26v-2.27h9.07v4.53a4.53,4.53,0,0,0,4.53,4.54v6.8a2.27,2.27,0,1,0,4.53,0v-2.27a4.54,4.54,0,1,0,0-9.07v-9.07H286a2.27,2.27,0,1,0,0-4.53h-2.27a4.53,4.53,0,0,0-4.53,4.53h-13.6a4.54,4.54,0,0,0-4.54,4.54v2.27A2.27,2.27,0,0,0,263.29,188.35Z" transform="translate(-174.87 -174.75)"/><path class="a" d="M220.21,192.89h2.27a2.27,2.27,0,0,0,0-4.54h-2.27v-2.26a2.27,2.27,0,1,0-4.53,0v2.26h0A4.53,4.53,0,0,0,220.21,192.89Z" transform="translate(-174.87 -174.75)"/><circle class="a" cx="38.54" cy="20.4" r="2.27"/><circle class="a" cx="52.15" cy="20.4" r="2.27"/><path class="a" d="M256.49,202v2.26a2.27,2.27,0,1,0,4.53,0V202a4.54,4.54,0,0,0,4.54-4.54h4.53v2.27a2.27,2.27,0,1,0,4.54,0v-2.27a4.53,4.53,0,0,0-4.54-4.53H261a4.53,4.53,0,0,0-4.53,4.53Z" transform="translate(-174.87 -174.75)"/><circle class="a" cx="92.96" cy="29.47" r="2.27"/><circle class="a" cx="102.02" cy="29.47" r="2.27"/><path class="a" d="M283.69,206.49v2.27a2.27,2.27,0,0,0,4.54,0v-4.54a2.27,2.27,0,0,0-4.54,0v2.27Z" transform="translate(-174.87 -174.75)"/><path class="a" d="M204.34,211a2.27,2.27,0,1,0,0,4.53h11.34a4.53,4.53,0,0,0,4.53-4.53h4.54a4.53,4.53,0,0,0,4.53,4.53,4.53,4.53,0,0,0,4.54,4.53v2.27a2.27,2.27,0,1,0,4.53,0v-2.27a4.53,4.53,0,0,0-4.53-4.53V211h9.06v11.33a2.27,2.27,0,1,0,4.54,0V211h6.8a2.27,2.27,0,1,0,0-4.54H252V190.62a2.27,2.27,0,1,0-4.53,0v2.27h-6.8a2.27,2.27,0,1,0,0,4.53h6.8v9.07h-4.54v-2.27a2.27,2.27,0,0,0-4.53,0v2.27h-4.53V202h2.26a2.27,2.27,0,0,0,0-4.54h-2.26a4.54,4.54,0,0,0-4.54,4.54v4.53h-4.53v-6.8a2.27,2.27,0,1,0-4.54,0V202h0v4.53h-4.53v-2.27a2.27,2.27,0,0,0-4.54,0v2.27h0V211h-6.8Z" transform="translate(-174.87 -174.75)"/><circle class="a" cx="129.23" cy="38.54" r="2.27"/><path class="a" d="M199.81,215.56h-4.54a2.27,2.27,0,0,0,0,4.53h4.54a2.27,2.27,0,0,0,0-4.53Z" transform="translate(-174.87 -174.75)"/><circle class="a" cx="79.35" cy="43.08" r="2.27"/><path class="a" d="M283.69,215.56v-2.27a2.27,2.27,0,0,0-4.53,0v2.27h0v6.8a2.27,2.27,0,1,0,4.53,0v-2.27h9.07v4.54a4.53,4.53,0,0,0,4.54,4.53h11.33a2.27,2.27,0,1,0,0-4.53H297.3v-9.07a4.54,4.54,0,0,0-9.07,0Z" transform="translate(-174.87 -174.75)"/><circle class="a" cx="133.76" cy="43.08" r="2.27"/><path class="a" d="M322.24,215.56a2.26,2.26,0,0,0-2.27,2.27v2.26h-6.8a2.27,2.27,0,0,0,0,4.54H320v2.27a2.27,2.27,0,0,0,4.53,0v-9.07A2.26,2.26,0,0,0,322.24,215.56Z" transform="translate(-174.87 -174.75)"/><circle class="a" cx="29.47" cy="47.61" r="2.27"/><path class="a" d="M258.75,220.09a2.27,2.27,0,0,0,0,4.54H261a4.54,4.54,0,0,0,4.54-4.54h4.53a4.53,4.53,0,0,0,4.54-4.53v-2.27a2.27,2.27,0,0,0-4.54,0v2.27h-4.53A4.53,4.53,0,0,0,261,211h-2.27a2.27,2.27,0,0,0,0,4.53H261v4.53Z" transform="translate(-174.87 -174.75)"/><path class="a" d="M222.48,233.7a2.27,2.27,0,0,0,2.27-2.27v-2.27a4.53,4.53,0,0,0-4.54-4.53,4.53,4.53,0,0,0-4.53-4.54h-2.27a2.27,2.27,0,0,0,0,4.54h2.27a4.53,4.53,0,0,0,4.53,4.53v2.27A2.27,2.27,0,0,0,222.48,233.7Z" transform="translate(-174.87 -174.75)"/><path class="a" d="M288.23,233.7h2.27a2.27,2.27,0,0,0,0-4.54h-2.27V226.9a2.27,2.27,0,0,0-4.54,0v2.26h0A4.54,4.54,0,0,0,288.23,233.7Z" transform="translate(-174.87 -174.75)"/><path class="a" d="M179.4,238.23a4.54,4.54,0,0,0,4.54,4.54v6.8a2.27,2.27,0,0,0,4.53,0V247.3h2.27a2.27,2.27,0,1,0,0-4.53h-2.27a4.53,4.53,0,0,0-4.53-4.54V233.7H193V236a2.27,2.27,0,1,0,4.53,0V233.7a4.53,4.53,0,0,0-4.53-4.54,4.53,4.53,0,0,0-4.54-4.53h-4.53v-4.54a4.53,4.53,0,0,0,4.53-4.53h2.27a2.27,2.27,0,1,0,0-4.53h-2.27a4.53,4.53,0,0,0-4.53,4.53,4.53,4.53,0,0,0-4.54,4.53,4.53,4.53,0,0,0-4.53,4.54v9.07A4.53,4.53,0,0,0,179.4,238.23Z" transform="translate(-174.87 -174.75)"/><path class="a" d="M208.88,238.23a2.26,2.26,0,0,0,2.26-2.27V226.9a2.27,2.27,0,1,0-4.53,0v2.26h-2.27a2.27,2.27,0,0,0,0,4.54h2.27V236A2.26,2.26,0,0,0,208.88,238.23Z" transform="translate(-174.87 -174.75)"/><circle class="a" cx="102.02" cy="61.21" r="2.27"/><circle class="a" cx="138.3" cy="61.21" r="2.27"/><circle class="a" cx="29.47" cy="65.75" r="2.27"/><circle class="a" cx="115.63" cy="65.75" r="2.27"/><path class="a" d="M306.37,242.77h2.26a2.27,2.27,0,0,0,0-4.54h-6.8a4.53,4.53,0,0,0-4.53,4.54v4.53H286a2.27,2.27,0,1,0,0,4.53h2.27v4.54a4.54,4.54,0,0,0,9.07,0h4.53v2.27a2.27,2.27,0,0,0,4.54,0v-6.81h2.26a2.27,2.27,0,1,0,0-4.53h-6.8v-4.53Z" transform="translate(-174.87 -174.75)"/><circle class="a" cx="34.01" cy="70.28" r="2.27"/><path class="a" d="M274.63,245a2.27,2.27,0,0,0,2.26,2.27h4.54a2.27,2.27,0,0,0,0-4.53h-4.54A2.26,2.26,0,0,0,274.63,245Z" transform="translate(-174.87 -174.75)"/><path class="a" d="M322.24,242.77h-9.07a2.27,2.27,0,1,0,0,4.53h9.07a2.27,2.27,0,0,0,0-4.53Z" transform="translate(-174.87 -174.75)"/><path class="a" d="M199.81,251.83h4.53a2.27,2.27,0,1,0,0-4.53h-4.53a2.27,2.27,0,1,0,0,4.53Z" transform="translate(-174.87 -174.75)"/><circle class="a" cx="38.54" cy="74.82" r="2.27"/><circle class="a" cx="6.8" cy="79.35" r="2.27"/><path class="a" d="M281.43,256.37a2.27,2.27,0,0,0,0-4.54h-4.54a2.27,2.27,0,0,0,0,4.54h4.54Z" transform="translate(-174.87 -174.75)"/><path class="a" d="M322.24,251.83h-6.81a4.54,4.54,0,0,0,0,9.07v2.27a2.27,2.27,0,1,0,4.54,0v-6.8h2.27a2.27,2.27,0,0,0,0-4.54Z" transform="translate(-174.87 -174.75)"/><path class="a" d="M179.4,267.71a2.27,2.27,0,0,0,4.54,0v-2.27h4.53A4.54,4.54,0,0,0,193,260.9v-4.53h2.26a2.27,2.27,0,1,0,0-4.54H193a4.54,4.54,0,0,0-4.54,4.54,4.53,4.53,0,0,0-4.53,4.53,4.54,4.54,0,0,0-4.54,4.54Z" transform="translate(-174.87 -174.75)"/><path class="a" d="M220.21,238.23V236a2.27,2.27,0,1,0-4.54,0v2.26a4.54,4.54,0,0,0,4.54,4.53v9.08h-2.27a2.27,2.27,0,1,0,0,4.53h2.27v4.53h-4.54a4.53,4.53,0,0,0-4.52,4.54h-9.08V260.9h6.81a2.27,2.27,0,1,0,0-4.53h-6.81a4.53,4.53,0,0,0-4.53,4.53v4.54A4.53,4.53,0,0,0,193,270a4.54,4.54,0,0,0-4.54,4.54V279h-6.8a2.27,2.27,0,0,0,0,4.54h2.26v2.26a2.27,2.27,0,0,0,4.54,0v-2.26H193v2.26a2.27,2.27,0,1,0,4.53,0v-2.26a4.53,4.53,0,0,0,4.53-4.54h2.27a2.27,2.27,0,1,0,0-4.53h-2.27V270h9.08a4.52,4.52,0,0,0,4.52-4.53h4.54v2.27a2.27,2.27,0,0,0,4.54,0V242.76A4.53,4.53,0,0,0,220.21,238.23ZM197.54,279H193v-4.53h4.53Z" transform="translate(-174.87 -174.75)"/><path class="a" d="M297.3,265.44H295a2.27,2.27,0,1,0,0,4.53h4.53a2.27,2.27,0,1,0,0-4.53Z" transform="translate(-174.87 -174.75)"/><path class="a" d="M322.24,265.44a2.27,2.27,0,0,0-2.27,2.27v6.8a4.54,4.54,0,0,0-4.54,4.53v13.6h-9.06v-9.06A4.53,4.53,0,0,0,310.9,279v-4.53a4.54,4.54,0,1,0-4.53-4.54V279h-4.54a4.53,4.53,0,0,0-4.54-4.53H295a2.27,2.27,0,0,0,0,4.53h2.26v4.54h-4.52v-2.27a2.27,2.27,0,1,0-4.54,0v2.27a4.52,4.52,0,0,0-4.54,4.53v4.53a4.54,4.54,0,0,0-4.53,4.54v4.53a4.53,4.53,0,0,0-4.53,4.54h-2.27a2.27,2.27,0,1,0,0,4.53h2.27v4.54a4.53,4.53,0,0,0,4.53,4.53v2.27a2.27,2.27,0,1,0,4.53,0v-2.27H286a2.27,2.27,0,1,0,0-4.53h-2.27v-4.54a4.53,4.53,0,0,0,4.54-4.53h9.06v2.26a2.27,2.27,0,0,0,4.54,0v-2.26a4.54,4.54,0,0,0,4.54-4.54h4.53v4.54h-2.26a2.27,2.27,0,1,0,0,4.53h2.26a4.53,4.53,0,0,0,4.53-4.53,4.54,4.54,0,0,0,4.54-4.54h2.27a2.27,2.27,0,1,0,0-4.53H320v-9.07h2.27a2.27,2.27,0,1,0,0-4.53H320V279a4.53,4.53,0,0,0,4.54-4.53v-6.8A2.27,2.27,0,0,0,322.24,265.44Zm-20.41,36.27h-13.6v-13.6h13.6Z" transform="translate(-174.87 -174.75)"/><circle class="a" cx="2.27" cy="97.49" r="2.27"/><path class="a" d="M267.82,279h4.54a2.27,2.27,0,1,0,0-4.53h-4.54a2.27,2.27,0,0,0,0,4.53Z" transform="translate(-174.87 -174.75)"/><path class="a" d="M281.43,279h2.26a4.53,4.53,0,0,0,4.54-4.53v-6.8a2.27,2.27,0,0,0-4.54,0V270h0v4.54h-2.26a2.27,2.27,0,1,0,0,4.53Z" transform="translate(-174.87 -174.75)"/><path class="a" d="M249.69,283.58a2.27,2.27,0,0,0,0-4.54h-2.27v-2.27a2.27,2.27,0,0,0-4.54,0V279h-2.26a2.27,2.27,0,0,0,0,4.54h9.07Z" transform="translate(-174.87 -174.75)"/><path class="a" d="M261,279a4.53,4.53,0,0,0-4.53-4.53h-2.27a2.27,2.27,0,1,0,0,4.53h2.27a4.53,4.53,0,0,0,4.53,4.54h2.27a2.27,2.27,0,0,0,0-4.54Z" transform="translate(-174.87 -174.75)"/><circle class="a" cx="2.27" cy="111.09" r="2.27"/><circle class="a" cx="29.47" cy="111.09" r="2.27"/><path class="a" d="M227,288.11a2.27,2.27,0,1,0,0-4.53h-2.26V279h11.33a2.27,2.27,0,1,0,0-4.53H220.21v-2.27a2.27,2.27,0,1,0-4.53,0v2.27h0a4.53,4.53,0,0,0-4.54,4.53v2.27a2.27,2.27,0,1,0,4.54,0V279h4.53v9.07h-4.53a4.53,4.53,0,0,0-4.54,4.53v2.27a2.27,2.27,0,1,0,4.54,0v-2.27h4.53a4.53,4.53,0,0,0,4.54-4.53Z" transform="translate(-174.87 -174.75)"/><circle class="a" cx="102.02" cy="111.09" r="2.27"/><circle class="a" cx="56.68" cy="115.63" r="2.27"/><circle class="a" cx="52.15" cy="120.16" r="2.27"/><path class="a" d="M297.29,294.91a2.26,2.26,0,1,1-2.26-2.27A2.26,2.26,0,0,1,297.29,294.91Z" transform="translate(-174.87 -174.75)"/><path class="a" d="M220.21,297.18H218a2.27,2.27,0,1,0,0,4.53h4.53a2.27,2.27,0,1,0,0-4.53Z" transform="translate(-174.87 -174.75)"/><path class="a" d="M270.09,297.18a4.54,4.54,0,1,0-4.53-4.54H261a4.53,4.53,0,0,0-4.53-4.53v-2.27a2.27,2.27,0,0,0-4.54,0v2.27h0a4.53,4.53,0,0,0-4.53,4.53v2.27a2.27,2.27,0,1,0,4.53,0v-2.27h4.54a4.53,4.53,0,0,0,4.53,4.54,4.54,4.54,0,0,0,9.07,0Z" transform="translate(-174.87 -174.75)"/><path class="a" d="M256.49,301.71v-2.26a2.27,2.27,0,0,0-4.54,0v2.26h0a4.53,4.53,0,0,0-4.53,4.54v2.26a2.27,2.27,0,1,0,4.53,0v-2.26h4.54v2.26a2.27,2.27,0,1,0,4.53,0v-2.26A4.53,4.53,0,0,0,256.49,301.71Z" transform="translate(-174.87 -174.75)"/><path class="a" d="M229.28,310.78a4.53,4.53,0,0,0-4.53-4.53h-9.07a4.53,4.53,0,0,0-4.54,4.53v2.27a2.27,2.27,0,1,0,4.54,0v-2.27h9.07v2.27a2.27,2.27,0,1,0,4.53,0Z" transform="translate(-174.87 -174.75)"/><path class="a" d="M233.82,313.05a2.27,2.27,0,1,0,4.53,0V301.71h6.8a2.27,2.27,0,1,0,0-4.53h-6.8a4.53,4.53,0,0,0-4.53,4.53h-2.27a2.27,2.27,0,0,0,0,4.54h2.27v6.8Z" transform="translate(-174.87 -174.75)"/><circle class="a" cx="70.28" cy="138.3" r="2.27"/><path class="a" d="M295,310.78H290.5a2.27,2.27,0,0,0,0,4.54H295a2.27,2.27,0,0,0,0-4.54Z" transform="translate(-174.87 -174.75)"/><circle class="a" cx="43.08" cy="142.83" r="2.27"/><circle class="a" cx="56.68" cy="142.83" r="2.27"/><circle class="a" cx="138.3" cy="142.83" r="2.27"/><circle class="a" cx="147.37" cy="142.83" r="2.27"/><circle class="a" cx="47.61" cy="147.37" r="2.27"/><path class="a" d="M245.15,319.85h-2.27v-2.27a2.27,2.27,0,0,0-4.53,0v2.27h-2.27a2.27,2.27,0,0,0,0,4.54h9.07a2.27,2.27,0,0,0,0-4.54Z" transform="translate(-174.87 -174.75)"/><circle class="a" cx="83.89" cy="147.37" r="2.27"/><path class="a" d="M272.36,319.85h-2.27v-6.8a2.27,2.27,0,1,0-4.53,0v2.27h0v4.53a4.53,4.53,0,0,0,4.53,4.54h2.27a2.27,2.27,0,0,0,0-4.54Z" transform="translate(-174.87 -174.75)"/><circle class="a" cx="115.63" cy="147.37" r="2.27"/><path class="a" d="M304.1,319.85h-4.54a2.27,2.27,0,0,0,0,4.54h4.54a2.27,2.27,0,0,0,0-4.54Z" transform="translate(-174.87 -174.75)"/><path class="a" d="M195.78,174.75H185.7a10.79,10.79,0,0,0-10.83,10.72v10.3a10.79,10.79,0,0,0,10.83,10.71h20.91v-21A10.79,10.79,0,0,0,195.78,174.75Zm6.07,27H185.7a6,6,0,0,1-6.07-6v-10.3a6,6,0,0,1,6.07-6h10.08a6,6,0,0,1,6.07,6Z" transform="translate(-174.87 -174.75)"/><path class="a" d="M313.66,174.75H303.6a10.78,10.78,0,0,0-10.83,10.72v21h20.89a10.79,10.79,0,0,0,10.85-10.71v-10.3A10.79,10.79,0,0,0,313.66,174.75Zm6.08,21a6,6,0,0,1-6.08,6H297.52V185.47a6,6,0,0,1,6.08-6h10.06a6,6,0,0,1,6.08,6Z" transform="translate(-174.87 -174.75)"/><path class="a" d="M185.7,292.65a10.79,10.79,0,0,0-10.83,10.71v10.32a10.79,10.79,0,0,0,10.83,10.71h10.08a10.79,10.79,0,0,0,10.83-10.71v-21Zm16.15,21a6,6,0,0,1-6.07,5.94H185.7a6,6,0,0,1-6.07-5.94V303.36a6,6,0,0,1,6.07-5.95h16.15Z" transform="translate(-174.87 -174.75)"/><path class="a" d="M265.67,245h-1.52a2.29,2.29,0,0,1-2.28-2.28,11.43,11.43,0,0,0-11.43-11.42h-7.61a11.43,11.43,0,0,0-11.43,11.42v13.71a11.44,11.44,0,0,0,11.43,11.44h13.72A11.44,11.44,0,0,0,268,256.42v-9.13A2.29,2.29,0,0,0,265.67,245Zm-22.84-4.58H252a2.28,2.28,0,1,1,0,4.56h-9.14a2.28,2.28,0,1,1,0-4.56Zm13.7,18.28H242.81a2.28,2.28,0,0,1,0-4.56h13.72a2.28,2.28,0,1,1,0,4.56Z" transform="translate(-174.87 -174.75)"/><path class="a" d="M301.85,197.41c0-.25,0-.44,0-.62,0-3.06,0-6.13,0-9.19a3.6,3.6,0,0,1,1.23-2.8,3.48,3.48,0,0,1,2.35-1c2.15,0,4.3,0,6.45,0a3.66,3.66,0,0,1,3.57,3.61c0,1,0,2.06,0,3.08s0,2.15,0,3.23a3.67,3.67,0,0,1-2.66,3.48,4.27,4.27,0,0,1-1.18.18h-9.32A4,4,0,0,1,301.85,197.41Z" transform="translate(-174.87 -174.75)"/><path class="a" d="M197.59,301.8v.78c0,2.94,0,5.89,0,8.83a5.24,5.24,0,0,1-.09,1.12,3.65,3.65,0,0,1-3.49,2.83c-1.56,0-3.13,0-4.69,0H187.7a3.72,3.72,0,0,1-3.71-3.71c0-.49,0-1,0-1.47,0-1.49,0-3,0-4.49a4,4,0,0,1,.2-1.37,3.71,3.71,0,0,1,3.37-2.55c.21,0,.42,0,.63,0h8.63Z" transform="translate(-174.87 -174.75)"/><path class="a" d="M197.49,197.48l-.68,0c-2.94,0-5.89,0-8.83,0a5,5,0,0,1-1.39-.18,3.68,3.68,0,0,1-2.67-3.41v-6a5.46,5.46,0,0,1,0-.7,3.7,3.7,0,0,1,3.7-3.34c2.08,0,4.16,0,6.24,0a3.71,3.71,0,0,1,3.55,2.85,3.29,3.29,0,0,1,.09.76q0,4.77,0,9.54C197.53,197.17,197.51,197.29,197.49,197.48Z" transform="translate(-174.87 -174.75)"/></svg>