<svg xmlns="http://www.w3.org/2000/svg" viewBox="0 0 149.68 149.73"><defs><style>.a{fill:#fff;}</style></defs><title>qr-dribbble</title><path class="a" d="M288.92,274.54a33.35,33.35,0,0,0,0,4.47c.14,0,.3.05.45.05h2.46a1.5,1.5,0,0,1,1.13.48,1.49,1.49,0,0,1,.42,1.08c0,.73,0,1.45,0,2.18,0,.23,0,.46,0,.71a4,4,0,0,0,1.14.06h2.17a4.67,4.67,0,0,0,1.12,0c0-.08.07-.14.07-.21,0-1.31,0-2.62,0-3.93a1.51,1.51,0,0,0-.06-.31l-.7,0H295a1.53,1.53,0,0,1-1-.33,1.5,1.5,0,0,1-.61-1.2c0-.49,0-1,0-1.48a1.53,1.53,0,0,1,1.52-1.52h10.18a5.15,5.15,0,0,1,.56,0,1.5,1.5,0,0,1,1.33,1.4c0,.24,0,.47,0,.71q0,7.55,0,15.09a2.9,2.9,0,0,0,.06.87l.48.05H310a1.46,1.46,0,0,1,1.26.64,1.33,1.33,0,0,1,.28.78c0,.54,0,1.08,0,1.62a1.51,1.51,0,0,1-1.56,1.48h-2.17l-.73,0c0,.17-.06.3-.07.43v1.27q0,7.13,0,14.25c0,.18,0,.37,0,.56a1.55,1.55,0,0,1-1.57,1.61c-.75,0-1.5,0-2.25,0-.21,0-.41,0-.61,0a.7.7,0,0,0-.08.23v4a1.11,1.11,0,0,0,.07.23c.2,0,.41,0,.61,0h1.9a5.33,5.33,0,0,1,.56,0,1.5,1.5,0,0,1,1.37,1.44q0,.81,0,1.62a1.52,1.52,0,0,1-1.37,1.45,5.15,5.15,0,0,1-.56,0h-5.2a3.54,3.54,0,0,1-.56,0A1.52,1.52,0,0,1,298,323a5.23,5.23,0,0,1,0-.56q0-4.85,0-9.69c0-.16,0-.33,0-.49a1.54,1.54,0,0,1,1.51-1.46h2.24l.73,0a9.34,9.34,0,0,0,0-1.49c0-.46,0-.93,0-1.4v-1.5a2.66,2.66,0,0,0-.42-.09,4,4,0,0,0-.49,0H289.76a2.79,2.79,0,0,0-.82.05,33.21,33.21,0,0,0,0,4.4,2.32,2.32,0,0,0,.46.07h2.45a1.52,1.52,0,0,1,1.14.47,1.42,1.42,0,0,1,.43.93c0,.17,0,.33,0,.49V318c0,.16,0,.33,0,.49a1.46,1.46,0,0,1-1.34,1.39,11.76,11.76,0,0,1-1.33,0l-1.61,0a.74.74,0,0,0-.18.06c0,.13-.05.29-.05.45,0,.77,0,1.54,0,2.31a1.63,1.63,0,0,1-1.71,1.71c-3.39,0-6.79,0-10.18,0a2,2,0,0,1-.69-.11,1.39,1.39,0,0,1-1-1.23,9.94,9.94,0,0,1,0-1.89,1.45,1.45,0,0,1,1.3-1.28,4.91,4.91,0,0,1,.77,0h2.1a1.48,1.48,0,0,0,.24-.05,1.55,1.55,0,0,0,.07-.31c0-1.27,0-2.53,0-3.79a2.14,2.14,0,0,0,0-.32,4,4,0,0,0-.47-.06H277a2.25,2.25,0,0,1-.69-.08,1.5,1.5,0,0,1-1.06-1.35c0-.21,0-.42,0-.64V302.59c0-.25,0-.51,0-.79a3.83,3.83,0,0,0-.51-.07c-.78,0-1.55,0-2.32,0a1.88,1.88,0,0,1-.75-.12,1.41,1.41,0,0,1-.93-1.29c0-.54,0-1.08,0-1.62a1.55,1.55,0,0,1,1.49-1.49h3a3.37,3.37,0,0,0,.06-.5c0-.77,0-1.55,0-2.32a1.74,1.74,0,0,1,.11-.68,1.43,1.43,0,0,1,1.31-1h6.81a2,2,0,0,0,.8-.07,10.21,10.21,0,0,0,0-1.46c0-.49,0-1,0-1.47s0-1,0-1.5l-.68,0h-1.9a4.43,4.43,0,0,1-.63,0,1.42,1.42,0,0,1-1.25-1.16,6,6,0,0,1,0-2.16,1.49,1.49,0,0,1,1.47-1.19c.72,0,1.45,0,2.18,0a2.27,2.27,0,0,0,.74-.05,28.66,28.66,0,0,0,0-4.39,3,3,0,0,0-.45-.07h-2.38a1.64,1.64,0,0,1-.94-.25,1.46,1.46,0,0,1-.67-.95,3.93,3.93,0,0,1-.06-.69c0-1.76,0-3.51,0-5.27,0-.14,0-.28,0-.42a1.57,1.57,0,0,1,1.56-1.5c.44,0,.89,0,1.33,0h1.58a3.63,3.63,0,0,0,.07-.51c0-.81,0-1.63,0-2.45a1.49,1.49,0,0,1,.42-1.08,1.44,1.44,0,0,1,1.06-.48c.49,0,1,0,1.48,0a1.57,1.57,0,0,1,1.57,1.55c0,.72,0,1.45,0,2.17,0,.23,0,.46,0,.74a3.65,3.65,0,0,0,.42.05h2.18a5.12,5.12,0,0,1,.56,0,1.53,1.53,0,0,1,1.34,1.48c0,.51,0,1,0,1.54a1.53,1.53,0,0,1-1.33,1.49,5.12,5.12,0,0,1-.56,0h-2.55Zm13.48,13.67a1.79,1.79,0,0,0-.85-.08H289.76a4,4,0,0,0-.49,0,2.66,2.66,0,0,0-.42.09c0,4.41,0,8.78,0,13.15a1.86,1.86,0,0,0,.05.28,2.72,2.72,0,0,0,.85,0h11.78a4,4,0,0,0,.49,0c.13,0,.26-.05.43-.08,0-4.41,0-8.78,0-13.15A2,2,0,0,0,302.4,288.21Zm-18.14,22.5a.55.55,0,0,0,.06-.18V297.47a1.12,1.12,0,0,0-.08-.25c-.71-.05-1.43,0-2.15,0a20.75,20.75,0,0,0-2.23,0,2.13,2.13,0,0,0-.08.86q0,5.47,0,10.95c0,.44,0,.89,0,1.33a2.34,2.34,0,0,0,.09.38A32.51,32.51,0,0,0,284.26,310.71Z" transform="translate(-175.45 -174.75)"/><path class="a" d="M216.27,310.84c0-.3,0-.51,0-.72,0-.68,0-1.35,0-2a2.66,2.66,0,0,1,.08-.69,1.47,1.47,0,0,1,1.33-1.08c.21,0,.42,0,.63,0h10.74a1.9,1.9,0,0,0,.75-.06,37.83,37.83,0,0,0,0-4.4,1.43,1.43,0,0,0-.37-.08H216.39a3.66,3.66,0,0,0-.08.5c0,.68,0,1.36,0,2,0,.18,0,.37,0,.56a1.43,1.43,0,0,1-1.26,1.39,9.77,9.77,0,0,1-1.95,0,1.43,1.43,0,0,1-1.3-1.43c0-2,0-4.07,0-6.11a1.5,1.5,0,0,1,1.55-1.49c.72,0,1.45,0,2.18,0l.73,0a3.65,3.65,0,0,0,0-.42c0-.72,0-1.45,0-2.18a3.54,3.54,0,0,1,0-.56,1.52,1.52,0,0,1,1.48-1.33h1.48a1.52,1.52,0,0,1,1.57,1.54c0,.47,0,.94,0,1.41s0,1,0,1.49a2.72,2.72,0,0,0,.43.07h8.14l.38,0a2,2,0,0,0,.08-.4c0-.77,0-1.54,0-2.32a2.67,2.67,0,0,1,.11-.75,1.42,1.42,0,0,1,1.31-1,14.6,14.6,0,0,1,1.75,0,1.46,1.46,0,0,1,1.34,1.23,3.51,3.51,0,0,1,0,.56c0,.63,0,1.26,0,1.9,0,.23,0,.46,0,.72a2.55,2.55,0,0,0,.42.08c1.22,0,2.44,0,3.65,0l.37,0a5.14,5.14,0,0,0,.08-1.46c0-.49,0-1,0-1.48s0-1,0-1.49c-.22,0-.4-.05-.58-.05h-2.24a1.69,1.69,0,0,1-.94-.24,1.53,1.53,0,0,1-.75-1.35v-2.17c0-.23,0-.46,0-.73-.2,0-.36,0-.51,0h-2l-.63,0a1.49,1.49,0,0,1-1.37-1.37,11.36,11.36,0,0,1,0-1.75,1.53,1.53,0,0,1,1.58-1.4c.72,0,1.45,0,2.17,0l.72,0c0-.22.05-.4.05-.58,0-.68,0-1.36,0-2a3.33,3.33,0,0,1,0-.63,1.46,1.46,0,0,1,1.34-1.22,14.76,14.76,0,0,1,1.76,0,1.49,1.49,0,0,1,1.38,1.35,4.42,4.42,0,0,1,0,.63q0,3.09,0,6.18c0,.25,0,.51,0,.8a2.2,2.2,0,0,0,.41.07h2a5.23,5.23,0,0,1,.56,0,1.54,1.54,0,0,1,1.49,1.56v.49q0,7,0,14c0,.19,0,.38,0,.56a1.5,1.5,0,0,1-1.35,1.47,11.06,11.06,0,0,1-1.82,0A1.47,1.47,0,0,1,239,304.8c0-.75,0-1.5,0-2.24,0-.23,0-.47,0-.71a1,1,0,0,0-.29-.09h-3.93a.89.89,0,0,0-.2.06,1.21,1.21,0,0,0-.1.75v6c0,.57,0,1.13,0,1.69a4.1,4.1,0,0,0,.06.57l.72,0c.73,0,1.45,0,2.18,0a1.54,1.54,0,0,1,1.58,1.54c0,.19,0,.37,0,.56V319c0,.25,0,.5,0,.77a2,2,0,0,0,.79.08H246a5.46,5.46,0,0,1,.7,0A1.47,1.47,0,0,1,248,321.3c0,.56,0,1.12,0,1.68a1.55,1.55,0,0,1-1.39,1.44,5.19,5.19,0,0,1-.56,0l-27.8,0h-.49a1.55,1.55,0,0,1-1.48-1.43,11.77,11.77,0,0,1,0-1.68,1.54,1.54,0,0,1,1.54-1.43c.75,0,1.5,0,2.25,0,.23,0,.47.06.72-.14,0-.19,0-.42,0-.65v-2.18a1.47,1.47,0,0,1,.46-1.13,1.55,1.55,0,0,1,1-.44h6.74l.8,0c.06-.53,0-1,0-1.5s0-.93,0-1.4v-1.5a2.65,2.65,0,0,0-.43-.08h-8.21c-.11,0-.22,0-.37,0,0,.24,0,.44,0,.65,0,.68,0,1.36,0,2a2.64,2.64,0,0,1-.06.63,1.48,1.48,0,0,1-1.33,1.16,4,4,0,0,1-.49,0h-5.76A1.5,1.5,0,0,1,211.8,314a13.61,13.61,0,0,1,0-1.69,1.5,1.5,0,0,1,1.46-1.43c.68,0,1.36,0,2,0Z" transform="translate(-175.45 -174.75)"/><path class="a" d="M252.51,211c0-.31,0-.54,0-.77,0-.7,0-1.41,0-2.11a1.6,1.6,0,0,1,1.66-1.62c.7,0,1.4,0,2.1,0l.65,0,.08-.1a.14.14,0,0,0,0-.06c0-2.65,0-5.29,0-7.93,0-.24,0-.47,0-.71,0,0,0-.08-.07-.17a3.33,3.33,0,0,0-.37-.05h-2.17a3.28,3.28,0,0,1-.63,0,1.5,1.5,0,0,1-1.26-1.4c0-.21,0-.42,0-.63q0-3.09,0-6.18a1.68,1.68,0,0,0-.08-.79l-.61,0h-2.18a1.55,1.55,0,0,1-1.67-1.66c0-.45,0-.89,0-1.33a1.57,1.57,0,0,1,.84-1.37,1.83,1.83,0,0,1,.89-.16h3.37c.77,0,1.55,0,2.32,0a1.63,1.63,0,0,1,1.67,1.67c0,2.18,0,4.36,0,6.53,0,.25,0,.51,0,.8.19,0,.35,0,.5,0h2.18a3.17,3.17,0,0,1,.69.08,1.45,1.45,0,0,1,1.11,1.37c0,.21,0,.42,0,.63q0,5.34,0,10.67c0,.26,0,.51,0,.79a4.44,4.44,0,0,0,1.14.06h2.17a6.48,6.48,0,0,0,1.15-.05c0-.23,0-.43,0-.64,0-.65,0-1.31,0-2a3.33,3.33,0,0,1,0-.63,1.46,1.46,0,0,1,1.28-1.22,13.25,13.25,0,0,1,1.89,0,1.5,1.5,0,0,1,1.33,1.49c0,.75,0,1.5,0,2.25,0,.23,0,.45,0,.7a2.64,2.64,0,0,0,.3,0h4.11a3.2,3.2,0,0,0,.07-.49c0-.77,0-1.55,0-2.32a2.11,2.11,0,0,1,.12-.75,1.4,1.4,0,0,1,1.29-.94,12.78,12.78,0,0,1,1.75,0,1.47,1.47,0,0,1,1.34,1.31,5.25,5.25,0,0,1,0,.56c0,.68,0,1.36,0,2a4.4,4.4,0,0,0,.06.58h.73c.68,0,1.36,0,2,0a1.62,1.62,0,0,1,1.72,1.71c0,.32,0,.65,0,1a1.66,1.66,0,0,1-1.84,1.87c-1,0-1.92,0-2.88,0H276l-.73,0c0,.19-.06.35-.06.5,0,.78,0,1.55,0,2.32a1.62,1.62,0,0,1-1.71,1.71c-.4,0-.8,0-1.2,0a1.6,1.6,0,0,1-1.63-1.64c0-.73,0-1.45,0-2.18,0-.2,0-.41,0-.64a3.07,3.07,0,0,0-1.12-.08c-.38,0-.75,0-1.13,0h-1.05a4.91,4.91,0,0,0-1.14.05,17,17,0,0,0-.05,2.25c0,.74,0,1.49,0,2.24s0,1.45,0,2.18,0,1.49,0,2.21a1,1,0,0,0,.72.12h6.32a5.23,5.23,0,0,1,.56,0,1.51,1.51,0,0,1,1.43,1.46c0,.54,0,1.08,0,1.61a1.54,1.54,0,0,1-1.45,1.45H254a1.5,1.5,0,0,1-1.41-1.4c0-.56,0-1.13,0-1.69a1.48,1.48,0,0,1,1.46-1.42c.73,0,1.45,0,2.18,0h.8a3.63,3.63,0,0,0,.07-.51v-2.46a1.55,1.55,0,0,1,1.63-1.55h2.1l.72,0a4,4,0,0,0,.07-1.13c0-.38,0-.75,0-1.13v-1a7.37,7.37,0,0,0,0-1.14,4.26,4.26,0,0,0-1.12-.06h-2.18a4.93,4.93,0,0,0-1.14.06c0,.23,0,.44,0,.64V214a1.51,1.51,0,0,1-.86,1.42,2.22,2.22,0,0,1-.82.17c-.67,0-1.35,0-2,0h-.73a2.55,2.55,0,0,0-.08.42v2.11a4,4,0,0,1,0,.49,1.53,1.53,0,0,1-1.55,1.49c-.73,0-1.45,0-2.18,0h-.73a3.66,3.66,0,0,0-.08.5c0,.77,0,1.54,0,2.32a1.87,1.87,0,0,1-.11.75,1.39,1.39,0,0,1-1.28.94c-.54,0-1.08,0-1.61,0a1.55,1.55,0,0,1-1.52-1.53c0-.68,0-1.36,0-2,0-.27,0-.55,0-.85a1,1,0,0,0-.28-.1h-4a.88.88,0,0,0-.17.06,2.92,2.92,0,0,0-.06.44c0,.75,0,1.5,0,2.25a2.66,2.66,0,0,1-.08.69,1.44,1.44,0,0,1-1.34,1.06,15.69,15.69,0,0,1-1.68,0,1.46,1.46,0,0,1-1.41-1.32,5.12,5.12,0,0,1,0-.56V221c0-.24,0-.47,0-.74-.19,0-.34-.07-.5-.07-.77,0-1.54,0-2.31,0a1.62,1.62,0,0,1-1.72-1.71c0-.42,0-.84,0-1.26a1.55,1.55,0,0,1,1.55-1.57h15.66a3.18,3.18,0,0,0,.86-.05,3.39,3.39,0,0,0,.06-.41V213c0-.16,0-.33,0-.49a1.55,1.55,0,0,1,1.5-1.47h.56c.61,0,1.22,0,1.83,0C252.07,211.07,252.26,211,252.51,211Z" transform="translate(-175.45 -174.75)"/><path class="a" d="M193.62,247.46a37,37,0,0,0-4.47,0,16.27,16.27,0,0,0-.05,2.21,18.09,18.09,0,0,0,0,2.2c.18,0,.34,0,.5,0h2.52a1.53,1.53,0,0,1,1.45,1.45c0,.52,0,1,0,1.55a1.53,1.53,0,0,1-1.52,1.52h-2.24a1.41,1.41,0,0,0-.7.08,1.28,1.28,0,0,0,0,.27c0,1.31,0,2.62,0,3.93a.83.83,0,0,0,.08.24l.68,0h2.18a1.5,1.5,0,0,1,1.08.42,1.55,1.55,0,0,1,.48,1c0,.14,0,.28,0,.42v5.41a3,3,0,0,1,0,.42,1.53,1.53,0,0,1-1.43,1.39H177a1.53,1.53,0,0,1-1.46-1.43V267a1.55,1.55,0,0,1,1.49-1.48h2.24c.23,0,.46,0,.68,0a1,1,0,0,0,.11-.7v-6.32c0-.19,0-.38,0-.56a1.51,1.51,0,0,1,1.24-1.42,3.35,3.35,0,0,1,.63-.05h2c.18,0,.36,0,.59,0,0-.29,0-.54,0-.8V244.93c0-.21,0-.43,0-.64a1.53,1.53,0,0,1,1.46-1.43c.78,0,1.55,0,2.32,0a1.18,1.18,0,0,0,.72-.12c0-.16,0-.34,0-.52.08-5.61,0-16.74-.09-17.44a3.06,3.06,0,0,0-.45-.06c-.77,0-1.54,0-2.31,0a2.12,2.12,0,0,1-.76-.11,1.48,1.48,0,0,1-.94-1.37,13.19,13.19,0,0,1,0-1.54,1.53,1.53,0,0,1,1.55-1.49c.73,0,1.45,0,2.18,0H189a3.63,3.63,0,0,0,.07-.51c0-.7,0-1.4,0-2.1a4.36,4.36,0,0,1,0-.63,1.45,1.45,0,0,1,1.31-1.26,15.8,15.8,0,0,1,1.82,0,1.5,1.5,0,0,1,1.36,1.39,5.19,5.19,0,0,1,0,.56q0,3.12,0,6.24c0,.26,0,.51,0,.8a5,5,0,0,0,.5,0h2.18a2.69,2.69,0,0,1,.63.06,1.46,1.46,0,0,1,1.17,1.39c0,.54,0,1.08,0,1.61a1.49,1.49,0,0,1-1.21,1.44,3.28,3.28,0,0,1-.63.05h-2l-.65,0a17,17,0,0,0-.06,2.25c0,.72,0,1.44,0,2.19.2,0,.36,0,.52,0,.82,0,1.64,0,2.45,0a1.45,1.45,0,0,1,1.41,1,2,2,0,0,1,.11.69c0,.58,0,1.16,0,1.75V242c0,.23,0,.46,0,.73.19,0,.34.07.5.07h2a5.48,5.48,0,0,1,.7,0,1.47,1.47,0,0,1,1.25,1.25,4.43,4.43,0,0,1,0,.63c0,.61,0,1.22,0,1.83,0,.23,0,.46,0,.72a3.51,3.51,0,0,0,.5.07c.78,0,1.55,0,2.32,0a1.6,1.6,0,0,1,1.7,1.71,10.65,10.65,0,0,0,0,1.13,1.64,1.64,0,0,1-1.72,1.7c-3.08,0-6.17,0-9.26,0-.4,0-.8,0-1.19,0a1.5,1.5,0,0,1-1.36-1,2.51,2.51,0,0,1-.08-.62v-2.77Z" transform="translate(-175.45 -174.75)"/><path class="a" d="M293.32,206.42v-.66q0-10.06,0-20.14a10.78,10.78,0,0,1,9.5-10.76,11.88,11.88,0,0,1,1.33-.09c3.37,0,6.74,0,10.11,0a10.61,10.61,0,0,1,8.35,3.94,10.13,10.13,0,0,1,2.44,6.5c0,1.19,0,2.39,0,3.58v7a10.26,10.26,0,0,1-2.46,6.78,10.62,10.62,0,0,1-8.15,3.91h-1.76l-18.45,0A2.35,2.35,0,0,1,293.32,206.42Zm4.8-4.7h16.41a6,6,0,0,0,5.76-5.92c0-3.44,0-6.88,0-10.31a6.75,6.75,0,0,0-.11-1.19,6,6,0,0,0-5.9-4.77q-5.08,0-10.17,0a6,6,0,0,0-6,6q0,7.74,0,15.5C298.09,201.26,298.11,201.45,298.12,201.72Z" transform="translate(-175.45 -174.75)"/><path class="a" d="M207.22,292.8c0,.23,0,.46,0,.69q0,10.11,0,20.21a10.87,10.87,0,0,1-10.71,10.76c-3.44,0-6.88,0-10.32,0a10.81,10.81,0,0,1-10.32-7.83,10,10,0,0,1-.39-2.77V303.33a10.71,10.71,0,0,1,8.2-10.29,11.38,11.38,0,0,1,2.85-.32h19.86A1.68,1.68,0,0,1,207.22,292.8Zm-4.76,4.68h-.85l-15.08,0H186a6,6,0,0,0-5.61,4.6,7.21,7.21,0,0,0-.15,1.67c0,3.2,0,6.4,0,9.61,0,.23,0,.47,0,.7a4.84,4.84,0,0,0,.41,1.84,5.89,5.89,0,0,0,5.6,3.75c3.39.06,6.78,0,10.17,0a6.11,6.11,0,0,0,6-6q0-7.75,0-15.51C202.49,298,202.47,297.77,202.46,297.48Z" transform="translate(-175.45 -174.75)"/><path class="a" d="M207.17,206.53l-.7,0H186.19a10.81,10.81,0,0,1-10.05-6.93,10.57,10.57,0,0,1-.69-3.77c0-3.44,0-6.88,0-10.32a10.72,10.72,0,0,1,7.77-10.27,10.39,10.39,0,0,1,3-.44c3.41,0,6.83,0,10.24,0a10.81,10.81,0,0,1,10,6.75,10.44,10.44,0,0,1,.78,3.9q0,10.17,0,20.35C207.2,206,207.18,206.24,207.17,206.53Zm-4.77-4.76c0-.28,0-.46,0-.65V199c0-4.37,0-8.75,0-13.12a6.79,6.79,0,0,0-.2-1.74,6,6,0,0,0-5.77-4.49c-3.41,0-6.83,0-10.24,0a6,6,0,0,0-6,6c0,3.41,0,6.82,0,10.24a5.26,5.26,0,0,0,.13,1.25,5.88,5.88,0,0,0,4,4.42,6.36,6.36,0,0,0,2.21.31h15.08Z" transform="translate(-175.45 -174.75)"/><path class="a" d="M320.54,220.05v-.85q0-3.07,0-6.17c0-.19,0-.38,0-.56a1.49,1.49,0,0,1,1.34-1.41,10.85,10.85,0,0,1,1.89,0,1.43,1.43,0,0,1,1.28,1.36c0,.21,0,.42,0,.63v10a1.54,1.54,0,0,1-1.58,1.6c-.75,0-1.5,0-2.24,0-.21,0-.42,0-.65,0a17.17,17.17,0,0,0-.05,2.26,16.16,16.16,0,0,0,.05,2.19c.2,0,.38,0,.56,0,.68,0,1.36,0,2,0a5.33,5.33,0,0,1,.56,0,1.49,1.49,0,0,1,1.29,1.28,5.54,5.54,0,0,1,0,.7q0,7.07,0,14.11c0,.19,0,.38,0,.56a1.56,1.56,0,0,1-1.44,1.47h-2.46c-.18,0-.36,0-.58,0,0,.18,0,.34,0,.5v2.24a2.64,2.64,0,0,1-.06.63,1.51,1.51,0,0,1-1.4,1.09c-.72,0-1.45,0-2.17,0h-.8a2,2,0,0,0-.09.42V256a1.77,1.77,0,0,0,0,.3.9.9,0,0,0,.25.08h3.93a.93.93,0,0,0,.24-.06c0-.15.05-.31.06-.46v-2.32a1.59,1.59,0,0,1,.2-.88,1.45,1.45,0,0,1,1.18-.78,14.6,14.6,0,0,1,1.75,0,1.52,1.52,0,0,1,1.39,1.43c0,.18,0,.37,0,.56,0,3.2,0,6.41,0,9.61,0,.19,0,.38,0,.57a1.51,1.51,0,0,1-1.47,1.42c-.51,0-1,0-1.54,0a1.51,1.51,0,0,1-1.51-1.53c0-.54,0-1.08,0-1.61V261a1.23,1.23,0,0,0-.78-.12h-6.67a1.55,1.55,0,0,1-1.61-1.59c0-.7,0-1.4,0-2.11a1.74,1.74,0,0,0-.08-.8c-.16,0-.35,0-.53,0h-2.45A1.52,1.52,0,0,1,307,255a11.36,11.36,0,0,1,0-1.75,1.51,1.51,0,0,1,1.5-1.39c.75,0,1.5,0,2.25,0l.72,0c0-.22,0-.4,0-.58,0-.66,0-1.31,0-2a3.57,3.57,0,0,1,0-.56,1.49,1.49,0,0,1,1.51-1.37c.75,0,1.5,0,2.24,0l.7,0a2,2,0,0,0,.07-.79v-8.43q0-8,0-16a2.62,2.62,0,0,0,0-.28,1.59,1.59,0,0,1,1.71-1.69c.73,0,1.45,0,2.18,0C320.09,220.09,320.27,220.07,320.54,220.05Z" transform="translate(-175.45 -174.75)"/><path class="a" d="M275.15,183.9l-.75,0c-.68,0-1.36,0-2,0a1.93,1.93,0,0,1-.76-.13,1.44,1.44,0,0,1-.95-1.35c0-.75,0-1.49,0-2.24,0-.23,0-.46,0-.73a3.32,3.32,0,0,0-.5-.07h-2a4.11,4.11,0,0,1-.7,0,1.4,1.4,0,0,1-1.24-1.24,10.69,10.69,0,0,1,0-2,1.46,1.46,0,0,1,1.36-1.29,3.54,3.54,0,0,1,.56,0h18.74a4.17,4.17,0,0,1,.5,0,1.55,1.55,0,0,1,1.46,1.51c0,.52,0,1,0,1.55a1.52,1.52,0,0,1-1.36,1.46,5.15,5.15,0,0,1-.56,0H285c-.21,0-.41,0-.61,0a.7.7,0,0,0-.08.23c0,1.31,0,2.62,0,3.93,0,.09,0,.17.06.31l.7,0h2.25a1.54,1.54,0,0,1,1.43,1,2.53,2.53,0,0,1,.07.48,5.19,5.19,0,0,1,0,.56q0,9.23,0,18.46c0,.21,0,.42,0,.63a1.48,1.48,0,0,1-1.42,1.46c-.56,0-1.13,0-1.69,0a1.52,1.52,0,0,1-1.4-1.42c0-.74,0-1.49,0-2.24,0-.25,0-.51,0-.8a4,4,0,0,0-.44-.05h-2.45a1.56,1.56,0,0,1-1.64-1.56,13.26,13.26,0,0,1,0-1.41,1.56,1.56,0,0,1,1.63-1.56c.7,0,1.4,0,2.11,0l.66,0c.22-.23.14-.47.14-.7q0-3.19,0-6.38c0-.47,0-.94,0-1.41,0-.16,0-.32,0-.5a4.44,4.44,0,0,0-1.14-.06h-2.17a5.76,5.76,0,0,0-1.1,0,1.34,1.34,0,0,0-.1.78v6.17c0,.21,0,.43,0,.64a1.52,1.52,0,0,1-1.32,1.42,5.07,5.07,0,0,1-.55,0h-2c-.18,0-.36,0-.57.05,0,.22,0,.4,0,.58,0,.75,0,1.5,0,2.25a1.6,1.6,0,0,1-1.62,1.65c-.44,0-.89,0-1.33,0a1.58,1.58,0,0,1-1.59-1.61c0-.7,0-1.4,0-2.11v-.73a3.83,3.83,0,0,0-.51-.07h-2.24a2.32,2.32,0,0,1-.7-.09,1.35,1.35,0,0,1-1.05-1.18,11.66,11.66,0,0,1,0-2,1.39,1.39,0,0,1,1.15-1.26,3.29,3.29,0,0,1,.77-.06h7c0-.17.06-.3.06-.43v-8.15C275.18,184.21,275.16,184.09,275.15,183.9Z" transform="translate(-175.45 -174.75)"/><path class="a" d="M316.06,292.68l-.78,0h-2.11a1.65,1.65,0,0,1-1.05-.34,1.55,1.55,0,0,1-.61-1.21c0-.47,0-.94,0-1.4a1.54,1.54,0,0,1,1.6-1.6c.72,0,1.45,0,2.18,0A1.76,1.76,0,0,0,316,288a2.15,2.15,0,0,0,.05-.34c0-.21,0-.42,0-.63q0-9.75,0-19.51v-.63a1.54,1.54,0,0,1,1.49-1.48c.52,0,1,0,1.54,0a1.49,1.49,0,0,1,1.48,1.48c0,.75,0,1.5,0,2.25,0,.23,0,.46,0,.73.17,0,.3,0,.43,0h2.25a2.44,2.44,0,0,1,.76.1,1.43,1.43,0,0,1,1,1.27,4.42,4.42,0,0,1,0,.63c0,3.21,0,6.41,0,9.62,0,.19,0,.37,0,.56a1.55,1.55,0,0,1-1.47,1.43c-.75,0-1.5,0-2.24,0h-.73a2.76,2.76,0,0,0-.08.44v3.65c0,.11,0,.22,0,.37a3.22,3.22,0,0,0,.5.06h2.1a4.12,4.12,0,0,1,.7,0,1.48,1.48,0,0,1,1.18,1.31,4.42,4.42,0,0,1,0,.63c0,3.21,0,6.41,0,9.62,0,.19,0,.37,0,.56a1.47,1.47,0,0,1-1.39,1.41c-.56,0-1.12,0-1.69,0a1.52,1.52,0,0,1-1.44-1.45c0-.51,0-1,0-1.54v-1.44a3.11,3.11,0,0,0-.49-.08h-2.31a2.21,2.21,0,0,1-.63-.06,1.49,1.49,0,0,1-1.08-1.4c0-.72,0-1.45,0-2.18Z" transform="translate(-175.45 -174.75)"/><path class="a" d="M216.3,233.77c0,.35,0,.61,0,.86v6.18c0,.21,0,.42,0,.63a1.42,1.42,0,0,1-1.22,1.34,9.84,9.84,0,0,1-2,0,1.45,1.45,0,0,1-1.26-1.39c0-.2,0-.42,0-.63,0-3.55,0-7.11,0-10.66,0-.26,0-.51,0-.8a4.08,4.08,0,0,0-.43-.05H209.1a3.54,3.54,0,0,1-.56,0,1.5,1.5,0,0,1-1.32-1.49c0-.75,0-1.5,0-2.24,0-.24,0-.47,0-.68a1.16,1.16,0,0,0-.78-.12H199.6a1.52,1.52,0,0,1-1.46-1.43,11.77,11.77,0,0,1,0-1.68,1.54,1.54,0,0,1,1.49-1.41h6.73a1.71,1.71,0,0,0,.8-.08,4.53,4.53,0,0,0,.05-.53v-2.39a1.48,1.48,0,0,1,.54-1.16,1.24,1.24,0,0,1,.82-.35c.59,0,1.18,0,1.76,0a1.48,1.48,0,0,1,1.39,1.41,5.42,5.42,0,0,1,0,.57q0,3.08,0,6.17v.8a2.55,2.55,0,0,0,.42.08h11.09c.19,0,.38,0,.56,0a1.56,1.56,0,0,1,1.53,1.6c0,.47,0,.94,0,1.4,0,1.38,0,2.76,0,4.14,0,.17,0,.33,0,.49a1.56,1.56,0,0,1-1.46,1.45c-.19,0-.38,0-.56,0h-7Z" transform="translate(-175.45 -174.75)"/><path class="a" d="M288.78,229.15c0-.26,0-.46,0-.67v-2.1a1.58,1.58,0,0,1,1.74-1.74h2.25c.14,0,.28,0,.41,0,.18-.21.12-.45.12-.68v-6.24c0-.19,0-.37,0-.56a1.56,1.56,0,0,1,1.58-1.55c.49,0,1,0,1.47,0a1.51,1.51,0,0,1,1.48,1.34,3.44,3.44,0,0,1,0,.56q0,9.44,0,18.87a3.57,3.57,0,0,1,0,.56,1.49,1.49,0,0,1-1.49,1.31c-.75,0-1.5,0-2.25,0l-.72,0c0,.19-.06.34-.06.5,0,.79,0,1.59,0,2.38a1.59,1.59,0,0,1-.21.88,1.47,1.47,0,0,1-1.07.72,4.05,4.05,0,0,1-.7,0h-5.12a3.94,3.94,0,0,1-.69-.05,1.48,1.48,0,0,1-1.26-1.39c0-.19,0-.38,0-.56v-9.61c0-.12,0-.24,0-.35a1.55,1.55,0,0,1,1.67-1.65c.73,0,1.45,0,2.18,0C288.34,229.19,288.55,229.16,288.78,229.15Z" transform="translate(-175.45 -174.75)"/><path class="a" d="M293.29,247.29c0-.22,0-.4,0-.58,0-.7,0-1.4,0-2.1a3.17,3.17,0,0,1,.08-.69,1.44,1.44,0,0,1,1.23-1.1,3.33,3.33,0,0,1,.63,0h1.89l.65,0a3.44,3.44,0,0,0,.07-.51c0-.63,0-1.26,0-1.89,0-.16,0-.33,0-.49a1.6,1.6,0,0,1,1.66-1.62c1.91,0,3.83,0,5.75,0h.21l.21,0a1.52,1.52,0,0,1,1.22,1.44c0,.51,0,1,0,1.54a1.51,1.51,0,0,1-1.37,1.52,5.15,5.15,0,0,1-.56,0h-2c-.19,0-.37,0-.59.05,0,.26,0,.49,0,.71,0,.75,0,1.5,0,2.25a1.55,1.55,0,0,1-1.46,1.52h-2.45l-.53,0a3.52,3.52,0,0,0-.07.41c0,.7,0,1.4,0,2.1a5.15,5.15,0,0,1,0,.56,1.52,1.52,0,0,1-1.55,1.42c-.72,0-1.45,0-2.17,0h-.73a2.47,2.47,0,0,0-.08.43c0,2.73,0,5.47,0,8.21a2.94,2.94,0,0,0,0,.37,4.49,4.49,0,0,0,.48.06h2.46a1.46,1.46,0,0,1,1.13.47,1.33,1.33,0,0,1,.38.73,4.14,4.14,0,0,1,.06.7c0,1.75,0,3.51,0,5.26a5.12,5.12,0,0,1,0,.56A1.54,1.54,0,0,1,296.4,270c-.49,0-1,0-1.48,0a1.55,1.55,0,0,1-1.56-1.56c0-.51,0-1,0-1.54s0-.88,0-1.36c-.19,0-.35-.06-.5-.06h-2.46a1.44,1.44,0,0,1-1.29-.71,2.46,2.46,0,0,1-.25-.72,3.35,3.35,0,0,1,0-.55q0-7.1,0-14.18c0-.14,0-.28,0-.42a1.57,1.57,0,0,1,1.57-1.55c.75,0,1.5,0,2.25,0Z" transform="translate(-175.45 -174.75)"/><path class="a" d="M243.48,197.49c0,.35,0,.61,0,.86v6.17a5.19,5.19,0,0,1,0,.56,1.49,1.49,0,0,1-1.44,1.45c-.53,0-1.07,0-1.61,0a1.55,1.55,0,0,1-1.47-1.5c0-.21,0-.42,0-.63q0-5.31,0-10.6c0-.25,0-.51,0-.72a.79.79,0,0,0-.64-.15H222.2a1.47,1.47,0,0,1-1.39-1.41c0-.56,0-1.13,0-1.69a1.54,1.54,0,0,1,1.4-1.42h24.21A1.55,1.55,0,0,1,248,190c0,.16,0,.32,0,.49v5c0,.18,0,.37,0,.56a1.53,1.53,0,0,1-1.41,1.49,4,4,0,0,1-.49,0h-2.6Z" transform="translate(-175.45 -174.75)"/><path class="a" d="M202.78,279.14a1.57,1.57,0,0,0-.06.3c0,1.36,0,2.71,0,4.1a2.86,2.86,0,0,0,.43.08h2.17a4,4,0,0,1,.49,0,1.53,1.53,0,0,1,1.43,1.4,11.92,11.92,0,0,1,0,1.69,1.52,1.52,0,0,1-1.39,1.43l-.63,0H186.62c-.21,0-.42,0-.63,0a1.51,1.51,0,0,1-1.42-1.41,11.78,11.78,0,0,1,0-1.68,1.54,1.54,0,0,1,1.47-1.43c.21,0,.43,0,.64,0H198c.2-.23.13-.48.13-.7,0-2.08,0-4.17,0-6.25,0-.18,0-.37,0-.56a1.55,1.55,0,0,1,1.51-1.54h6a1.55,1.55,0,0,1,1.54,1.51c0,.49,0,1,0,1.47a1.56,1.56,0,0,1-1.58,1.55h-2.18Z" transform="translate(-175.45 -174.75)"/><path class="a" d="M229.8,179.34c0-.3,0-.51,0-.71,0-.71,0-1.41,0-2.11a1.62,1.62,0,0,1,1.7-1.72c.42,0,.85,0,1.27,0a1.56,1.56,0,0,1,1.57,1.55c0,.7,0,1.4,0,2.11,0,.25,0,.51,0,.74a1,1,0,0,0,.77.13H246a3.94,3.94,0,0,1,.77,0,1.45,1.45,0,0,1,1.21,1.36c0,.56,0,1.12,0,1.68a1.54,1.54,0,0,1-1.38,1.45,5.19,5.19,0,0,1-.56,0h-23.3a5.28,5.28,0,0,1-.56,0,1.54,1.54,0,0,1-1.38-1.44c0-.56,0-1.13,0-1.69A1.45,1.45,0,0,1,222,179.4a3.94,3.94,0,0,1,.77-.06h7Z" transform="translate(-175.45 -174.75)"/><path class="a" d="M202.72,265.43a34.8,34.8,0,0,0,4.45,0,3.4,3.4,0,0,0,.06-.46c0-.77,0-1.54,0-2.31a1.88,1.88,0,0,1,.06-.63,1.48,1.48,0,0,1,1.28-1.05,5.19,5.19,0,0,1,.56,0h5.26a5.33,5.33,0,0,1,.56,0,1.44,1.44,0,0,1,1.29,1.27,13.25,13.25,0,0,1,0,1.89,1.46,1.46,0,0,1-1.46,1.34c-.68,0-1.36,0-2,0h-.88a.94.94,0,0,0-.13.71v6.24c0,.19,0,.38,0,.57a1.47,1.47,0,0,1-1.29,1.5,9.87,9.87,0,0,1-2,0,1.48,1.48,0,0,1-1.27-1.45c0-.75,0-1.5,0-2.25,0-.23,0-.46,0-.67a1.08,1.08,0,0,0-.77-.13h-6.81a1.54,1.54,0,0,1-1.48-1.41,4,4,0,0,1,0-.49v-5.26c0-.14,0-.28,0-.42a1.55,1.55,0,0,1,1.51-1.47c.49,0,1,0,1.47,0a1.52,1.52,0,0,1,1.55,1.48c0,.73,0,1.45,0,2.18C202.7,264.89,202.71,265.15,202.72,265.43Z" transform="translate(-175.45 -174.75)"/><path class="a" d="M216.29,279.07v-.78c0-.68,0-1.36,0-2a1.59,1.59,0,0,1,1.66-1.69c.39,0,.79,0,1.19,0a1.6,1.6,0,0,1,1.72,1.7c0,.68,0,1.36,0,2v.7a1.34,1.34,0,0,0,.3.09q2,0,3.93,0a.93.93,0,0,0,.24-.06,2.3,2.3,0,0,0,.05-.39c0-.75,0-1.49,0-2.24a4,4,0,0,1,0-.49,1.53,1.53,0,0,1,1.27-1.32,4,4,0,0,1,.49,0h5.54a2.88,2.88,0,0,1,.42,0,1.44,1.44,0,0,1,1.3,1.28,11.93,11.93,0,0,1,0,1.89,1.47,1.47,0,0,1-1.47,1.34c-.75,0-1.5,0-2.24,0l-.73,0c0,.19-.06.35-.06.5,0,.8,0,1.59,0,2.39a1.55,1.55,0,0,1-.34,1,1.47,1.47,0,0,1-1.09.56H213.24a1.53,1.53,0,0,1-1.47-1.43q0-.81,0-1.62a1.5,1.5,0,0,1,1.49-1.47c.75,0,1.5,0,2.25,0Z" transform="translate(-175.45 -174.75)"/><path class="a" d="M256.44,264.15c-1.41.85-4.9,1.54-8,1.18a16.08,16.08,0,0,1-7.88-3.34c.13-.23.26-.48.4-.71a20.67,20.67,0,0,1,4.38-4.9,24.84,24.84,0,0,1,7.22-4.1l.39-.13a1.13,1.13,0,0,1,.34.62,67.09,67.09,0,0,1,2.37,7.7c.24,1,.45,2,.66,3C256.4,263.71,256.41,263.94,256.44,264.15Z" transform="translate(-175.45 -174.75)"/><path class="a" d="M261.6,319.92c-.23,0-.44,0-.64,0h-1.9a5.33,5.33,0,0,1-.56,0,1.49,1.49,0,0,1-1.36-1.45,14.41,14.41,0,0,1,0-1.61,1.52,1.52,0,0,1,1.37-1.45,4.38,4.38,0,0,1,.63,0H273.8a1.54,1.54,0,0,1,1.45,1.52c0,.52,0,1,0,1.55a1.48,1.48,0,0,1-1.36,1.45,5.15,5.15,0,0,1-.56,0h-1.89l-.65,0c0,.22-.05.4-.05.58v2a4.17,4.17,0,0,1,0,.5,1.57,1.57,0,0,1-1.37,1.38,4.1,4.1,0,0,1-.49,0c-1.78,0-3.56,0-5.34,0a1.69,1.69,0,0,1-1.88-1.9c0-.67,0-1.35,0-2C261.65,320.32,261.62,320.14,261.6,319.92Z" transform="translate(-175.45 -174.75)"/><path class="a" d="M252.63,306.29c0,.3,0,.51,0,.72v1.89a3,3,0,0,1,0,.42,1.55,1.55,0,0,1-1.55,1.5c-.73,0-1.45,0-2.18,0h-.73a3.66,3.66,0,0,0-.08.5c0,.77,0,1.54,0,2.31a1.92,1.92,0,0,1-.11.76,1.4,1.4,0,0,1-1.28.94c-.56,0-1.12,0-1.68,0a1.55,1.55,0,0,1-1.45-1.45c0-.14,0-.28,0-.42,0-1.78,0-3.55,0-5.33a2.62,2.62,0,0,0,0-.28,1.57,1.57,0,0,1,1.55-1.57c.73,0,1.45,0,2.18,0l.73,0a2.45,2.45,0,0,0,.07-.42v-2.46a1.57,1.57,0,0,1,1.69-1.65c.73,0,1.45,0,2.18,0,.2,0,.4,0,.64,0,0-.25,0-.46,0-.66,0-.7,0-1.4,0-2.11a2.11,2.11,0,0,1,.12-.75,1.44,1.44,0,0,1,1.28-.95,15.69,15.69,0,0,1,1.68,0,1.51,1.51,0,0,1,1.44,1.45,3,3,0,0,1,0,.42v5.33a1.47,1.47,0,0,1,0,.21,1.55,1.55,0,0,1-1.61,1.65c-.68,0-1.36,0-2,0Z" transform="translate(-175.45 -174.75)"/><path class="a" d="M275.25,283.62c0,.33,0,.58,0,.84v6.66a1.54,1.54,0,0,1-1.5,1.55H268a1.61,1.61,0,0,1-1.82-1.81c0-.31,0-.61,0-.92a1.63,1.63,0,0,1,1.8-1.83c.68,0,1.36,0,2,0,.21,0,.41,0,.6,0a1.3,1.3,0,0,0,.1-.79c0-3.56,0-7.11,0-10.67,0-.21,0-.42,0-.63a1.5,1.5,0,0,1,1.37-1.44,17,17,0,0,1,1.75,0,1.47,1.47,0,0,1,1.4,1.48c0,.75,0,1.5,0,2.25,0,.23,0,.46,0,.72.19,0,.34.06.5.06h2.32a1.82,1.82,0,0,1,.62.07,1.45,1.45,0,0,1,1.05,1.35,13.45,13.45,0,0,1,0,1.68,1.46,1.46,0,0,1-1.46,1.41c-.75,0-1.5,0-2.25,0Z" transform="translate(-175.45 -174.75)"/><path class="a" d="M250.77,246.92l1.26,2.62a1.63,1.63,0,0,1-.31.17,23.33,23.33,0,0,0-10.17,6.61,24.67,24.67,0,0,0-2.73,3.47,3,3,0,0,1-.2.29s-.07.05-.16.1a15.64,15.64,0,0,1-3.24-5.58,13.42,13.42,0,0,1-.7-5.4A58.56,58.56,0,0,0,250.77,246.92Z" transform="translate(-175.45 -174.75)"/><path class="a" d="M249.39,244.48c-2.45,1-12.34,2.23-14.54,1.87a15,15,0,0,1,8.68-10.88,29.83,29.83,0,0,1,3.09,4.4C247.58,241.37,248.51,242.88,249.39,244.48Z" transform="translate(-175.45 -174.75)"/><path class="a" d="M220.89,211.09h6.93a5.4,5.4,0,0,1,.7,0,1.48,1.48,0,0,1,1.33,1.4c0,.54,0,1.08,0,1.62a1.52,1.52,0,0,1-1.47,1.49,3,3,0,0,1-.42,0h-14.3a3.54,3.54,0,0,1-.56,0,1.52,1.52,0,0,1-1.36-1.45c0-.54,0-1.08,0-1.62a1.52,1.52,0,0,1,1.38-1.44c.23,0,.46,0,.7,0Z" transform="translate(-175.45 -174.75)"/><path class="a" d="M306.93,220.09v-7c0-.21,0-.42,0-.63a1.5,1.5,0,0,1,1.38-1.36,11.36,11.36,0,0,1,1.75,0,1.46,1.46,0,0,1,1.38,1.35,4.43,4.43,0,0,1,0,.63v9.61a5.47,5.47,0,0,1,0,.7,1.48,1.48,0,0,1-1.38,1.27h-5.76a4,4,0,0,1-.49,0,1.48,1.48,0,0,1-1.39-1.4c0-.54,0-1.08,0-1.62a1.51,1.51,0,0,1,1.48-1.49c.63,0,1.26,0,1.89,0Z" transform="translate(-175.45 -174.75)"/><path class="a" d="M288.8,215.62v.86c0,2.11,0,4.21,0,6.32a1.66,1.66,0,0,1-1.85,1.85,9.43,9.43,0,0,0-1.19,0,1.52,1.52,0,0,1-1.51-1.52c0-.17,0-.33,0-.49v-9.55c0-.21,0-.42,0-.63a1.49,1.49,0,0,1,1.28-1.37,4.43,4.43,0,0,1,.63,0h5.19a5.15,5.15,0,0,1,.56,0,1.48,1.48,0,0,1,1.37,1.44c0,.51,0,1,0,1.54a1.55,1.55,0,0,1-1.51,1.54h-2.17Z" transform="translate(-175.45 -174.75)"/><path class="a" d="M302.45,256.36h.86c.68,0,1.36,0,2,0A1.53,1.53,0,0,1,307,258c0,1.94,0,3.88,0,5.82a1.6,1.6,0,0,1-1.58,1.61c-.47,0-.94,0-1.4,0a1.58,1.58,0,0,1-1.56-1.57c0-.74,0-1.49,0-2.24,0-.21,0-.41,0-.66-.19,0-.35-.05-.5-.05h-2.18a2.78,2.78,0,0,1-.76-.1,1.45,1.45,0,0,1-1.05-1.27,5.15,5.15,0,0,1,0-.56v-5.26c0-.16,0-.33,0-.49a1.51,1.51,0,0,1,1.42-1.39,12.37,12.37,0,0,1,1.61,0,1.52,1.52,0,0,1,1.48,1.49c0,.68,0,1.35,0,2C302.44,255.67,302.45,256,302.45,256.36Z" transform="translate(-175.45 -174.75)"/><path class="a" d="M260.78,237.84a18.47,18.47,0,0,1-8.25,5.62c-.08-.11-.19-.24-.27-.37a96.21,96.21,0,0,0-5.34-8.31,4.24,4.24,0,0,1-.27-.44,1.55,1.55,0,0,1,.33-.15,10.28,10.28,0,0,1,1.45-.27,16.88,16.88,0,0,1,9.36,1.81,15.37,15.37,0,0,1,2.73,1.84A3.49,3.49,0,0,1,260.78,237.84Z" transform="translate(-175.45 -174.75)"/><path class="a" d="M255.15,248.94l-1.39-3c.25-.13.47-.25.7-.35a23.75,23.75,0,0,0,5.54-3.41,18.62,18.62,0,0,0,2.2-2.15l.31-.35a2.89,2.89,0,0,1,.31.28,15.9,15.9,0,0,1,3.11,7c.11.6.17,1.2.24,1.81a1.44,1.44,0,0,1,0,.71c-1.21-.16-2.41-.35-3.61-.46s-2.48-.18-3.71-.19S256.39,248.89,255.15,248.94Z" transform="translate(-175.45 -174.75)"/><path class="a" d="M256.08,251.48a23.17,23.17,0,0,1,9.79.63c.05,1.23-1,4-2.15,5.89s-3.38,4.15-4.6,4.66c-.2-.93-.39-1.86-.6-2.78s-.47-1.9-.72-2.85-.53-1.84-.81-2.75S256.4,252.46,256.08,251.48Z" transform="translate(-175.45 -174.75)"/><path class="a" d="M200.35,215.65h-4.77a5.23,5.23,0,0,1-.56,0,1.54,1.54,0,0,1-1.41-1.49c0-.53,0-1.07,0-1.61a1.48,1.48,0,0,1,1.32-1.41,4.43,4.43,0,0,1,.63,0h10.18a1.51,1.51,0,0,1,1.45,1.44,12.36,12.36,0,0,1,0,1.61,1.54,1.54,0,0,1-1.43,1.47,5.28,5.28,0,0,1-.56,0Z" transform="translate(-175.45 -174.75)"/><path class="a" d="M220.79,256.36c0-.23,0-.44,0-.64,0-.73,0-1.45,0-2.18a1.91,1.91,0,0,1,.13-.75,1.44,1.44,0,0,1,1.32-.89,14.41,14.41,0,0,1,1.61,0,1.53,1.53,0,0,1,1.45,1.45,4,4,0,0,1,0,.49v5.4a1.57,1.57,0,0,1-1.68,1.73c-1.89,0-3.79,0-5.68,0l-.35,0a1.54,1.54,0,0,1-1.35-1.4,10.6,10.6,0,0,1,0-1.69,1.52,1.52,0,0,1,1.39-1.43,3.51,3.51,0,0,1,.56,0h2C220.39,256.41,220.57,256.38,220.79,256.36Z" transform="translate(-175.45 -174.75)"/><path class="a" d="M320.6,319.8c.29,0,.5,0,.71,0,.63,0,1.26,0,1.89,0h.49a1.51,1.51,0,0,1,1.43,1.46v1.61a1.52,1.52,0,0,1-1.37,1.45,3.93,3.93,0,0,1-.49,0h-5.33a2.68,2.68,0,0,1-.49,0,1.53,1.53,0,0,1-1.36-1.46v-.28c0-1.87,0-3.74,0-5.61a2.1,2.1,0,0,1,.11-.75,1.45,1.45,0,0,1,1.28-.95,13.61,13.61,0,0,1,1.69,0,1.52,1.52,0,0,1,1.43,1.53c0,.73,0,1.45,0,2.18Z" transform="translate(-175.45 -174.75)"/><path class="a" d="M180,245.09v5.27a1.54,1.54,0,0,1-1.56,1.55q-.73,0-1.47,0a1.54,1.54,0,0,1-1.49-1.47V250c0-3.23,0-6.46,0-9.69,0-.14,0-.28,0-.42a1.53,1.53,0,0,1,1.45-1.52,12.36,12.36,0,0,1,1.61,0,1.53,1.53,0,0,1,1.47,1.51v5.26Z" transform="translate(-175.45 -174.75)"/><path class="a" d="M180,229.14c0-.19,0-.39,0-.6,0-.73,0-1.45,0-2.18a1.55,1.55,0,0,1,1.61-1.65c.44,0,.89,0,1.33,0a1.58,1.58,0,0,1,1.59,1.61c0,2,0,3.93,0,5.89a1.59,1.59,0,0,1-1.53,1.59h-6a1.53,1.53,0,0,1-1.22-.59,1.35,1.35,0,0,1-.33-.9c0-.49,0-1,0-1.48a1.56,1.56,0,0,1,1.55-1.57c.74,0,1.49,0,2.24,0A1.1,1.1,0,0,0,180,229.14Z" transform="translate(-175.45 -174.75)"/><path class="a" d="M266.18,283.6c0,.89,0,1.78,0,2.67a3.16,3.16,0,0,1-.06.69,1.36,1.36,0,0,1-1.2,1.13,10.49,10.49,0,0,1-2,0,1.46,1.46,0,0,1-1.25-1.33,3.93,3.93,0,0,1,0-.49v-5.33a4,4,0,0,1,0-.49,1.52,1.52,0,0,1,1.46-1.36c.53,0,1.07,0,1.61,0a1.52,1.52,0,0,1,1.44,1.3,4.43,4.43,0,0,1,0,.63C266.19,281.87,266.18,282.74,266.18,283.6Z" transform="translate(-175.45 -174.75)"/><path class="a" d="M252.59,292.72v2.59a3.46,3.46,0,0,1,0,.56,1.54,1.54,0,0,1-1.49,1.34c-.51,0-1,0-1.54,0a1.53,1.53,0,0,1-1.48-1.34,3.46,3.46,0,0,1,0-.56c0-1.75,0-3.51,0-5.26a3.3,3.3,0,0,1,.05-.7,1.36,1.36,0,0,1,1.18-1.14,9.13,9.13,0,0,1,2.09,0,1.32,1.32,0,0,1,1.15,1.08,3.17,3.17,0,0,1,.08.69Z" transform="translate(-175.45 -174.75)"/><path class="a" d="M307,270c0-.91,0-1.83,0-2.74a2.67,2.67,0,0,1,.11-.75,1.42,1.42,0,0,1,1.31-1,15.69,15.69,0,0,1,1.68,0,1.52,1.52,0,0,1,1.42,1.32,5.4,5.4,0,0,1,0,.56v5.26a3.44,3.44,0,0,1,0,.56,1.44,1.44,0,0,1-1.18,1.31,5.87,5.87,0,0,1-2.09,0,1.51,1.51,0,0,1-1.23-1.36,3.93,3.93,0,0,1,0-.49Z" transform="translate(-175.45 -174.75)"/><path class="a" d="M225.38,292.7h-2.73a2.41,2.41,0,0,1-.76-.1,1.4,1.4,0,0,1-1-1.29,14.6,14.6,0,0,1,0-1.75,1.45,1.45,0,0,1,1.21-1.36,4.21,4.21,0,0,1,.62-.05H228a2.84,2.84,0,0,1,.77.08,1.37,1.37,0,0,1,1.07,1.24,12.05,12.05,0,0,1,0,1.9,1.51,1.51,0,0,1-1.34,1.32,4,4,0,0,1-.49,0Z" transform="translate(-175.45 -174.75)"/><path class="a" d="M252.54,202.09v2.45a4.17,4.17,0,0,1,0,.5,1.53,1.53,0,0,1-1.55,1.49q-.73,0-1.47,0a1.54,1.54,0,0,1-1.52-1.45c0-.16,0-.33,0-.49,0-1.73,0-3.46,0-5.19a3.94,3.94,0,0,1,.07-.77,1.43,1.43,0,0,1,1.35-1.13c.53,0,1.07,0,1.61,0a1.54,1.54,0,0,1,1.52,1.45c0,.17,0,.33,0,.49v2.67Z" transform="translate(-175.45 -174.75)"/><path class="a" d="M216.28,251.89H213.4a1.54,1.54,0,0,1-1.65-1.46c0-.53,0-1.07,0-1.61a1.5,1.5,0,0,1,1.44-1.44,4,4,0,0,1,.49,0h5.61a1.5,1.5,0,0,1,1.5,1.39,10.23,10.23,0,0,1,0,1.75,1.47,1.47,0,0,1-1.5,1.37c-1,0-2,0-3,0Z" transform="translate(-175.45 -174.75)"/><path class="a" d="M220.82,242.81c0-.94,0-1.88,0-2.81a2.1,2.1,0,0,1,.11-.75,1.43,1.43,0,0,1,1.28-.95,13.61,13.61,0,0,1,1.69,0,1.56,1.56,0,0,1,1.44,1.47V240c0,1.89,0,3.79,0,5.68a1.65,1.65,0,0,1-1.71,1.72c-.37,0-.75,0-1.12,0a1.59,1.59,0,0,1-1.72-1.69C220.86,244.72,220.83,243.76,220.82,242.81Z" transform="translate(-175.45 -174.75)"/><path class="a" d="M261.69,310.82h-2.81a2.1,2.1,0,0,1-.75-.11,1.43,1.43,0,0,1-1-1.32,15.69,15.69,0,0,1,0-1.68,1.5,1.5,0,0,1,1.41-1.4,4,4,0,0,1,.49,0h5.68a1.48,1.48,0,0,1,1.46,1.34,12.93,12.93,0,0,1,0,1.76,1.51,1.51,0,0,1-1.55,1.42c-1,0-2,0-2.94,0Z" transform="translate(-175.45 -174.75)"/><path class="a" d="M279.75,247.37V250a5.33,5.33,0,0,1,0,.56,1.49,1.49,0,0,1-1.41,1.32c-.53,0-1.07,0-1.61,0a1.52,1.52,0,0,1-1.48-1.41,3,3,0,0,1,0-.42c0-1.8,0-3.6,0-5.4,0-.12,0-.23,0-.35a1.5,1.5,0,0,1,1.36-1.45,11.06,11.06,0,0,1,1.82,0,1.43,1.43,0,0,1,1.33,1.4c0,.48,0,1,0,1.47Z" transform="translate(-175.45 -174.75)"/><path class="a" d="M279.76,265.52v3a1.54,1.54,0,0,1-1.52,1.52c-.51,0-1,0-1.54,0a1.55,1.55,0,0,1-1.47-1.43c0-.14,0-.28,0-.42v-5.33c0-.14,0-.28,0-.42a1.55,1.55,0,0,1,1.45-1.45c.52,0,1,0,1.54,0a1.53,1.53,0,0,1,1.53,1.51c0,.75,0,1.5,0,2.24Z" transform="translate(-175.45 -174.75)"/><path class="a" d="M263.86,183.87h-.7a1.55,1.55,0,0,1-1.58-1.54c0-.49,0-1,0-1.47a1.52,1.52,0,0,1,1.45-1.52,10.82,10.82,0,0,1,1.61,0,1.47,1.47,0,0,1,1.46,1.42,10.48,10.48,0,0,1,0,1.68,1.54,1.54,0,0,1-1.48,1.43Z" transform="translate(-175.45 -174.75)"/><path class="a" d="M207.22,240.55c0,.26,0,.52,0,.77a1.52,1.52,0,0,1-1.4,1.5,10.23,10.23,0,0,1-1.75,0,1.46,1.46,0,0,1-1.37-1.36,10.23,10.23,0,0,1,0-1.75,1.51,1.51,0,0,1,1.49-1.41,13.19,13.19,0,0,1,1.54,0,1.55,1.55,0,0,1,1.49,1.48c0,.26,0,.52,0,.77Z" transform="translate(-175.45 -174.75)"/><path class="a" d="M207.23,258.69c0,.26,0,.52,0,.77a1.56,1.56,0,0,1-1.48,1.51,10.82,10.82,0,0,1-1.61,0,1.5,1.5,0,0,1-1.44-1.45,12.37,12.37,0,0,1,0-1.61,1.51,1.51,0,0,1,1.43-1.47,9.42,9.42,0,0,1,1.68,0,1.53,1.53,0,0,1,1.43,1.54c0,.24,0,.47,0,.7Z" transform="translate(-175.45 -174.75)"/><path class="a" d="M186.78,215.65c-.26,0-.52,0-.78,0a1.54,1.54,0,0,1-1.47-1.43,11.77,11.77,0,0,1,0-1.68,1.51,1.51,0,0,1,1.48-1.42,14.41,14.41,0,0,1,1.61,0,1.43,1.43,0,0,1,1.41,1.31,9.18,9.18,0,0,1,0,1.89,1.48,1.48,0,0,1-1.41,1.32,7.85,7.85,0,0,1-.84,0Z" transform="translate(-175.45 -174.75)"/><path class="a" d="M218.52,183.9c.25,0,.51,0,.77,0a1.49,1.49,0,0,1,1.47,1.33,9.22,9.22,0,0,1,0,1.82,1.49,1.49,0,0,1-1.51,1.37q-.74,0-1.47,0a1.53,1.53,0,0,1-1.53-1.44,10.82,10.82,0,0,1,0-1.61,1.52,1.52,0,0,1,1.57-1.47c.23,0,.46,0,.7,0Z" transform="translate(-175.45 -174.75)"/><path class="a" d="M261.63,290.41c0,.26,0,.52,0,.77a1.51,1.51,0,0,1-1.4,1.49,11.77,11.77,0,0,1-1.68,0,1.5,1.5,0,0,1-1.43-1.53q0-.74,0-1.47a1.48,1.48,0,0,1,1.37-1.51,10,10,0,0,1,1.81,0,1.46,1.46,0,0,1,1.33,1.47C261.64,289.9,261.63,290.15,261.63,290.41Z" transform="translate(-175.45 -174.75)"/><path class="a" d="M264,292.69h.77a1.53,1.53,0,0,1,1.43,1.31,6.52,6.52,0,0,1,0,.77,9.2,9.2,0,0,1,0,1.05,1.5,1.5,0,0,1-1.49,1.39c-.52,0-1,0-1.55,0a1.51,1.51,0,0,1-1.48-1.41,11.77,11.77,0,0,1,0-1.68,1.51,1.51,0,0,1,1.47-1.42C263.4,292.67,263.68,292.69,264,292.69Z" transform="translate(-175.45 -174.75)"/><path class="a" d="M316.07,304c0-.23,0-.47,0-.7a1.5,1.5,0,0,1,1.41-1.54,9.43,9.43,0,0,1,1.68,0,1.51,1.51,0,0,1,1.43,1.54q0,.74,0,1.47a1.51,1.51,0,0,1-1.39,1.5,10.23,10.23,0,0,1-1.75,0,1.49,1.49,0,0,1-1.38-1.5C316.06,304.48,316.07,304.22,316.07,304Z" transform="translate(-175.45 -174.75)"/><path class="a" d="M313.78,315.3c-.28,0-.56,0-.84,0a1.44,1.44,0,0,1-1.37-1.27,9.77,9.77,0,0,1,0-1.95,1.44,1.44,0,0,1,1.43-1.29c.52,0,1,0,1.54,0a1.52,1.52,0,0,1,1.52,1.45,14.41,14.41,0,0,1,0,1.61,1.51,1.51,0,0,1-1.51,1.45c-.25,0-.51,0-.77,0Z" transform="translate(-175.45 -174.75)"/><path class="a" d="M186.87,274.6c.28,0,.57,0,.84,0a1.48,1.48,0,0,1,1.33,1.16,2,2,0,0,1,.07.42c0,.44,0,.88,0,1.33a1.56,1.56,0,0,1-1.66,1.61h-1.33a1.55,1.55,0,0,1-1.56-1.49c0-.51,0-1,0-1.54a1.54,1.54,0,0,1,1.54-1.5h.77Z" transform="translate(-175.45 -174.75)"/><path class="a" d="M257.13,322.18c0,.24,0,.47,0,.7a1.55,1.55,0,0,1-1.51,1.54c-.51,0-1,0-1.54,0a1.53,1.53,0,0,1-1.47-1.5c0-.51,0-1,0-1.54a1.52,1.52,0,0,1,1.47-1.49c.54,0,1.08,0,1.61,0a1.5,1.5,0,0,1,1.45,1.51c0,.26,0,.51,0,.77Z" transform="translate(-175.45 -174.75)"/><path class="a" d="M211.77,290.41c0-.26,0-.52,0-.77a1.5,1.5,0,0,1,1.37-1.45,12.28,12.28,0,0,1,1.82,0,1.5,1.5,0,0,1,1.34,1.47c0,.51,0,1,0,1.54a1.55,1.55,0,0,1-1.54,1.51c-.49,0-1,0-1.47,0a1.54,1.54,0,0,1-1.52-1.52c0-.26,0-.52,0-.77Z" transform="translate(-175.45 -174.75)"/><path class="a" d="M232.13,206.54c-.26,0-.52,0-.77,0a1.51,1.51,0,0,1-1.49-1.4,10.23,10.23,0,0,1,0-1.75,1.5,1.5,0,0,1,1.45-1.36,14.41,14.41,0,0,1,1.61,0,1.45,1.45,0,0,1,1.44,1.36,12.15,12.15,0,0,1,0,1.81,1.45,1.45,0,0,1-1.39,1.33c-.28,0-.56,0-.84,0Z" transform="translate(-175.45 -174.75)"/><path class="a" d="M205,229.25h.77a1.52,1.52,0,0,1,1.47,1.43,11.77,11.77,0,0,1,0,1.68,1.52,1.52,0,0,1-1.48,1.41c-.51,0-1,0-1.54,0a1.51,1.51,0,0,1-1.49-1.4,11.36,11.36,0,0,1,0-1.75,1.51,1.51,0,0,1,1.5-1.38H205Z" transform="translate(-175.45 -174.75)"/><path class="a" d="M309.2,238.23c-.26,0-.52,0-.77,0a1.5,1.5,0,0,1-1.47-1.42,11.77,11.77,0,0,1,0-1.68,1.5,1.5,0,0,1,1.47-1.41,14.41,14.41,0,0,1,1.61,0,1.46,1.46,0,0,1,1.41,1.31,13.25,13.25,0,0,1,0,1.89,1.51,1.51,0,0,1-1.42,1.31Z" transform="translate(-175.45 -174.75)"/><path class="a" d="M261.57,177v.84a1.49,1.49,0,0,1-1.31,1.42,14.9,14.9,0,0,1-1.89,0,1.46,1.46,0,0,1-1.31-1.41c0-.54,0-1.08,0-1.61a1.52,1.52,0,0,1,1.42-1.48,11.77,11.77,0,0,1,1.68,0,1.52,1.52,0,0,1,1.42,1.47c0,.26,0,.52,0,.77Z" transform="translate(-175.45 -174.75)"/><path class="a" d="M263.81,192.92c-.26,0-.52,0-.78,0a1.48,1.48,0,0,1-1.43-1.37,10.23,10.23,0,0,1,0-1.75A1.5,1.5,0,0,1,263,188.4a14.41,14.41,0,0,1,1.61,0,1.48,1.48,0,0,1,1.46,1.35,12.29,12.29,0,0,1,0,1.82,1.48,1.48,0,0,1-1.45,1.35Z" transform="translate(-175.45 -174.75)"/><path class="a" d="M250.26,283.61c-.24,0-.47,0-.7,0a1.49,1.49,0,0,1-1.51-1.38,10.23,10.23,0,0,1,0-1.75,1.5,1.5,0,0,1,1.5-1.38c.49,0,1,0,1.47,0a1.5,1.5,0,0,1,1.54,1.41,10.48,10.48,0,0,1,0,1.68A1.51,1.51,0,0,1,251,283.6Z" transform="translate(-175.45 -174.75)"/><path class="a" d="M198.15,272.37c0,.25,0,.51,0,.77a1.46,1.46,0,0,1-1.18,1.38,5.61,5.61,0,0,1-2.16,0,1.44,1.44,0,0,1-1.17-1.39c0-.52,0-1,0-1.55a1.5,1.5,0,0,1,1.42-1.53,9.43,9.43,0,0,1,1.68,0,1.51,1.51,0,0,1,1.41,1.55c0,.25,0,.51,0,.77Z" transform="translate(-175.45 -174.75)"/><path class="a" d="M248,208.86v.77a1.46,1.46,0,0,1-1.3,1.41,14.9,14.9,0,0,1-1.89,0,1.45,1.45,0,0,1-1.31-1.34,12.77,12.77,0,0,1,0-1.75,1.51,1.51,0,0,1,1.41-1.4,11.77,11.77,0,0,1,1.68,0A1.5,1.5,0,0,1,248,208v.85Z" transform="translate(-175.45 -174.75)"/><path class="a" d="M218.56,197.5h.77a1.48,1.48,0,0,1,1.43,1.3,10.73,10.73,0,0,1,0,1.88A1.49,1.49,0,0,1,219.3,202a13.36,13.36,0,0,1-1.55,0,1.49,1.49,0,0,1-1.47-1.33,9.22,9.22,0,0,1,0-1.82,1.49,1.49,0,0,1,1.51-1.37Z" transform="translate(-175.45 -174.75)"/><path class="a" d="M175.51,285.91c0-.26,0-.51,0-.77a1.51,1.51,0,0,1,1.41-1.48,11.77,11.77,0,0,1,1.68,0,1.51,1.51,0,0,1,1.43,1.46c0,.54,0,1.08,0,1.61a1.46,1.46,0,0,1-1.31,1.42,14.89,14.89,0,0,1-1.89,0,1.5,1.5,0,0,1-1.32-1.41v-.84Z" transform="translate(-175.45 -174.75)"/><path class="a" d="M248,285.93c0,.25,0,.51,0,.77a1.42,1.42,0,0,1-1.3,1.41,10.73,10.73,0,0,1-1.88,0,1.48,1.48,0,0,1-1.33-1.41,14.41,14.41,0,0,1,0-1.61,1.52,1.52,0,0,1,1.42-1.48,11.77,11.77,0,0,1,1.68,0,1.52,1.52,0,0,1,1.42,1.47C248,285.37,248,285.65,248,285.93Z" transform="translate(-175.45 -174.75)"/><path class="a" d="M216.23,177.11v.77a1.49,1.49,0,0,1-1.35,1.45,13.82,13.82,0,0,1-1.82,0,1.48,1.48,0,0,1-1.35-1.46c0-.51,0-1,0-1.54a1.54,1.54,0,0,1,1.46-1.51,14.59,14.59,0,0,1,1.62,0,1.53,1.53,0,0,1,1.44,1.45v.84Z" transform="translate(-175.45 -174.75)"/><path class="a" d="M180,218c0,.23,0,.47,0,.7a1.51,1.51,0,0,1-1.46,1.5c-.53,0-1.07,0-1.61,0a1.52,1.52,0,0,1-1.44-1.44c0-.57,0-1.13,0-1.69a1.51,1.51,0,0,1,1.41-1.39c.56,0,1.12,0,1.68,0a1.5,1.5,0,0,1,1.42,1.47c0,.28,0,.56,0,.84Z" transform="translate(-175.45 -174.75)"/><path class="a" d="M223.06,206.54c-.28,0-.56,0-.84,0a1.47,1.47,0,0,1-1.4-1.39,14.6,14.6,0,0,1,0-1.75,1.46,1.46,0,0,1,1.37-1.36,12.63,12.63,0,0,1,1.74,0,1.47,1.47,0,0,1,1.38,1.35,12.78,12.78,0,0,1,0,1.75,1.51,1.51,0,0,1-1.42,1.4C223.62,206.56,223.34,206.54,223.06,206.54Z" transform="translate(-175.45 -174.75)"/><path class="a" d="M214,206.55a7.85,7.85,0,0,1-.84,0,1.49,1.49,0,0,1-1.39-1.34,13.82,13.82,0,0,1,0-1.82,1.48,1.48,0,0,1,1.4-1.34c.56,0,1.12,0,1.68,0a1.53,1.53,0,0,1,1.42,1.39c0,.59,0,1.17,0,1.75a1.52,1.52,0,0,1-1.43,1.38Z" transform="translate(-175.45 -174.75)"/><path class="a" d="M213.93,193h-.77a1.52,1.52,0,0,1-1.43-1.38,14.6,14.6,0,0,1,0-1.75,1.48,1.48,0,0,1,1.36-1.38,17,17,0,0,1,1.75,0,1.5,1.5,0,0,1,1.39,1.42c0,.56,0,1.12,0,1.68a1.51,1.51,0,0,1-1.4,1.41h-.91Z" transform="translate(-175.45 -174.75)"/><path class="a" d="M257.13,313.11c0,.23,0,.46,0,.7a1.55,1.55,0,0,1-1.51,1.53h-1.54a1.53,1.53,0,0,1-1.48-1.48v-1.54a1.55,1.55,0,0,1,1.53-1.51c.49,0,1,0,1.47,0a1.58,1.58,0,0,1,1.53,1.53Z" transform="translate(-175.45 -174.75)"/><path class="a" d="M322.92,310.78h.77a1.53,1.53,0,0,1,1.42,1.4c0,.58,0,1.16,0,1.75a1.44,1.44,0,0,1-1.36,1.36,17,17,0,0,1-1.75,0,1.48,1.48,0,0,1-1.38-1.35,13.82,13.82,0,0,1,0-1.82,1.49,1.49,0,0,1,1.4-1.33c.3,0,.61,0,.91,0Z" transform="translate(-175.45 -174.75)"/><path class="a" d="M257.1,276.85c0,.26,0,.51,0,.77a1.53,1.53,0,0,1-1.44,1.45c-.54,0-1.08,0-1.61,0a1.54,1.54,0,0,1-1.47-1.43c0-.56,0-1.12,0-1.68a1.45,1.45,0,0,1,1.39-1.4,17,17,0,0,1,1.75,0,1.49,1.49,0,0,1,1.36,1.37c0,.3,0,.61,0,.91Z" transform="translate(-175.45 -174.75)"/><path class="a" d="M184.55,281.43a7.85,7.85,0,0,1,0,.84,1.46,1.46,0,0,1-1.36,1.36,14.6,14.6,0,0,1-1.75,0,1.48,1.48,0,0,1-1.39-1.41,15.69,15.69,0,0,1,0-1.68,1.5,1.5,0,0,1,1.41-1.41c.56,0,1.12,0,1.68,0a1.53,1.53,0,0,1,1.42,1.39v.91Z" transform="translate(-175.45 -174.75)"/><path class="a" d="M180,276.85c0,.26,0,.52,0,.77a1.53,1.53,0,0,1-1.47,1.5c-.53,0-1.07,0-1.61,0a1.52,1.52,0,0,1-1.43-1.46c0-.53,0-1.07,0-1.61a1.46,1.46,0,0,1,1.43-1.44,11.78,11.78,0,0,1,1.68,0,1.48,1.48,0,0,1,1.4,1.47C180,276.34,180,276.59,180,276.85Z" transform="translate(-175.45 -174.75)"/><path class="a" d="M223.1,270h-.77a1.52,1.52,0,0,1-1.49-1.46c0-.54,0-1.08,0-1.62a1.52,1.52,0,0,1,1.44-1.44c.54,0,1.08,0,1.61,0a1.5,1.5,0,0,1,1.46,1.43,11.77,11.77,0,0,1,0,1.68,1.51,1.51,0,0,1-1.41,1.4c-.27,0-.56,0-.84,0Z" transform="translate(-175.45 -174.75)"/><path class="a" d="M295.67,292.67h.84a1.49,1.49,0,0,1,1.33,1.08,1.94,1.94,0,0,1,.09.48c0,.47,0,.93,0,1.4a1.56,1.56,0,0,1-1.64,1.56H295a1.54,1.54,0,0,1-1.58-1.54,12,12,0,0,1,0-1.47,1.52,1.52,0,0,1,1.59-1.51Z" transform="translate(-175.45 -174.75)"/><path class="a" d="M302.43,197.41c0-.25,0-.44,0-.62,0-3.06,0-6.13,0-9.19a3.63,3.63,0,0,1,1.23-2.8,3.48,3.48,0,0,1,2.35-1c2.15,0,4.3,0,6.45,0a3.67,3.67,0,0,1,3.58,3.61c0,1,0,2.06,0,3.08s0,2.15,0,3.23a3.66,3.66,0,0,1-2.66,3.48,4.26,4.26,0,0,1-1.17.18h-9.33C302.73,197.45,302.61,197.43,302.43,197.41Z" transform="translate(-175.45 -174.75)"/><path class="a" d="M198.17,301.8v.78c0,2.94,0,5.89,0,8.83a5.24,5.24,0,0,1-.09,1.12,3.65,3.65,0,0,1-3.48,2.83c-1.57,0-3.14,0-4.7,0h-1.61a3.72,3.72,0,0,1-3.72-3.71c0-.49,0-1,0-1.47,0-1.49,0-3,0-4.49a3.74,3.74,0,0,1,.21-1.37,3.7,3.7,0,0,1,3.37-2.55c.2,0,.42,0,.63,0h8.62Z" transform="translate(-175.45 -174.75)"/><path class="a" d="M198.07,197.48l-.68,0c-2.94,0-5.89,0-8.83,0a4.93,4.93,0,0,1-1.38-.18,3.67,3.67,0,0,1-2.67-3.41c0-.16,0-.33,0-.49V188c0-.23,0-.47,0-.7a3.7,3.7,0,0,1,3.7-3.34c2.08,0,4.16,0,6.24,0a3.72,3.72,0,0,1,3.56,2.85,3.92,3.92,0,0,1,.08.76q0,4.77,0,9.54C198.11,197.17,198.09,197.29,198.07,197.48Z" transform="translate(-175.45 -174.75)"/></svg>