<svg xmlns="http://www.w3.org/2000/svg" viewBox="0 0 149.73 149.73"><defs><style>.a{fill:#fff;}</style></defs><title>qr-github</title><path class="a" d="M302.55,197.43c0-.25,0-.44,0-.63,0-3.09,0-6.19,0-9.28a3.7,3.7,0,0,1,1.23-2.83,3.45,3.45,0,0,1,2.35-1c2.15,0,4.3,0,6.45,0a3.69,3.69,0,0,1,3.57,3.65c0,1,0,2.08,0,3.12s0,2.17,0,3.26a3.7,3.7,0,0,1-2.66,3.52,4.27,4.27,0,0,1-1.18.18H303C302.85,197.47,302.73,197.45,302.55,197.43Z" transform="translate(-175.52 -174.75)"/><path class="a" d="M198.3,301.7v9.72a4.67,4.67,0,0,1-.1,1.12,3.66,3.66,0,0,1-3.48,2.87c-1.57,0-3.13,0-4.7,0h-1.61a3.76,3.76,0,0,1-3.72-3.75c0-.5,0-1,0-1.49v-4.53a3.9,3.9,0,0,1,.2-1.4,3.71,3.71,0,0,1,3.37-2.57c.21,0,.42,0,.63,0h8.62Z" transform="translate(-175.52 -174.75)"/><path class="a" d="M198.19,197.5l-.68,0h-8.83a5,5,0,0,1-1.39-.18,3.7,3.7,0,0,1-2.66-3.45c0-.16,0-.33,0-.49v-5.53a5.61,5.61,0,0,1,0-.71,3.71,3.71,0,0,1,3.7-3.37c2.08,0,4.16,0,6.24,0a3.72,3.72,0,0,1,3.55,2.88,3.31,3.31,0,0,1,.09.77q0,4.81,0,9.64C198.23,197.19,198.21,197.31,198.19,197.5Z" transform="translate(-175.52 -174.75)"/><circle class="a" cx="65.79" cy="2.27" r="2.27"/><circle class="a" cx="79.4" cy="2.27" r="2.27"/><path class="a" d="M223.16,183.82a2.26,2.26,0,0,0,2.27-2.26V177a2.27,2.27,0,0,0-4.54,0v4.54A2.27,2.27,0,0,0,223.16,183.82Z" transform="translate(-175.52 -174.75)"/><circle class="a" cx="56.72" cy="6.81" r="2.27"/><path class="a" d="M245.85,183.82h4.54a2.27,2.27,0,1,0,0-4.53h-4.54a2.27,2.27,0,1,0,0,4.53Z" transform="translate(-175.52 -174.75)"/><path class="a" d="M220.89,192.9h2.27a2.27,2.27,0,1,0,0-4.54h-2.27v-2.27a2.27,2.27,0,1,0-4.53,0v2.27A4.53,4.53,0,0,0,220.89,192.9Z" transform="translate(-175.52 -174.75)"/><circle class="a" cx="52.18" cy="11.35" r="2.27"/><path class="a" d="M234.51,188.36h-2.27a2.27,2.27,0,1,0,0,4.54h2.27a4.53,4.53,0,0,0,4.53-4.54v-2.27a2.27,2.27,0,1,0-4.53,0Z" transform="translate(-175.52 -174.75)"/><circle class="a" cx="79.4" cy="11.35" r="2.27"/><path class="a" d="M264,188.36a2.27,2.27,0,0,0,2.27-2.27v-2.27h9.07v4.54a4.54,4.54,0,0,0,4.54,4.54v6.8a2.27,2.27,0,0,0,4.54,0v-2.26a4.54,4.54,0,0,0,0-9.08v-9.07h2.27a2.27,2.27,0,0,0,0-4.54h-2.27a4.54,4.54,0,0,0-4.54,4.54H266.27a4.53,4.53,0,0,0-4.54,4.53v2.27A2.27,2.27,0,0,0,264,188.36Z" transform="translate(-175.52 -174.75)"/><circle class="a" cx="38.57" cy="20.42" r="2.27"/><circle class="a" cx="52.18" cy="20.42" r="2.27"/><path class="a" d="M257.19,202v2.27a2.27,2.27,0,1,0,4.54,0V202a4.53,4.53,0,0,0,4.54-4.53h4.53v2.26a2.27,2.27,0,0,0,4.54,0v-2.26a4.54,4.54,0,0,0-4.54-4.54h-9.07a4.54,4.54,0,0,0-4.54,4.54Z" transform="translate(-175.52 -174.75)"/><circle class="a" cx="93.01" cy="29.49" r="2.27"/><circle class="a" cx="102.09" cy="29.49" r="2.27"/><path class="a" d="M284.42,206.51v2.27a2.27,2.27,0,1,0,4.53,0v-4.54a2.27,2.27,0,1,0-4.53,0v2.27Z" transform="translate(-175.52 -174.75)"/><path class="a" d="M205,211.05a2.27,2.27,0,0,0,0,4.54h11.35a4.54,4.54,0,0,0,4.53-4.54h4.54a4.54,4.54,0,0,0,4.54,4.54,4.53,4.53,0,0,0,4.54,4.53v2.27a2.27,2.27,0,1,0,4.53,0v-2.27a4.53,4.53,0,0,0-4.53-4.53v-4.54h9.07v11.34a2.27,2.27,0,0,0,4.54,0V211.05h6.8a2.27,2.27,0,0,0,0-4.54h-2.26V190.63a2.27,2.27,0,0,0-4.54,0v2.27h-6.81a2.27,2.27,0,1,0,0,4.54h6.81v9.07h-4.54v-2.27a2.27,2.27,0,0,0-4.54,0v2.27h-4.53V202h2.27a2.27,2.27,0,0,0,0-4.53h-2.27A4.53,4.53,0,0,0,230,202v4.54h-4.54V199.7a2.27,2.27,0,0,0-4.54,0V202h0v4.54h-4.53v-2.27a2.27,2.27,0,0,0-4.54,0v2.27h0v4.54H205Z" transform="translate(-175.52 -174.75)"/><circle class="a" cx="129.31" cy="38.57" r="2.27"/><path class="a" d="M200.48,215.59h-4.54a2.27,2.27,0,1,0,0,4.53h4.54a2.27,2.27,0,1,0,0-4.53Z" transform="translate(-175.52 -174.75)"/><circle class="a" cx="79.4" cy="43.11" r="2.27"/><path class="a" d="M284.42,215.59v-2.27a2.27,2.27,0,0,0-4.54,0v2.27h0v6.8a2.27,2.27,0,0,0,4.54,0v-2.27h9.07v4.54A4.54,4.54,0,0,0,298,229.2h11.34a2.27,2.27,0,0,0,0-4.54H298v-9.07a4.54,4.54,0,1,0-9.08,0Z" transform="translate(-175.52 -174.75)"/><circle class="a" cx="133.85" cy="43.11" r="2.27"/><path class="a" d="M323,215.59a2.27,2.27,0,0,0-2.27,2.26v2.27h-6.8a2.27,2.27,0,0,0,0,4.54h6.8v2.27a2.27,2.27,0,1,0,4.54,0v-9.08A2.26,2.26,0,0,0,323,215.59Z" transform="translate(-175.52 -174.75)"/><circle class="a" cx="29.49" cy="47.64" r="2.27"/><path class="a" d="M259.46,220.12a2.27,2.27,0,1,0,0,4.54h2.27a4.54,4.54,0,0,0,4.54-4.54h4.53a4.53,4.53,0,0,0,4.54-4.53v-2.27a2.27,2.27,0,0,0-4.54,0v2.27h-4.53a4.54,4.54,0,0,0-4.54-4.54h-2.27a2.27,2.27,0,1,0,0,4.54h2.27v4.53Z" transform="translate(-175.52 -174.75)"/><path class="a" d="M223.16,233.73a2.26,2.26,0,0,0,2.27-2.26V229.2a4.54,4.54,0,0,0-4.54-4.54,4.53,4.53,0,0,0-4.53-4.54h-2.27a2.27,2.27,0,1,0,0,4.54h2.27a4.53,4.53,0,0,0,4.53,4.54v2.27A2.27,2.27,0,0,0,223.16,233.73Z" transform="translate(-175.52 -174.75)"/><path class="a" d="M289,233.73h2.27a2.27,2.27,0,1,0,0-4.53H289v-2.27a2.27,2.27,0,1,0-4.53,0v2.27h0A4.53,4.53,0,0,0,289,233.73Z" transform="translate(-175.52 -174.75)"/><path class="a" d="M180.06,238.27a4.54,4.54,0,0,0,4.54,4.54v6.8a2.27,2.27,0,1,0,4.53,0v-2.26h2.27a2.27,2.27,0,0,0,0-4.54h-2.27a4.53,4.53,0,0,0-4.53-4.54v-4.54h9.07V236a2.27,2.27,0,0,0,4.54,0v-2.27a4.53,4.53,0,0,0-4.54-4.53,4.54,4.54,0,0,0-4.54-4.54H184.6v-4.54a4.53,4.53,0,0,0,4.53-4.53h2.27a2.27,2.27,0,1,0,0-4.54h-2.27a4.53,4.53,0,0,0-4.53,4.54,4.53,4.53,0,0,0-4.54,4.53,4.54,4.54,0,0,0-4.54,4.54v9.07A4.54,4.54,0,0,0,180.06,238.27Z" transform="translate(-175.52 -174.75)"/><path class="a" d="M209.55,238.27a2.27,2.27,0,0,0,2.27-2.27v-9.07a2.27,2.27,0,1,0-4.54,0v2.27H205a2.27,2.27,0,0,0,0,4.53h2.27V236A2.27,2.27,0,0,0,209.55,238.27Z" transform="translate(-175.52 -174.75)"/><circle class="a" cx="102.09" cy="61.26" r="2.27"/><circle class="a" cx="138.39" cy="61.26" r="2.27"/><circle class="a" cx="29.49" cy="65.79" r="2.27"/><circle class="a" cx="115.7" cy="65.79" r="2.27"/><path class="a" d="M307.1,242.81h2.27a2.27,2.27,0,1,0,0-4.54h-6.8a4.54,4.54,0,0,0-4.54,4.54v4.54H286.69a2.27,2.27,0,1,0,0,4.53H289v4.54a4.54,4.54,0,1,0,9.08,0h4.54v2.27a2.27,2.27,0,1,0,4.53,0v-6.81h2.27a2.27,2.27,0,1,0,0-4.53h-6.8v-4.54Z" transform="translate(-175.52 -174.75)"/><circle class="a" cx="34.03" cy="70.33" r="2.27"/><path class="a" d="M275.34,245.08a2.27,2.27,0,0,0,2.27,2.27h4.54a2.27,2.27,0,1,0,0-4.54h-4.54A2.27,2.27,0,0,0,275.34,245.08Z" transform="translate(-175.52 -174.75)"/><path class="a" d="M323,242.81h-9.07a2.27,2.27,0,0,0,0,4.54H323a2.27,2.27,0,0,0,0-4.54Z" transform="translate(-175.52 -174.75)"/><path class="a" d="M200.48,251.88H205a2.27,2.27,0,1,0,0-4.53h-4.53a2.27,2.27,0,1,0,0,4.53Z" transform="translate(-175.52 -174.75)"/><circle class="a" cx="38.57" cy="74.87" r="2.27"/><circle class="a" cx="6.81" cy="79.4" r="2.27"/><path class="a" d="M282.15,256.42a2.27,2.27,0,1,0,0-4.54h-4.54a2.27,2.27,0,0,0,0,4.54h4.54Z" transform="translate(-175.52 -174.75)"/><path class="a" d="M323,251.88h-6.8a4.54,4.54,0,0,0,0,9.08v2.27a2.27,2.27,0,1,0,4.53,0v-6.81H323a2.27,2.27,0,0,0,0-4.54Z" transform="translate(-175.52 -174.75)"/><path class="a" d="M180.06,267.76a2.27,2.27,0,1,0,4.54,0V265.5h4.53a4.54,4.54,0,0,0,4.54-4.54v-4.54h2.27a2.27,2.27,0,0,0,0-4.54h-2.27a4.55,4.55,0,0,0-4.54,4.54A4.53,4.53,0,0,0,184.6,261a4.54,4.54,0,0,0-4.54,4.54Z" transform="translate(-175.52 -174.75)"/><path class="a" d="M220.89,238.27V236a2.27,2.27,0,0,0-4.54,0v2.26a4.54,4.54,0,0,0,4.54,4.54v9.08h-2.27a2.27,2.27,0,1,0,0,4.53h2.27V261h-4.54a4.53,4.53,0,0,0-4.53,4.54h-9.08V261h6.81a2.27,2.27,0,0,0,0-4.54h-6.81A4.54,4.54,0,0,0,198.2,261v4.54a4.53,4.53,0,0,0-4.53,4.53,4.54,4.54,0,0,0-4.54,4.54v4.54h-6.81a2.27,2.27,0,0,0,0,4.54h2.27v2.27a2.27,2.27,0,0,0,4.54,0v-2.27h4.54v2.27a2.27,2.27,0,0,0,4.53,0v-2.27a4.54,4.54,0,0,0,4.54-4.54H205a2.27,2.27,0,1,0,0-4.54h-2.27V270h9.08a4.53,4.53,0,0,0,4.53-4.53h4.54v2.27a2.27,2.27,0,0,0,4.54,0v-25A4.54,4.54,0,0,0,220.89,238.27ZM198.2,279.11h-4.53v-4.54h4.53Z" transform="translate(-175.52 -174.75)"/><path class="a" d="M298,265.5h-2.27a2.27,2.27,0,1,0,0,4.53h4.54a2.27,2.27,0,1,0,0-4.53Z" transform="translate(-175.52 -174.75)"/><path class="a" d="M323,265.5a2.27,2.27,0,0,0-2.27,2.27v6.8a4.54,4.54,0,0,0-4.54,4.54v13.61H307.1v-9.07a4.54,4.54,0,0,0,4.54-4.54v-4.54A4.54,4.54,0,1,0,307.1,270v9.08h-4.54a4.54,4.54,0,0,0-4.54-4.54h-2.26a2.27,2.27,0,1,0,0,4.54H298v4.54h-4.53v-2.27a2.27,2.27,0,1,0-4.54,0v2.27a4.54,4.54,0,0,0-4.54,4.53v4.54a4.53,4.53,0,0,0-4.53,4.54v4.54a4.53,4.53,0,0,0-4.54,4.53h-2.27a2.27,2.27,0,0,0,0,4.54h2.27v4.54a4.53,4.53,0,0,0,4.54,4.53v2.27a2.27,2.27,0,1,0,4.53,0v-2.27h2.27a2.27,2.27,0,1,0,0-4.53h-2.27v-4.54a4.54,4.54,0,0,0,4.54-4.54H298v2.27a2.27,2.27,0,1,0,4.54,0v-2.27a4.53,4.53,0,0,0,4.54-4.53h4.54v4.53h-2.27a2.27,2.27,0,0,0,0,4.54h2.27a4.53,4.53,0,0,0,4.53-4.54,4.53,4.53,0,0,0,4.54-4.53H323a2.27,2.27,0,0,0,0-4.54h-2.27v-9.08H323a2.27,2.27,0,1,0,0-4.53h-2.27v-4.54a4.54,4.54,0,0,0,4.54-4.54v-6.8A2.27,2.27,0,0,0,323,265.5Zm-20.42,36.3H289V288.18h13.61Z" transform="translate(-175.52 -174.75)"/><circle class="a" cx="2.27" cy="97.55" r="2.27"/><path class="a" d="M268.54,279.11h4.53a2.27,2.27,0,0,0,0-4.54h-4.53a2.27,2.27,0,0,0,0,4.54Z" transform="translate(-175.52 -174.75)"/><path class="a" d="M282.15,279.11h2.27a4.53,4.53,0,0,0,4.53-4.54v-6.81a2.27,2.27,0,0,0-4.53,0V270h0v4.54h-2.27a2.27,2.27,0,1,0,0,4.54Z" transform="translate(-175.52 -174.75)"/><path class="a" d="M250.39,283.64a2.27,2.27,0,1,0,0-4.53h-2.27v-2.27a2.27,2.27,0,0,0-4.54,0v2.27h-2.27a2.27,2.27,0,1,0,0,4.53h9.08Z" transform="translate(-175.52 -174.75)"/><path class="a" d="M261.73,279.11a4.54,4.54,0,0,0-4.54-4.54h-2.27a2.27,2.27,0,0,0,0,4.54h2.27a4.53,4.53,0,0,0,4.54,4.53H264a2.27,2.27,0,1,0,0-4.53Z" transform="translate(-175.52 -174.75)"/><circle class="a" cx="2.27" cy="111.17" r="2.27"/><circle class="a" cx="29.49" cy="111.17" r="2.27"/><path class="a" d="M227.7,288.18a2.27,2.27,0,0,0,0-4.54h-2.27v-4.53h11.35a2.27,2.27,0,0,0,0-4.54H220.89V272.3a2.27,2.27,0,1,0-4.53,0v2.27h0a4.54,4.54,0,0,0-4.54,4.54v2.27a2.27,2.27,0,0,0,4.54,0v-2.27h4.53v9.07h-4.53a4.54,4.54,0,0,0-4.54,4.54V295a2.27,2.27,0,1,0,4.54,0v-2.27h4.53a4.54,4.54,0,0,0,4.54-4.54Z" transform="translate(-175.52 -174.75)"/><circle class="a" cx="102.09" cy="111.17" r="2.27"/><circle class="a" cx="56.72" cy="115.7" r="2.27"/><circle class="a" cx="52.18" cy="120.24" r="2.27"/><path class="a" d="M298,295a2.27,2.27,0,1,1-2.26-2.27A2.27,2.27,0,0,1,298,295Z" transform="translate(-175.52 -174.75)"/><path class="a" d="M220.89,297.26h-2.26a2.27,2.27,0,1,0,0,4.53h4.53a2.27,2.27,0,1,0,0-4.53Z" transform="translate(-175.52 -174.75)"/><path class="a" d="M270.8,297.26a4.54,4.54,0,1,0-4.53-4.54h-4.54a4.54,4.54,0,0,0-4.54-4.54v-2.27a2.27,2.27,0,1,0-4.53,0v2.27h0a4.54,4.54,0,0,0-4.54,4.54V295a2.27,2.27,0,1,0,4.54,0v-2.27h4.53a4.54,4.54,0,0,0,4.54,4.54,4.54,4.54,0,0,0,9.07,0Z" transform="translate(-175.52 -174.75)"/><path class="a" d="M257.19,301.79v-2.27a2.27,2.27,0,0,0-4.53,0v2.27h0a4.54,4.54,0,0,0-4.54,4.54v2.27a2.27,2.27,0,1,0,4.54,0v-2.27h4.53v2.27a2.27,2.27,0,1,0,4.54,0v-2.27A4.54,4.54,0,0,0,257.19,301.79Z" transform="translate(-175.52 -174.75)"/><path class="a" d="M230,310.87a4.54,4.54,0,0,0-4.54-4.54h-9.07a4.54,4.54,0,0,0-4.54,4.54v2.27a2.27,2.27,0,0,0,4.54,0v-2.27h9.07v2.27a2.27,2.27,0,0,0,4.54,0Z" transform="translate(-175.52 -174.75)"/><path class="a" d="M234.51,313.14a2.27,2.27,0,1,0,4.53,0V301.79h6.81a2.27,2.27,0,1,0,0-4.53H239a4.53,4.53,0,0,0-4.53,4.53h-2.27a2.27,2.27,0,0,0,0,4.54h2.27v6.81Z" transform="translate(-175.52 -174.75)"/><circle class="a" cx="70.33" cy="138.39" r="2.27"/><path class="a" d="M295.76,310.87h-4.54a2.27,2.27,0,0,0,0,4.54h4.54a2.27,2.27,0,0,0,0-4.54Z" transform="translate(-175.52 -174.75)"/><circle class="a" cx="43.1" cy="142.93" r="2.27"/><circle class="a" cx="56.72" cy="142.93" r="2.27"/><circle class="a" cx="138.39" cy="142.93" r="2.27"/><circle class="a" cx="147.46" cy="142.93" r="2.27"/><circle class="a" cx="47.64" cy="147.46" r="2.27"/><path class="a" d="M245.85,319.94h-2.27v-2.27a2.27,2.27,0,0,0-4.54,0v2.27h-2.26a2.27,2.27,0,1,0,0,4.54h9.07a2.27,2.27,0,1,0,0-4.54Z" transform="translate(-175.52 -174.75)"/><circle class="a" cx="83.94" cy="147.46" r="2.27"/><path class="a" d="M273.07,319.94H270.8v-6.8a2.27,2.27,0,1,0-4.53,0v2.27h0v4.53a4.53,4.53,0,0,0,4.53,4.54h2.27a2.27,2.27,0,1,0,0-4.54Z" transform="translate(-175.52 -174.75)"/><circle class="a" cx="115.7" cy="147.46" r="2.27"/><path class="a" d="M304.83,319.94H300.3a2.27,2.27,0,1,0,0,4.54h4.53a2.27,2.27,0,1,0,0-4.54Z" transform="translate(-175.52 -174.75)"/><path class="a" d="M196.44,174.75H186.36a10.79,10.79,0,0,0-10.84,10.72v10.31a10.79,10.79,0,0,0,10.84,10.73h20.92v-21A10.8,10.8,0,0,0,196.44,174.75Zm6.07,27H186.36a6,6,0,0,1-6.08-6V185.47a6,6,0,0,1,6.08-5.95h10.08a6,6,0,0,1,6.07,5.95Z" transform="translate(-175.52 -174.75)"/><path class="a" d="M314.4,174.75H304.33a10.79,10.79,0,0,0-10.84,10.72v21H314.4a10.8,10.8,0,0,0,10.85-10.73V185.47A10.8,10.8,0,0,0,314.4,174.75Zm6.08,21a6,6,0,0,1-6.08,6H298.25V185.47a6,6,0,0,1,6.08-5.95H314.4a6,6,0,0,1,6.08,5.95Z" transform="translate(-175.52 -174.75)"/><path class="a" d="M186.36,292.73a10.79,10.79,0,0,0-10.84,10.72v10.31a10.79,10.79,0,0,0,10.84,10.72h10.08a10.8,10.8,0,0,0,10.84-10.72v-21Zm16.15,21a6,6,0,0,1-6.07,6H186.36a6,6,0,0,1-6.08-6V303.45a6,6,0,0,1,6.08-6h16.15Z" transform="translate(-175.52 -174.75)"/><path class="a" d="M250.3,233.92a16.12,16.12,0,0,0-5.05,31.38c.79.16,1.08-.35,1.08-.77s0-1.66,0-3c-4.44,1-5.37-1.92-5.37-1.92a4.1,4.1,0,0,0-1.77-2.35c-1.46-1,.1-1,.1-1a3.34,3.34,0,0,1,2.47,1.65,3.37,3.37,0,0,0,4.65,1.33,3.47,3.47,0,0,1,1-2.16c-3.55-.37-7.28-1.76-7.28-7.94a6.33,6.33,0,0,1,1.64-4.32,5.88,5.88,0,0,1,.16-4.27s1.35-.42,4.39,1.66a15.48,15.48,0,0,1,4-.54,15.25,15.25,0,0,1,4,.54c3-2.08,4.39-1.66,4.39-1.66a5.88,5.88,0,0,1,.16,4.27,6.2,6.2,0,0,1,1.64,4.32c0,6.18-3.73,7.54-7.31,7.94a3.81,3.81,0,0,1,1.09,3c0,2.16,0,3.89,0,4.42s.29.94,1.09.78a16.12,16.12,0,0,0-5-31.38Z" transform="translate(-175.52 -174.75)"/></svg>