<svg xmlns="http://www.w3.org/2000/svg" viewBox="0 0 149.74 149.73"><defs><style>.a{fill:#fff;}</style></defs><title>qr-scratch</title><path class="a" d="M259.15,247.87a7.93,7.93,0,0,0,.09-1l.09-5.65a7.15,7.15,0,0,0-10.57-6.41A8.4,8.4,0,0,0,247,235a9.17,9.17,0,0,0-5.88,4.13,13.62,13.62,0,0,0-1.63,8.86,7.2,7.2,0,0,0-.82,3.3v6.06a7.16,7.16,0,0,0,7.15,7.16h0a7.15,7.15,0,0,0,4.6-1.67,10.53,10.53,0,0,0,6.18-2.38,10.4,10.4,0,0,0,2.52-12.6Zm-2.2,4.81a6.89,6.89,0,0,1-2.45,5.23,7.17,7.17,0,0,1-4.59,1.63,8.51,8.51,0,0,1-.88,0,3.82,3.82,0,0,1-3.18,1.7h0a3.83,3.83,0,0,1-3.82-3.84v-6.05a3.85,3.85,0,0,1,1-2.6c0-.12-.07-.25-.11-.38-.28-1.17-.65-4.77,1-7.41a5.81,5.81,0,0,1,3.75-2.65,5.3,5.3,0,0,1,1.95,0,3.83,3.83,0,0,1,6.35,3l-.1,5.65a3.62,3.62,0,0,1-.36,1.57A6.44,6.44,0,0,1,257,252.68Z" transform="translate(-174.72 -174.75)"/><path class="a" d="M245.85,258.05h0a.69.69,0,0,1-.68-.68v-6.06a.68.68,0,0,1,1.36,0c.09,3.28,1.67,3.73,3.37,3.73a2.38,2.38,0,0,0,2.53-2.47c0-1.4-1-2.23-3.06-2.46-2.47-.27-3.17-1.69-3.37-2.51a7.79,7.79,0,0,1,.62-5,2.7,2.7,0,0,1,1.73-1.24c1.36-.29,2.39.77,3.1,2l0-2.26a.68.68,0,0,1,.69-.67.67.67,0,0,1,.66.69l-.09,5.65a.68.68,0,0,1-.6.66.67.67,0,0,1-.73-.51c-.36-1.44-1.57-4.51-2.79-4.25a1.31,1.31,0,0,0-.87.64,6.57,6.57,0,0,0-.45,4,2.29,2.29,0,0,0,2.21,1.48c2.76.31,4.32,1.71,4.26,3.85a3.73,3.73,0,0,1-3.88,3.78,4.88,4.88,0,0,1-3-.84,2.74,2.74,0,0,1-.36-.32v2.15A.69.69,0,0,1,245.85,258.05Z" transform="translate(-174.72 -174.75)"/><path class="a" d="M227.33,188.91a2,2,0,0,1-2,2h-2a4,4,0,0,1-4.05,4h-2a2,2,0,0,1,0-4h2v-4.05h-4v2a2,2,0,1,1-4.05,0v-6.07h-2a2,2,0,1,1,0-4.05h2a4,4,0,0,1,4.05-4h2a2,2,0,0,1,0,4h-2v4.05h4a4,4,0,0,1,4.05,4h2A2,2,0,0,1,227.33,188.91Z" transform="translate(-174.72 -174.75)"/><path class="a" d="M277.91,174.75a2,2,0,1,1-2,2A2,2,0,0,1,277.91,174.75Z" transform="translate(-174.72 -174.75)"/><path class="a" d="M292.08,178.79v10.12a2,2,0,1,1-4.05,0v-2h-4a4,4,0,0,1-4-4v-2a2,2,0,1,1,4,0v2h4v-4.05h-2a2,2,0,1,1,0-4h2A4,4,0,0,1,292.08,178.79Z" transform="translate(-174.72 -174.75)"/><path class="a" d="M279.94,188.91a2,2,0,0,1-2,2h-6.07a4,4,0,0,1-4,4h-6.07a2,2,0,1,1,0-4h6.07v-4.05a4,4,0,1,1,8.09,0h2A2,2,0,0,1,279.94,188.91Z" transform="translate(-174.72 -174.75)"/><path class="a" d="M288,193a2,2,0,0,1-2,2H282a2,2,0,0,1,0-4H286A2,2,0,0,1,288,193Z" transform="translate(-174.72 -174.75)"/><path class="a" d="M227.33,197v4a2,2,0,1,1-4.05,0v-4a2,2,0,1,1,4.05,0Z" transform="translate(-174.72 -174.75)"/><path class="a" d="M259.7,186.89a4.05,4.05,0,0,1-4,4.05h-4a4,4,0,0,1-4.05,4h-2a2,2,0,0,1,0-4h2v-8.1h-4a4.05,4.05,0,0,1-4.05,4h-4.05V195h2a2,2,0,0,1,0,4.05h-2v2a2,2,0,1,1-4,0V186.89a4,4,0,0,1-4-4v-4.05h-2a2,2,0,0,1,0-4h2a4.05,4.05,0,0,1,4,4,4.05,4.05,0,0,1,4,4.05h4.05a4.05,4.05,0,0,1,4.05-4.05h4v-2a2,2,0,0,1,4.05,0v2a4.06,4.06,0,0,1,4,4.05A4,4,0,0,1,259.7,186.89Z" transform="translate(-174.72 -174.75)"/><path class="a" d="M249.59,199a2,2,0,1,1-2,2A2,2,0,0,1,249.59,199Z" transform="translate(-174.72 -174.75)"/><path class="a" d="M267.8,201.05v4a2,2,0,0,1-4.05,0v-4a2,2,0,0,1,4.05,0Z" transform="translate(-174.72 -174.75)"/><path class="a" d="M292.08,197v4a2,2,0,1,1-4.05,0v-4a2,2,0,1,1,4.05,0Z" transform="translate(-174.72 -174.75)"/><path class="a" d="M215.19,197a2,2,0,0,1-2,2h-2v6.07a2,2,0,0,1-4,0V199a4.05,4.05,0,0,1,4-4.05h2A2,2,0,0,1,215.19,197Z" transform="translate(-174.72 -174.75)"/><path class="a" d="M275.89,201.05v4a2,2,0,0,1-4.05,0v-4a2,2,0,0,1,4.05,0Z" transform="translate(-174.72 -174.75)"/><path class="a" d="M243.52,201.05v6.07a4.05,4.05,0,1,1-4.05-4v-2a2,2,0,0,1,4.05,0Z" transform="translate(-174.72 -174.75)"/><path class="a" d="M249.59,207.12a2,2,0,1,1-2,2A2,2,0,0,1,249.59,207.12Z" transform="translate(-174.72 -174.75)"/><path class="a" d="M312.31,213.19a2,2,0,0,1-2,2h-6.07v2a2,2,0,0,1-4.05,0v-6.07h-2a2,2,0,1,1,0-4h2a4,4,0,0,1,4.05,4h6.07A2,2,0,0,1,312.31,213.19Z" transform="translate(-174.72 -174.75)"/><path class="a" d="M207.09,211.17v2a2,2,0,1,1-4,0v-2H199v2a2,2,0,1,1-4.05,0v-2h-2a2,2,0,0,1,0-4h10.12A4,4,0,0,1,207.09,211.17Z" transform="translate(-174.72 -174.75)"/><path class="a" d="M269.82,211.17a2,2,0,1,1-2,2A2,2,0,0,1,269.82,211.17Z" transform="translate(-174.72 -174.75)"/><path class="a" d="M320.41,209.15v4a2,2,0,1,1-4.05,0v-4a2,2,0,1,1,4.05,0Z" transform="translate(-174.72 -174.75)"/><path class="a" d="M201,215.22a2,2,0,1,1-2,2A2,2,0,0,1,201,215.22Z" transform="translate(-174.72 -174.75)"/><path class="a" d="M279.94,229.38a2,2,0,0,1-2,2h-2v2a2,2,0,0,1-4.05,0V223.31h-6.07a2,2,0,0,1,0-4.05h6.07a4,4,0,0,1,4.05,4.05v4.05h2A2,2,0,0,1,279.94,229.38Z" transform="translate(-174.72 -174.75)"/><path class="a" d="M263.75,225.33a2,2,0,0,1-2,2h-8.1a2,2,0,0,1,0-4.05h2v-2a2,2,0,1,1,4,0v2h2A2,2,0,0,1,263.75,225.33Z" transform="translate(-174.72 -174.75)"/><path class="a" d="M304.22,235.45v4.05a4,4,0,0,1-4.05,4h-2a2,2,0,1,1,0-4h2v-4.05h-4.05a4,4,0,1,1-8.09,0H282a2,2,0,0,1,0-4h2a4.05,4.05,0,0,1,4-4v-4.05h-4a4,4,0,0,1-4-4.05h-2a2,2,0,0,1,0-4h2v-4.05h-2a2,2,0,0,1,0-4h2v-6.07a2,2,0,0,1,4,0v6.07a4,4,0,0,1,4,4v4.05h4.05v-2a2,2,0,1,1,4,0v10.12h2a2,2,0,0,1,0,4.05h-2v4h4.05A4,4,0,0,1,304.22,235.45Z" transform="translate(-174.72 -174.75)"/><path class="a" d="M263.75,209.15a2,2,0,0,1-2,2h-2a4.05,4.05,0,0,1-4,4.05,4.05,4.05,0,0,1-4,4h-4.05v6.07a2,2,0,1,1-4,0v-2H229.35a2,2,0,0,1,0-4.05h2v-4h-4a4,4,0,0,1-4.05,4h-2a2,2,0,1,1,0-4h2v-4.05h-4.05a4.05,4.05,0,0,1-4,4.05v12.14a4,4,0,0,1,4,4v2a2,2,0,1,1-4,0v-2a4,4,0,0,1-4.05-4H195v2a2,2,0,0,1-4,0v-2h-2a2,2,0,0,1,0-4.05h2v-2a2,2,0,1,1,4,0v2h16.19V211.17a4,4,0,0,1,4.05-4v-6.07a2,2,0,1,1,4,0v6.07h8.1v-2a2,2,0,0,1,4,0v6.07a4,4,0,0,1,4,4.05v4h8.1a4,4,0,0,1,4-4h4.05a4,4,0,0,1,4-4.05v-4h-2a2,2,0,1,1,0-4h2V197a2,2,0,1,1,4,0v10.11h2A2,2,0,0,1,263.75,209.15Z" transform="translate(-174.72 -174.75)"/><path class="a" d="M227.33,229.38v4.05a2,2,0,0,1-4.05,0v-4.05a2,2,0,0,1,4.05,0Z" transform="translate(-174.72 -174.75)"/><path class="a" d="M306.24,227.36a2,2,0,1,1-2,2A2,2,0,0,1,306.24,227.36Z" transform="translate(-174.72 -174.75)"/><path class="a" d="M190.91,233.43v2a4,4,0,0,1-4,4.05v2a2,2,0,0,1-4.05,0v-2a4,4,0,0,1-4-4.05,4,4,0,0,1-4.05-4V213.19a2,2,0,0,1,4.05,0v2h4a4,4,0,0,1,4.05-4.05h2a2,2,0,1,1,0,4.05h-2v6.07a2,2,0,0,1-4.05,0v-2h-4v4.05h2a2,2,0,0,1,0,4.05h-2v4a4,4,0,0,1,4,4h4.05v-2a2,2,0,1,1,4,0Z" transform="translate(-174.72 -174.75)"/><path class="a" d="M207.09,233.43a2,2,0,0,1-2,2H199v2a2,2,0,1,1-4.05,0v-2a4.05,4.05,0,0,1,4.05-4h6.07A2,2,0,0,1,207.09,233.43Z" transform="translate(-174.72 -174.75)"/><path class="a" d="M195,241.52v4a2,2,0,0,1-4,0v-4a2,2,0,1,1,4,0Z" transform="translate(-174.72 -174.75)"/><path class="a" d="M201,239.5a2,2,0,1,1-2,2A2,2,0,0,1,201,239.5Z" transform="translate(-174.72 -174.75)"/><path class="a" d="M227.33,243.54v8.1a4.05,4.05,0,0,1-8.1,0h-6.07a2,2,0,0,1,0-4h2a4.05,4.05,0,0,1,4-4.05,4.05,4.05,0,0,1,8.1,0Z" transform="translate(-174.72 -174.75)"/><path class="a" d="M324.45,239.5v2a2,2,0,1,1-4,0v-2h-4.05a4,4,0,0,1-4.05,4h-2a2,2,0,1,1,0-4h2v-4.05h-2a2,2,0,1,1,0-4h2v-8.09a4.05,4.05,0,1,1,8.1,0h2a2,2,0,0,1,0,4.05h-6.07v8.09h4.05A4,4,0,0,1,324.45,239.5Z" transform="translate(-174.72 -174.75)"/><path class="a" d="M215.19,237.47v2a4,4,0,0,1-4.05,4,4,4,0,0,1-4,4.05h-2a2,2,0,0,1,0-4.05h2a4.05,4.05,0,0,1,4-4v-2a2,2,0,0,1,4.05,0Z" transform="translate(-174.72 -174.75)"/><path class="a" d="M182.81,247.59v2a2,2,0,1,1-4,0v-2h-2a2,2,0,0,1,0-4.05h2A4.05,4.05,0,0,1,182.81,247.59Z" transform="translate(-174.72 -174.75)"/><path class="a" d="M201,247.59a2,2,0,1,1-2,2A2,2,0,0,1,201,247.59Z" transform="translate(-174.72 -174.75)"/><path class="a" d="M294.1,247.59a2,2,0,1,1-2,2A2,2,0,0,1,294.1,247.59Z" transform="translate(-174.72 -174.75)"/><path class="a" d="M308.26,245.57v2a4,4,0,0,1-4,4h-2a2,2,0,0,1,0-4h2v-2a2,2,0,1,1,4,0Z" transform="translate(-174.72 -174.75)"/><path class="a" d="M176.74,251.64a2,2,0,1,1-2,2A2,2,0,0,1,176.74,251.64Z" transform="translate(-174.72 -174.75)"/><path class="a" d="M211.14,253.66a2,2,0,0,1-2,2h-4.05a2,2,0,1,1,0-4h4.05A2,2,0,0,1,211.14,253.66Z" transform="translate(-174.72 -174.75)"/><path class="a" d="M201,255.68a2,2,0,1,1-2,2A2,2,0,0,1,201,255.68Z" transform="translate(-174.72 -174.75)"/><path class="a" d="M273.87,255.68a2,2,0,1,1-2,2A2,2,0,0,1,273.87,255.68Z" transform="translate(-174.72 -174.75)"/><path class="a" d="M300.17,253.66v2a4,4,0,0,1-4.05,4.05h-2a2,2,0,0,1,0-4.05h2v-2a2,2,0,0,1,4.05,0Z" transform="translate(-174.72 -174.75)"/><path class="a" d="M209.12,259.73a2,2,0,1,1-2,2A2,2,0,0,1,209.12,259.73Z" transform="translate(-174.72 -174.75)"/><path class="a" d="M316.36,249.61v6.07a4,4,0,0,1-4.05,4.05,4,4,0,0,1-4.05,4h-2a2,2,0,0,1,0-4h2a4.06,4.06,0,0,1,4.05-4.05v-6.07a2,2,0,0,1,4.05,0Z" transform="translate(-174.72 -174.75)"/><path class="a" d="M215.19,269.85a2,2,0,0,1-2,2h-6.07a4,4,0,0,1-4-4.05H192.93a2,2,0,0,1,0-4h10.12a4,4,0,0,1,4,4h6.07A2,2,0,0,1,215.19,269.85Z" transform="translate(-174.72 -174.75)"/><path class="a" d="M217.21,271.87a2,2,0,1,1-2,2A2,2,0,0,1,217.21,271.87Z" transform="translate(-174.72 -174.75)"/><path class="a" d="M227.33,263.78v10.11a2,2,0,1,1-4.05,0v-2h-2a2,2,0,1,1,0-4.05h2v-4h-6.07a2,2,0,0,1,0-4h6.07A4,4,0,0,1,227.33,263.78Z" transform="translate(-174.72 -174.75)"/><path class="a" d="M259.7,273.89a2,2,0,0,1-2,2h-8.09a2,2,0,1,1,0-4.05h8.09A2,2,0,0,1,259.7,273.89Z" transform="translate(-174.72 -174.75)"/><path class="a" d="M195,255.68a4,4,0,0,1-4,4.05,4,4,0,0,1-4,4,4,4,0,0,1-4.05,4v4.05a4,4,0,0,1-4,4.05v2a2,2,0,1,1-4.05,0V261.75a2,2,0,0,1,4.05,0v2h4v-4a4.05,4.05,0,0,1,4.05-4.05,4,4,0,0,1,8.09,0Z" transform="translate(-174.72 -174.75)"/><path class="a" d="M184.84,275.92a2,2,0,1,1-2,2A2,2,0,0,1,184.84,275.92Z" transform="translate(-174.72 -174.75)"/><path class="a" d="M275.89,286v2a4.05,4.05,0,0,1-4.05,4.05v6.07a2,2,0,0,1-4,0v-6.07a4.05,4.05,0,0,1-4.05-4.05V277.94a2,2,0,0,1,4.05,0v10.12h4v-2a2,2,0,1,1,4.05,0Z" transform="translate(-174.72 -174.75)"/><path class="a" d="M296.12,277.94V282a2,2,0,1,1-4,0v-4.05a2,2,0,0,1,4,0Z" transform="translate(-174.72 -174.75)"/><path class="a" d="M316.36,265.8v10.12a4.05,4.05,0,0,1-4.05,4.05h-4.05v2a2,2,0,0,1-4,0v-2h-2a2,2,0,0,1,0-4.05h10.12v-4.05h-2a2,2,0,1,1,0-4.05h2v-2a2,2,0,0,1,4.05,0Z" transform="translate(-174.72 -174.75)"/><path class="a" d="M203.05,282a2,2,0,0,1-2,2h-2a4.05,4.05,0,0,1-4.05-4,4.05,4.05,0,0,1,0-8.1H201a2,2,0,1,1,0,4.05h-2V280h2A2,2,0,0,1,203.05,282Z" transform="translate(-174.72 -174.75)"/><path class="a" d="M247.56,280v4a4,4,0,0,1-4,4.05h-8.1a4,4,0,0,1-4-4.05v-4h-2a2,2,0,0,1,0-4.05h2a4,4,0,0,1,4-4.05h4.05a4.05,4.05,0,0,1,4.05,4.05A4,4,0,0,1,247.56,280Z" transform="translate(-174.72 -174.75)"/><path class="a" d="M255.66,282V286a2,2,0,0,1-4,0V282a2,2,0,0,1,4,0Z" transform="translate(-174.72 -174.75)"/><path class="a" d="M231.38,290.08a2,2,0,0,1-2,2h-2a4.05,4.05,0,0,1-4.05-4.05,4.05,4.05,0,0,1-4.05-4.05h-4a4,4,0,0,1-4.05,4.05V300.2h6.07a2,2,0,0,1,0,4.05h-2a4.05,4.05,0,0,1-8.1,0V292.11H195a4.05,4.05,0,0,1-4-4.05h-4a4.05,4.05,0,0,1-4.05,4.05h-6.07a2,2,0,0,1,0-4.05h6.07a4,4,0,0,1,4.05-4.05v-2a2,2,0,0,1,4,0v2a4,4,0,0,1,4,4.05h12.14a4.05,4.05,0,0,1,4-4.05v-4h-6.07a2,2,0,0,1,0-4.05h6.07a4,4,0,0,1,4.05,4.05h4a4,4,0,0,1,4.05,4,4,4,0,0,1,4.05,4.05h2A2,2,0,0,1,231.38,290.08Z" transform="translate(-174.72 -174.75)"/><path class="a" d="M249.59,288.06a2,2,0,1,1-2,2A2,2,0,0,1,249.59,288.06Z" transform="translate(-174.72 -174.75)"/><path class="a" d="M223.28,294.13a2,2,0,0,1-2,2h-2a4,4,0,0,1-4-4v-2a2,2,0,0,1,4,0v2h2A2,2,0,0,1,223.28,294.13Z" transform="translate(-174.72 -174.75)"/><path class="a" d="M239.47,294.13a2,2,0,0,1-2,2h-2v2a2,2,0,1,1-4,0v-2a4,4,0,0,1,4-4h2A2,2,0,0,1,239.47,294.13Z" transform="translate(-174.72 -174.75)"/><path class="a" d="M255.66,294.13v4.05a2,2,0,0,1-4,0v-4.05a2,2,0,0,1,4,0Z" transform="translate(-174.72 -174.75)"/><path class="a" d="M225.3,296.15a2,2,0,1,1-2,2A2,2,0,0,1,225.3,296.15Z" transform="translate(-174.72 -174.75)"/><path class="a" d="M298.15,296.15a2,2,0,1,1-2,2A2,2,0,0,1,298.15,296.15Z" transform="translate(-174.72 -174.75)"/><path class="a" d="M229.35,300.2a2,2,0,1,1-2,2A2,2,0,0,1,229.35,300.2Z" transform="translate(-174.72 -174.75)"/><path class="a" d="M249.59,300.2a2,2,0,1,1-2,2A2,2,0,0,1,249.59,300.2Z" transform="translate(-174.72 -174.75)"/><path class="a" d="M263.75,294.13v6.07a4.05,4.05,0,0,1-4.05,4.05,4,4,0,0,1-4,4h-2a2,2,0,1,1,0-4h2a4,4,0,0,1,4-4.05v-6.07a2,2,0,0,1,4.05,0Z" transform="translate(-174.72 -174.75)"/><path class="a" d="M322.43,320.44h-2v-4.05a4,4,0,0,0-4.05-4.05h-4v-4a4,4,0,0,0,4-4V300.2a4.05,4.05,0,0,0-4-4.05v-4h4v2a2,2,0,0,0,4.05,0v-2h2a2,2,0,1,0,0-4.05h-6.07v-2a2,2,0,1,0-4,0v2H300.18v-2a2,2,0,1,0-4.05,0v2h-4.05A4.05,4.05,0,0,0,288,284v-8.09a4,4,0,0,0,4.05-4.05h4.05v2a2,2,0,0,0,4.05,0v-2h2a2,2,0,0,0,0-4H292.08a4,4,0,0,0-4.05-4.05V247.59h2a2,2,0,0,0,0-4H284v-2a2,2,0,0,0-4.05,0v6.07h-4.05v-2a2,2,0,0,0-4,0v2a4,4,0,0,0,4,4h4.05a4.05,4.05,0,0,0,4.05,4.05v4a4,4,0,0,0-4.05,4,4.05,4.05,0,0,0-4.05,4.05v4h-2a2,2,0,0,0,0,4.05h2V282a2,2,0,0,0,4.05,0v-2H284v4h-2a2,2,0,0,0,0,4.05H288v4.05h-4a4,4,0,0,0-4.05,4h-2a2,2,0,1,0,0,4.05h2a4,4,0,0,0,4.05-4.05h4v8.1a4.05,4.05,0,0,0,4.05,4h4.05v8.1a4.05,4.05,0,0,0,4.05,4.05h6.07a2,2,0,0,0,0-4.05h-2a4,4,0,0,0-4-4.05v-4h8.09v4a4,4,0,0,0,4.05,4.05v4.05a4,4,0,0,0,4,4h6.07a2,2,0,1,0,0-4ZM284,275.92h-4.05v-8.09H288v4A4,4,0,0,0,284,275.92Zm20.23,28.33H292.08V292.11h12.14Z" transform="translate(-174.72 -174.75)"/><path class="a" d="M324.45,302.22v4a2,2,0,0,1-4,0v-4a2,2,0,1,1,4,0Z" transform="translate(-174.72 -174.75)"/><path class="a" d="M247.56,298.18a2,2,0,0,1-2,2h-2v8.09a4.05,4.05,0,0,1-4.05,4h-2a2,2,0,1,1,0-4h2v-4h-2a2,2,0,1,1,0-4.05h2a4,4,0,0,1,4.05-4.05h2A2,2,0,0,1,247.56,298.18Z" transform="translate(-174.72 -174.75)"/><path class="a" d="M267.8,310.32a2,2,0,0,1-2,2h-4a2,2,0,1,1,0-4h4A2,2,0,0,1,267.8,310.32Z" transform="translate(-174.72 -174.75)"/><path class="a" d="M217.21,312.34a2,2,0,1,1-2,2A2,2,0,0,1,217.21,312.34Z" transform="translate(-174.72 -174.75)"/><path class="a" d="M229.35,312.34a2,2,0,1,1-2,2A2,2,0,0,1,229.35,312.34Z" transform="translate(-174.72 -174.75)"/><path class="a" d="M255.66,314.36a2,2,0,0,1-2,2h-4a2,2,0,1,1,0-4.05h4A2,2,0,0,1,255.66,314.36Z" transform="translate(-174.72 -174.75)"/><path class="a" d="M290.05,312.34a2,2,0,1,1-2,2A2,2,0,0,1,290.05,312.34Z" transform="translate(-174.72 -174.75)"/><path class="a" d="M213.16,316.39a2,2,0,1,1-2,2A2,2,0,0,1,213.16,316.39Z" transform="translate(-174.72 -174.75)"/><path class="a" d="M235.42,318.41v4a2,2,0,0,1-4,0v-4a2,2,0,1,1,4,0Z" transform="translate(-174.72 -174.75)"/><path class="a" d="M245.54,316.39a2,2,0,1,1-2,2A2,2,0,0,1,245.54,316.39Z" transform="translate(-174.72 -174.75)"/><path class="a" d="M267.8,322.46a2,2,0,0,1-2,2h-2a4,4,0,0,1-4.05-4.05h-2a2,2,0,0,1,0-4h2a4,4,0,0,1,4.05,4h2A2,2,0,0,1,267.8,322.46Z" transform="translate(-174.72 -174.75)"/><path class="a" d="M227.33,322.46a2,2,0,0,1-2,2h-8.09a2,2,0,0,1,0-4.05h8.09A2,2,0,0,1,227.33,322.46Z" transform="translate(-174.72 -174.75)"/><path class="a" d="M288,320.43v2a2,2,0,0,1-4,0v-2a4,4,0,0,1-4-4h-8.1v2a2,2,0,0,1-4,0v-2a4,4,0,0,1,4-4.05,4,4,0,0,1,4.05-4H286a2,2,0,0,1,0,4h-2v4.05A4,4,0,0,1,288,320.43Z" transform="translate(-174.72 -174.75)"/><path class="a" d="M195,186.15V195h-8.79a3.33,3.33,0,0,1-3.35-3.3v-5.53a3.34,3.34,0,0,1,3.35-3.31h5.43A3.34,3.34,0,0,1,195,186.15Z" transform="translate(-174.72 -174.75)"/><path class="a" d="M193.38,174.75h-9a9.63,9.63,0,0,0-9.68,9.56v9.2a9.63,9.63,0,0,0,9.68,9.56h18.65V184.31A9.63,9.63,0,0,0,193.38,174.75Zm5.42,24.08H184.4a5.38,5.38,0,0,1-5.43-5.31v-9.2A5.38,5.38,0,0,1,184.4,179h9a5.37,5.37,0,0,1,5.42,5.31Z" transform="translate(-174.72 -174.75)"/><path class="a" d="M316.36,186.15v5.53A3.33,3.33,0,0,1,313,195h-8.79v-8.83a3.34,3.34,0,0,1,3.36-3.31H313A3.34,3.34,0,0,1,316.36,186.15Z" transform="translate(-174.72 -174.75)"/><path class="a" d="M314.78,174.75h-9a9.63,9.63,0,0,0-9.67,9.56v18.77h18.65a9.63,9.63,0,0,0,9.68-9.56v-9.2A9.63,9.63,0,0,0,314.78,174.75Zm5.43,18.76a5.38,5.38,0,0,1-5.43,5.31h-14.4V184.31A5.37,5.37,0,0,1,305.8,179h9a5.38,5.38,0,0,1,5.43,5.31Z" transform="translate(-174.72 -174.75)"/><path class="a" d="M195,304.25v8.84a3.34,3.34,0,0,1-3.36,3.3h-5.43a3.33,3.33,0,0,1-3.35-3.3v-5.54a3.33,3.33,0,0,1,3.35-3.3Z" transform="translate(-174.72 -174.75)"/><path class="a" d="M184.4,296.16a9.63,9.63,0,0,0-9.68,9.56v9.2a9.63,9.63,0,0,0,9.68,9.56h9a9.63,9.63,0,0,0,9.67-9.56V296.15Zm14.4,18.76a5.37,5.37,0,0,1-5.42,5.31h-9a5.38,5.38,0,0,1-5.43-5.31v-9.2a5.38,5.38,0,0,1,5.43-5.31h14.4Z" transform="translate(-174.72 -174.75)"/><path class="a" d="M195,186.15V195h-8.79a3.33,3.33,0,0,1-3.35-3.3v-5.53a3.34,3.34,0,0,1,3.35-3.31h5.43A3.34,3.34,0,0,1,195,186.15Z" transform="translate(-174.72 -174.75)"/><path class="a" d="M316.36,186.15v5.53A3.33,3.33,0,0,1,313,195h-8.79v-8.83a3.34,3.34,0,0,1,3.36-3.31H313A3.34,3.34,0,0,1,316.36,186.15Z" transform="translate(-174.72 -174.75)"/><path class="a" d="M195,304.25v8.84a3.34,3.34,0,0,1-3.36,3.3h-5.43a3.33,3.33,0,0,1-3.35-3.3v-5.54a3.33,3.33,0,0,1,3.35-3.3Z" transform="translate(-174.72 -174.75)"/></svg>